TexturaLibera-Bold.sfdir
StartChar: quotedbl
Encoding: 34 34 2
Width: 500
Flags: W
HStem: 679 20G<135 175 335 375>
LayerCount: 2
Back
SplineSet
320 635 m 29
 390 565 l 5
 390 495 l 29
 285 390 l 1053
120 635 m 25
 190 565 l 1
 190 495 l 25
 85 390 l 1049
EndSplineSet
Fore
SplineSet
56 600 m 1
 155 699 l 1
 254 600 l 1
 254 530 l 1
 50 326 l 1
 21 355 l 1
 126 460 l 1
 126 530 l 1
 56 600 l 1
256 600 m 1
 355 699 l 1
 454 600 l 1
 454 530 l 1
 250 326 l 1
 221 355 l 1
 326 460 l 1
 326 530 l 1
 256 600 l 1
EndSplineSet
EndChar
StartChar: numbersign
Encoding: 35 35 3
Width: 700
Flags: W
HStem: -214 21G<-5 35 195 235> 136 128<85 137 292 337 492 615> 336 128<85 231 386 431 586 615>
LayerCount: 2
Back
SplineSet
250 -150 m 25
 650 700 l 1049
50 -150 m 25
 450 700 l 1049
50 200 m 25
 650 200 l 1049
50 400 m 25
 650 400 l 1049
EndSplineSet
Fore
SplineSet
-14 365 m 1
 85 464 l 1
 291 464 l 1
 386 665 l 1
 485 764 l 1
 514 735 l 1
 386 464 l 1
 491 464 l 1
 586 665 l 1
 685 764 l 1
 714 735 l 1
 586 464 l 1
 685 464 l 1
 714 435 l 1
 615 336 l 1
 526 336 l 1
 492 264 l 1
 685 264 l 1
 714 235 l 1
 615 136 l 1
 432 136 l 1
 314 -115 l 1
 215 -214 l 1
 186 -185 l 1
 337 136 l 1
 232 136 l 1
 114 -115 l 1
 15 -214 l 1
 -14 -185 l 1
 137 136 l 1
 15 136 l 1
 -14 165 l 1
 85 264 l 1
 197 264 l 1
 231 336 l 1
 15 336 l 1
 -14 365 l 1
292 264 m 1
 397 264 l 1
 431 336 l 1
 326 336 l 1
 292 264 l 1
EndSplineSet
EndChar
StartChar: percent
Encoding: 37 37 5
Width: 700
Flags: W
HStem: -214 21G<-5 35 445 485>
VStem: 36 128<448.161 565> 236 128<485 601.839> 336 128<-51.8394 65> 536 128<-15 101.839>
LayerCount: 2
Back
SplineSet
500 200 m 25
 400 100 l 25
 400 -50 l 25
 500 -150 l 25
 600 -50 l 25
 600 100 l 25
 500 200 l 25
50 -150 m 25
 650 700 l 1049
200 700 m 25
 100 600 l 25
 100 450 l 25
 200 350 l 25
 300 450 l 25
 300 600 l 25
 200 700 l 25
EndSplineSet
Fore
SplineSet
165 636 m 1xe8
 164 635 l 1
 164 485 l 2
 164 447 214 435 235 414 c 1
 236 415 l 1
 236 565 l 2
 236 603 186 615 165 636 c 1xe8
36 565 m 1
 235 764 l 1
 364 635 l 1
 364 485 l 1
 165 286 l 1
 36 415 l 1
 36 565 l 1
15 -214 m 1
 -14 -185 l 1
 586 665 l 1
 685 764 l 1
 714 735 l 1
 114 -115 l 1
 15 -214 l 1
465 136 m 1
 464 135 l 1
 464 -15 l 2xd8
 464 -53 514 -65 535 -86 c 1
 536 -85 l 1
 536 65 l 2
 536 103 486 115 465 136 c 1
336 65 m 1
 535 264 l 1
 664 135 l 1
 664 -15 l 1
 465 -214 l 1
 336 -85 l 1
 336 65 l 1
EndSplineSet
EndChar
StartChar: quotesingle
Encoding: 39 39 7
Width: 300
Flags: W
HStem: 679 20G<135 175>
VStem: 21 233
LayerCount: 2
Back
SplineSet
120 635 m 29
 190 565 l 5
 190 495 l 29
 85 390 l 1053
EndSplineSet
Fore
SplineSet
56 600 m 1
 155 699 l 1
 254 600 l 1
 254 530 l 1
 50 326 l 1
 21 355 l 1
 126 460 l 1
 126 530 l 1
 56 600 l 1
EndSplineSet
EndChar
StartChar: plus
Encoding: 43 43 11
Width: 600
Flags: W
HStem: 236 128<135 236 364 465> 544 20G<315 355>
VStem: 236 128<135 236 364 465>
LayerCount: 2
Back
SplineSet
300 500 m 29
 300 100 l 1053
100 300 m 29
 500 300 l 1053
EndSplineSet
Fore
SplineSet
36 265 m 1
 135 364 l 1
 236 364 l 1
 236 465 l 1
 335 564 l 1
 364 535 l 1
 364 364 l 1
 535 364 l 1
 564 335 l 1
 465 236 l 1
 364 236 l 1
 364 135 l 1
 265 36 l 1
 236 65 l 1
 236 236 l 1
 65 236 l 1
 36 265 l 1
EndSplineSet
EndChar
StartChar: period
Encoding: 46 46 14
Width: 300
Flags: W
HStem: -64 198
VStem: 51 198
LayerCount: 2
Back
SplineSet
115 70 m 29
 185 0 l 1053
EndSplineSet
Fore
SplineSet
51 35 m 1
 150 134 l 1
 249 35 l 1
 150 -64 l 1
 51 35 l 1
EndSplineSet
EndChar
StartChar: slash
Encoding: 47 47 15
Width: 500
Flags: W
HStem: -214 21G<-5 35>
LayerCount: 2
Back
SplineSet
50 -150 m 29
 450 700 l 1053
EndSplineSet
Fore
SplineSet
15 -214 m 1
 -14 -185 l 1
 386 665 l 1
 485 764 l 1
 514 735 l 1
 114 -115 l 1
 15 -214 l 1
EndSplineSet
EndChar
StartChar: zero
Encoding: 48 48 16
Width: 400
Flags: W
HStem: 444 20G<215 275> 444 20G<215 275>
VStem: 36 128<99 265> 236 128<135 301>
LayerCount: 2
Back
SplineSet
200 400 m 1
 100 300 l 1
 100 50 l 25
 200 0 l 1
 300 100 l 1
 300 350 l 25
 200 400 l 1
EndSplineSet
Fore
SplineSet
165 336 m 1x30
 164 335 l 1
 164 99 l 1
 235 64 l 1
 236 65 l 1
 236 301 l 1
 165 336 l 1x30
36 265 m 1
 235 464 l 1xb0
 335 414 l 1
 364 385 l 1
 364 135 l 1
 165 -64 l 1
 65 -14 l 1
 36 15 l 1
 36 265 l 1
EndSplineSet
Substitution2: "Subscript forms-1" zero.inferior
Substitution2: "Superscript forms-1" zero.superior
EndChar
StartChar: one
Encoding: 49 49 17
Width: 400
Flags: W
HStem: 444 20G<190 230> 444 20G<190 230>
VStem: 136 128<90 332>
LayerCount: 2
Back
SplineSet
125 50 m 25
 225 0 l 1
 275 50 l 1049
225 350 m 25
 175 400 l 25
 125 350 l 1049
200 375 m 9
 200 25 l 1025
EndSplineSet
Fore
SplineSet
249 424 m 1xa0
 289 385 l 1
 264 360 l 1
 264 68 l 1
 275 79 306 110 310 114 c 1
 339 85 l 1
 190 -64 l 1
 90 -14 l 1
 61 15 l 1
 136 90 l 1
 136 332 l 1
 90 286 l 1
 61 315 l 1
 210 464 l 1
 235 439 l 1
 249 424 l 1xa0
EndSplineSet
Substitution2: "Subscript forms-1" one.inferior
Substitution2: "Superscript forms-1" one.superior
EndChar
StartChar: two
Encoding: 50 50 18
Width: 400
Flags: W
HStem: -14 128<186.442 308.187> 444 20G<165 275> 444 20G<165 275>
LayerCount: 2
Back
SplineSet
100 350 m 1
 150 400 l 1
 200 400 l 1
 300 350 l 1
 300 275 l 1
 100 75 l 25
 100 0 l 1
 100 0 163 50 250 50 c 3
 285 50 325 0 326 0 c 1025
EndSplineSet
Fore
SplineSet
65 286 m 1xc0
 36 315 l 1
 185 464 l 1
 235 464 l 1
 335 414 l 1
 364 385 l 1
 364 310 l 1
 164 110 l 1
 164 82 l 1
 191 97 234 114 285 114 c 0
 308 114 333 92 348 77 c 2
 377 48 l 2
 382 43 386 39 388 37 c 2
 390 35 l 1
 291 -64 l 2
 267 -40 l 2
 252 -27 233 -14 215 -14 c 0
 128 -14 65 -64 65 -64 c 1
 36 -35 l 1
 36 40 l 1
 236 240 l 1
 236 301 l 1
 165 336 l 1
 115 336 l 1
 65 286 l 1xc0
EndSplineSet
Substitution2: "Subscript forms-1" two.inferior
Substitution2: "Superscript forms-1" two.superior
EndChar
StartChar: six
Encoding: 54 54 22
Width: 400
Flags: W
HStem: 444 20G<215 255> 444 20G<215 255> 511 153<203 260.983>
VStem: 36 128<135 337 393 490> 236 128<135 265>
LayerCount: 2
Back
SplineSet
100 300 m 25
 200 400 l 25
 300 300 l 25
 300 100 l 25
 200 0 l 25
 100 100 l 1
 100 525 l 1
 175 600 l 25
 175 600 213 575 250 575 c 3
 278 575 300 600 301 600 c 1049
EndSplineSet
Fore
SplineSet
164 393 m 1xb8
 235 464 l 1
 364 335 l 1
 364 135 l 1
 165 -64 l 1
 36 65 l 1
 36 490 l 1
 210 664 l 1
 210 664 248 639 285 639 c 0
 313 639 335 664 336 664 c 2
 365 635 l 1
 266 536 l 2
 265 536 243 511 215 511 c 0
 197 511 178 517 164 523 c 1
 164 393 l 1xb8
164 337 m 1
 164 135 l 1
 235 64 l 1
 236 65 l 1
 236 265 l 1
 164 337 l 1
EndSplineSet
Substitution2: "Subscript forms-1" six.inferior
Substitution2: "Superscript forms-1" six.superior
EndChar
StartChar: seven
Encoding: 55 55 23
Width: 400
Flags: W
HStem: 286 128<160.922 287> 444 20G<90 170 335 405> 444 20G<90 170 335 405>
VStem: 136 129<-90 82.6104> 146 118<-89.1406 83.4316>
LayerCount: 2
Back
SplineSet
165 -90 m 25
 235 -160 l 1049
75 400 m 1
 75 400 137 350 225 350 c 3
 279 350 350 400 350 400 c 1
 350 400 200 276 200 0 c 3
 200 -32 200 -125 201.400390625 -125 c 1025
100 125 m 25
 100 125 147 150 175 150 c 24
 219 150 206 125 250 125 c 24
 278 125 325 150 326 150 c 1049
EndSplineSet
Fore
SplineSet
36 90 m 1xc8
 135 189 l 1
 135 189 158 202 182 209 c 1
 196 242 211 270 225 292 c 1
 213 289 201 286 190 286 c 0
 102 286 40 336 40 336 c 1
 11 365 l 1
 110 464 l 1
 110 464 172 414 260 414 c 0
 314 414 385 464 385 464 c 1
 414 435 l 1
 393 414 l 2
 363 380 308 307 281 189 c 1
 282 189 284 189 285 189 c 0
 313 189 360 214 361 214 c 2
 390 185 l 1
 291 86 l 2
 291 86 279 80 265 74 c 1xd0
 264 61 264 48 264 35 c 0xc8
 264 3 264 -87 265 -90 c 2
 265 -91 l 1
 299 -125 l 1
 200 -224 l 1
 101 -125 l 1
 136 -90 l 1
 136 -69 136 -47 136 -35 c 0xd0
 136 9 140 50 146 86 c 1
 144 86 142 86 140 86 c 0
 112 86 65 61 65 61 c 1
 36 90 l 1xc8
EndSplineSet
Substitution2: "Subscript forms-1" seven.inferior
Substitution2: "Superscript forms-1" seven.superior
EndChar
StartChar: nine
Encoding: 57 57 25
Width: 400
Flags: W
HStem: -214 128<107 193> 444 20G<215 255> 444 20G<215 255>
VStem: 36 128<135 265> 236 128<-102 7 63 265>
LayerCount: 2
Back
SplineSet
300 100 m 1
 200 0 l 1
 100 100 l 25
 100 300 l 25
 200 400 l 25
 300 300 l 1
 300 -150 l 9
 250 -200 l 25
 250 -200 194 -150 150 -150 c 27
 115 -150 75 -200 75 -200 c 1025
EndSplineSet
Fore
SplineSet
236 7 m 1xd8
 165 -64 l 1
 36 65 l 1
 36 265 l 1
 235 464 l 1
 364 335 l 1
 364 -115 l 1
 215 -264 l 1
 215 -264 159 -214 115 -214 c 0
 99 -214 81 -225 68 -236 c 2
 40 -264 l 1
 11 -235 l 2
 11 -235 16 -230 24 -221 c 2
 25 -220 l 2
 124 -121 l 2
 139 -106 163 -86 185 -86 c 0
 201 -86 220 -93 236 -102 c 1
 236 7 l 1xd8
236 63 m 1
 236 265 l 1
 165 336 l 1
 164 335 l 1
 164 135 l 1
 236 63 l 1
EndSplineSet
Substitution2: "Subscript forms-1" nine.inferior
Substitution2: "Superscript forms-1" nine.superior
EndChar
StartChar: colon
Encoding: 58 58 26
Width: 300
Flags: W
VStem: 51 198
LayerCount: 2
Back
SplineSet
115 360 m 25
 185 290 l 1049
115 70 m 25
 185 0 l 1049
EndSplineSet
Fore
SplineSet
51 35 m 1
 150 134 l 1
 249 35 l 1
 150 -64 l 1
 51 35 l 1
51 325 m 1
 150 424 l 1
 249 325 l 1
 150 226 l 1
 51 325 l 1
EndSplineSet
EndChar
StartChar: less
Encoding: 60 60 28
Width: 600
Flags: W
HStem: 544 20G<495 555>
LayerCount: 2
Back
SplineSet
500 500 m 25
 100 300 l 25
 500 100 l 1049
EndSplineSet
Fore
SplineSet
564 535 m 1
 465 436 l 1
 228 318 l 1
 535 164 l 1
 564 135 l 1
 465 36 l 1
 65 236 l 1
 36 265 l 1
 135 364 l 1
 535 564 l 1
 564 535 l 1
EndSplineSet
EndChar
StartChar: equal
Encoding: 61 61 29
Width: 600
Flags: W
HStem: 136 128<135 465> 336 128<135 465>
LayerCount: 2
Back
SplineSet
100 200 m 25
 500 200 l 1049
100 400 m 25
 500 400 l 1049
EndSplineSet
Fore
SplineSet
36 365 m 1
 135 464 l 1
 535 464 l 1
 564 435 l 1
 465 336 l 1
 65 336 l 1
 36 365 l 1
36 165 m 1
 135 264 l 1
 535 264 l 1
 564 235 l 1
 465 136 l 1
 65 136 l 1
 36 165 l 1
EndSplineSet
EndChar
StartChar: greater
Encoding: 62 62 30
Width: 600
Flags: W
HStem: 544 20G<115 175>
LayerCount: 2
Back
SplineSet
100 500 m 25
 500 300 l 25
 100 100 l 1053
EndSplineSet
Fore
SplineSet
36 465 m 1
 135 564 l 1
 535 364 l 1
 564 335 l 1
 465 236 l 1
 65 36 l 1
 36 65 l 1
 135 164 l 1
 372 282 l 1
 65 436 l 1
 36 465 l 1
EndSplineSet
EndChar
StartChar: B
Encoding: 66 66 34
Width: 700
Flags: W
HStem: -64 21G<-5 35 325 485> -14 128<113.505 180 220 264.342> 486 21G<-5 35> 536 128<82.5 177>
VStem: 180 40<114 513> 261 128<185 287 293 509> 536 128<136 240>
AnchorPoint: "blwmark" 350 0 basechar 0
AnchorPoint: "abvmark" 400 700 basechar 0
LayerCount: 2
Back
SplineSet
50 550 m 5
 50 550 84 600 124 600 c 7
 160 600 178 575 200 575 c 7
 228 575 250 600 251 600 c 1029
200 550 m 1
 200 75 l 1025
325 150 m 5
 325 550 l 5
 375 600 l 5
 600 475 l 5
 450 325 l 1029
500 375 m 5
 600 275 l 5
 600 101 l 29
 500 0 l 21
 500 0 349 50 150 50 c 7
 81 50 50 0 50 0 c 1037
EndSplineSet
Fore
SplineSet
15 486 m 1
 -14 515 l 1
 -14 515 -7 525 4 536 c 2
 103 635 l 2
 117 649 137 664 159 664 c 0
 195 664 213 639 235 639 c 0
 263 639 285 664 286 664 c 2
 315 635 l 1
 220 541 l 1
 220 113 l 1
 235 113 251 112 265 111 c 1
 261 115 l 1
 261 515 l 1
 410 664 l 1
 635 539 l 1
 664 510 l 1
 564 410 l 1
 664 310 l 1
 664 136 l 1
 564 35 l 1
 465 -64 l 1
 465 -64 314 -14 115 -14 c 0
 83 -14 58 -26 42 -37 c 2
 15 -64 l 1
 -14 -35 l 2
 -14 -35 -10 -29 -2 -21 c 2
 -2 -20 l 2
 97 79 l 2
 111 93 139 112 180 114 c 1
 180 513 l 1
 175 512 170 511 165 511 c 0
 143 511 125 536 89 536 c 0
 76 536 63 530 52 523 c 2
 15 486 l 1
528 432 m 1
 389 509 l 1
 389 293 l 1
 436 340 l 1
 528 432 l 1
311 107 m 1
 437 94 525 67 534 64 c 1
 536 66 l 1
 536 240 l 1
 465 311 l 1
 415 261 l 1
 389 287 l 1
 389 185 l 1
 311 107 l 1
EndSplineSet
EndChar
StartChar: C
Encoding: 67 67 35
Width: 750
Flags: W
HStem: -64 21G<324 412> 486 128<509 592> 644 20G<311.364 355 469 501 641 681>
VStem: 61 128<206.161 371.162> 280 40<108 443 543 551> 361 128<135 465>
AnchorPoint: "blwmark" 400 0 basechar 0
AnchorPoint: "abvmark" 450 700 basechar 0
LayerCount: 2
Back
SplineSet
300 550 m 5
 300 100 l 1029
425 500 m 5
 425 100 l 1029
300 600 m 5
 300 600 125 480 125 300 c 7
 125 134 220 0 400 0 c 7
 519 0 651 150 652 150 c 1029
300 492 m 5
 300 492 395 600 455 600 c 7
 519 600 492 550 550 550 c 7
 598 550 625 600 626 600 c 1029
EndSplineSet
Fore
SplineSet
265 428 m 1
 236 457 l 1
 236 457 244 466 258 480 c 2
 280 502 l 1
 280 551 l 1
 265 536 l 1
 265 536 263 535 261 533 c 0
 223 482 189 415 189 335 c 0
 189 252 212 178 258 124 c 0
 265 118 273 113 280 108 c 1
 280 443 l 1
 265 428 l 1
431 535 m 2
 428 535 424 536 420 536 c 0
 390 536 352 509 320 482 c 1
 320 86 l 1
 333 81 347 75 361 72 c 1
 361 465 l 1
 431 535 l 2
418 64 m 1
 423 64 429 64 435 64 c 0
 518 64 607 137 654 181 c 2
 687 214 l 1
 716 185 l 1
 714 183 l 2
 712 180 707 176 699 168 c 2
 699 167 l 1
 600 68 l 2
 560 28 459 -64 365 -64 c 0
 283 -64 220 -37 174 9 c 2
 173 9 l 2
 144 38 l 2
 89 93 61 174 61 265 c 0
 61 376 128 464 179 516 c 0
 180 517 l 2
 279 616 l 2
 280 616 l 2
 280 620 l 1
 283 620 l 1
 312 648 335 664 335 664 c 1
 364 635 l 1
 320 592 l 1
 320 543 l 1
 357 579 l 2
 358 580 l 0
 390 612 448 664 490 664 c 0
 512 664 523 659 531 651 c 2
 560 622 l 2
 560 621 l 2
 561 620 563 618 564 617 c 0
 570 615 576 614 585 614 c 0
 599 614 611 619 621 624 c 2
 661 664 l 2
 690 635 l 2
 688 633 682 622 671 611 c 2
 572 512 l 2
 559 499 540 486 515 486 c 0
 503 486 495 488 489 491 c 1
 489 135 l 1
 418 64 l 1
EndSplineSet
EndChar
StartChar: E
Encoding: 69 69 37
Width: 750
Flags: W
HStem: -64 21G<324 412> 236 178<490.415 563.849> 486 128<509 592> 644 20G<311.364 355 469 501 641 681>
VStem: 61 128<206.161 371.162> 280 40<108 443 543 551> 361 128<135 252 391 465>
AnchorPoint: "blwmark" 400 0 basechar 0
AnchorPoint: "abvmark" 450 700 basechar 0
LayerCount: 2
Back
SplineSet
425 300 m 25
 425 300 472 350 500 350 c 27
 535 350 515 300 550 300 c 3
 591 300 625 350 626 350 c 1049
300 550 m 1
 300 100 l 1025
425 500 m 1
 425 100 l 1025
300 600 m 1
 300 600 125 480 125 300 c 3
 125 134 220 0 400 0 c 3
 519 0 651 150 652 150 c 1025
300 492 m 1
 300 492 395 600 455 600 c 3
 519 600 492 550 550 550 c 3
 598 550 625 600 626 600 c 1025
EndSplineSet
Fore
SplineSet
265 428 m 1
 236 457 l 1
 236 457 244 466 258 480 c 2
 280 502 l 1
 280 551 l 1
 265 536 l 1
 265 536 263 535 261 533 c 0
 223 482 189 415 189 335 c 0
 189 252 212 178 258 124 c 0
 265 118 273 113 280 108 c 1
 280 443 l 1
 265 428 l 1
431 535 m 2
 428 535 424 536 420 536 c 0
 390 536 352 509 320 482 c 1
 320 86 l 1
 333 81 347 75 361 72 c 1
 361 265 l 1
 361 465 l 1
 431 535 l 2
418 64 m 1
 423 64 429 64 435 64 c 0
 518 64 607 137 654 181 c 2
 687 214 l 1
 716 185 l 1
 714 183 l 2
 712 180 707 176 699 168 c 2
 699 167 l 1
 600 68 l 2
 560 28 459 -64 365 -64 c 0
 283 -64 220 -37 174 9 c 2
 173 9 l 2
 144 38 l 2
 89 93 61 174 61 265 c 0
 61 376 128 464 179 516 c 0
 180 517 l 2
 279 616 l 2
 280 616 l 2
 280 620 l 1
 283 620 l 1
 312 648 335 664 335 664 c 1
 364 635 l 1
 320 592 l 1
 320 543 l 1
 357 579 l 2
 358 580 l 0
 390 612 448 664 490 664 c 0
 512 664 523 659 531 651 c 2
 560 622 l 2
 560 621 l 2
 561 620 563 618 564 617 c 0
 570 615 576 614 585 614 c 0
 599 614 611 619 621 624 c 2
 661 664 l 2
 690 635 l 2
 688 633 682 622 671 611 c 2
 572 512 l 2
 559 499 540 486 515 486 c 0
 503 486 495 488 489 491 c 1
 489 391 l 1
 504 403 522 414 535 414 c 0
 542 414 547 411 551 408 c 2
 580 379 l 2
 584 375 587 369 588 364 c 1
 603 365 616 372 627 380 c 2
 661 414 l 2
 690 385 l 2
 687 382 682 375 673 366 c 2
 574 267 l 2
 560 253 539 236 515 236 c 0
 508 236 503 239 499 242 c 2
 489 252 l 1
 489 135 l 1
 418 64 l 1
EndSplineSet
EndChar
StartChar: F
Encoding: 70 70 38
Width: 700
Flags: W
HStem: -64 21G<-5 35 220 260> -14 128<113.506 179.559> 461 128<451.5 541.5> 486 21G<-5 35> 536 128<82.5 177>
VStem: 180 40<114 513> 261 128<101 286 369 491>
AnchorPoint: "blwmark" 350 0 basechar 0
AnchorPoint: "abvmark" 400 700 basechar 0
LayerCount: 2
Back
SplineSet
50 0 m 17
 50 0 81 50 150 50 c 3
 248 50 275 0 275 0 c 9
 325 50 l 1
 325 550 l 1
 375 600 l 1
 375 600 438 525 500 525 c 27
 555 525 600 600 601 600 c 1025
50 550 m 1
 50 550 84 600 124 600 c 3
 160 600 178 575 200 575 c 3
 228 575 250 600 251 600 c 1025
200 550 m 1
 200 75 l 1025
350 300 m 1
 350 300 393 350 421 350 c 3
 456 350 465 300 500 300 c 3
 541 300 575 350 576 350 c 1049
EndSplineSet
Fore
SplineSet
15 486 m 1xde
 -14 515 l 1
 -14 515 -7 525 4 536 c 2
 103 635 l 2
 117 649 137 664 159 664 c 0
 195 664 213 639 235 639 c 0
 263 639 285 664 286 664 c 2
 315 635 l 1
 220 541 l 1
 220 112 l 1
 236 110 250 105 261 101 c 1
 261 515 l 1
 410 664 l 1xde
 438 636 l 2
 462 615 499 589 535 589 c 0xe6
 548 589 560 593 571 599 c 2
 636 664 l 2xce
 665 635 l 2
 663 632 651 614 633 596 c 2
 633 595 l 2
 534 496 l 2
 516 478 491 461 465 461 c 0xe6
 438 461 411 475 389 491 c 1
 389 369 l 1
 397 377 l 2
 398 378 l 0
 413 393 438 414 456 414 c 0
 469 414 478 407 486 399 c 2
 515 370 l 1
 521 366 527 364 535 364 c 0
 551 364 566 372 577 380 c 2
 611 414 l 2
 640 385 l 2
 637 382 632 375 623 366 c 2
 524 267 l 2
 510 253 489 236 465 236 c 0
 453 236 443 242 435 250 c 2
 435 251 l 1
 406 280 l 2
 401 283 395 285 389 286 c 1
 389 85 l 1
 240 -64 l 1
 217 -41 l 1
 198 -28 166 -14 115 -14 c 0
 83 -14 59 -25 42 -37 c 2
 15 -64 l 1
 -14 -35 l 1
 -14 -35 -10 -28 -2 -20 c 2
 97 79 l 2
 111 93 139 112 180 114 c 1
 180 513 l 1
 175 512 170 511 165 511 c 0
 143 511 125 536 89 536 c 0
 76 536 63 530 52 523 c 2
 15 486 l 1xde
EndSplineSet
EndChar
StartChar: J
Encoding: 74 74 42
Width: 450
Flags: W
HStem: -214 128<38.2529 133.132> 486 21G<-5 35> 536 128<82.5 177>
VStem: 180 40<-97 513> 261 128<-40 515>
AnchorPoint: "abvmark" 250 700 basechar 0
LayerCount: 2
Back
SplineSet
50 550 m 1
 50 550 84 600 124 600 c 3
 160 600 178 575 200 575 c 3
 228 575 250 600 251 600 c 1025
200 550 m 1
 200 -125 l 1025
375 600 m 1
 325 550 l 1
 325 -75 l 1
 200 -200 l 1
 200 -200 173 -150 75 -150 c 3
 6 -150 -25 -200 -25 -200 c 1029
EndSplineSet
Fore
SplineSet
410 664 m 1
 439 635 l 1
 389 585 l 1
 389 -40 l 1
 165 -264 l 1
 142 -241 l 1
 123 -228 91 -214 40 -214 c 0
 8 -214 -17 -226 -33 -237 c 2
 -60 -264 l 1
 -89 -235 l 2
 -89 -235 -85 -229 -77 -221 c 2
 -77 -220 l 2
 22 -121 l 2
 37 -106 66 -86 110 -86 c 0
 139 -86 162 -91 180 -97 c 1
 180 513 l 1
 175 512 170 511 165 511 c 0
 143 511 125 536 89 536 c 0
 76 536 63 530 52 523 c 2
 15 486 l 1
 -14 515 l 1
 -14 515 -7 525 4 536 c 2
 103 635 l 2
 117 649 137 664 159 664 c 0
 195 664 213 639 235 639 c 0
 263 639 285 664 286 664 c 2
 315 635 l 1
 220 541 l 1
 220 -119 l 2
 222 -120 224 -123 225 -124 c 0
 236 -135 l 1
 261 -110 l 1
 261 515 l 1
 410 664 l 1
EndSplineSet
EndChar
StartChar: L
Encoding: 76 76 44
Width: 700
Flags: W
HStem: -64 21G<-5 35 325 485> -14 128<113.505 180 220 264.342> 486 21G<-5 35> 536 128<82.5 177>
VStem: 180 40<114 513> 261 128<185 515> 486 128<181.654 268>
AnchorPoint: "blwmark" 350 0 basechar 0
AnchorPoint: "abvmark" 400 700 basechar 0
LayerCount: 2
Back
SplineSet
50 550 m 1
 50 550 84 600 124 600 c 3
 160 600 178 575 200 575 c 3
 228 575 250 600 251 600 c 1025
200 550 m 1
 200 75 l 1025
325 150 m 1
 325 550 l 1
 375 600 l 1025
600 300 m 1
 600 300 550 261 550 225 c 3
 550 164 600 101 600 101 c 1
 500 0 l 17
 500 0 349 50 150 50 c 3
 81 50 50 0 50 0 c 1033
EndSplineSet
Fore
SplineSet
664 335 m 1
 634 305 l 2
 623 292 614 276 614 260 c 0
 614 199 664 136 664 136 c 1
 564 35 l 1
 465 -64 l 1
 465 -64 314 -14 115 -14 c 0
 83 -14 58 -26 42 -37 c 2
 15 -64 l 1
 -14 -35 l 2
 -14 -35 -10 -29 -2 -21 c 2
 -2 -20 l 2
 97 79 l 2
 111 93 139 112 180 114 c 1
 180 513 l 1
 175 512 170 511 165 511 c 0
 143 511 125 536 89 536 c 0
 76 536 63 530 52 523 c 2
 15 486 l 1
 -14 515 l 1
 -14 515 -7 525 4 536 c 2
 103 635 l 2
 117 649 137 664 159 664 c 0
 195 664 213 639 235 639 c 0
 263 639 285 664 286 664 c 2
 315 635 l 1
 220 541 l 1
 220 113 l 1
 235 113 251 112 265 111 c 1
 261 115 l 1
 261 515 l 1
 410 664 l 1
 439 635 l 1
 389 585 l 1
 389 185 l 1
 311 107 l 1
 437 94 525 67 534 64 c 1
 536 66 l 1
 536 66 486 129 486 190 c 0
 486 212 505 235 520 250 c 2
 619 349 l 2
 628 358 635 364 635 364 c 1
 664 335 l 1
EndSplineSet
EndChar
StartChar: Q
Encoding: 81 81 49
Width: 800
Flags: W
HStem: -64 128<418 448.481 621.129 710.773> -39 128<557 669.435> 644 20G<311.364 355 463.5 508.5>
VStem: 61 128<206.161 371.162> 280 40<108 443> 361 128<135 515> 589 128<225.552 418.931>
AnchorPoint: "blwmark" 400 0 basechar 0
AnchorPoint: "abvmark" 450 700 basechar 0
LayerCount: 2
Back
SplineSet
550 0 m 25
 550 0 565 25 600 25 c 27
 635 25 655 0 690 0 c 27
 718 0 750 50 750 50 c 1049
300 550 m 1
 300 100 l 1025
427 550 m 1
 425 100 l 1025
300 600 m 1
 300 600 125 480 125 300 c 3
 125 134 220 0 400 0 c 3
 519 0 653 142 653 300 c 3
 653 512 561 600 450 600 c 3
 363 600 300 492 300 492 c 1029
EndSplineSet
Fore
SplineSet
515 -64 m 1xbe
 486 -35 l 1
 486 -35 488 -32 492 -28 c 2
 591 71 l 2
 592 72 l 0
 600 80 613 89 635 89 c 0x7e
 670 89 690 64 725 64 c 0
 729 64 734 65 738 67 c 2
 785 114 l 1
 814 85 l 1
 814 85 804 69 790 55 c 2
 691 -44 l 2
 680 -55 667 -64 655 -64 c 0xbe
 620 -64 600 -39 565 -39 c 0x7e
 549 -39 537 -44 529 -50 c 2
 515 -64 l 1xbe
377 529 m 2
 370 527 364 524 358 521 c 2
 320 484 l 1
 320 86 l 1
 333 81 347 75 361 72 c 1
 363 515 l 1
 377 529 l 2
418 64 m 1xbe
 423 64 429 64 435 64 c 0
 469 64 504 76 537 96 c 1
 569 145 589 204 589 265 c 0
 589 374 565 451 526 499 c 0
 515 508 503 514 491 520 c 1
 489 135 l 1
 418 64 l 1xbe
280 551 m 1
 265 536 l 1
 265 536 263 535 261 533 c 0
 223 482 189 415 189 335 c 0
 189 252 212 178 258 124 c 0
 265 118 273 113 280 108 c 1
 280 443 l 1
 265 428 l 1
 236 457 l 2
 236 457 252 484 279 512 c 2
 280 512 l 2
 280 551 l 1
280 616 m 2
 280 620 l 1
 283 620 l 1
 312 648 335 664 335 664 c 1
 364 635 l 1
 320 592 l 1
 320 553 l 1
 379 611 l 2
 406 638 442 664 485 664 c 0
 532 664 576 648 611 613 c 2
 640 584 l 2
 687 537 717 457 717 335 c 0
 717 248 677 167 621 110 c 2
 620 110 l 1
 521 11 l 2
 475 -35 419 -64 365 -64 c 0
 283 -64 220 -37 174 9 c 2
 173 9 l 2
 144 38 l 2
 89 93 61 174 61 265 c 0
 61 376 128 464 179 516 c 0
 180 517 l 2
 279 616 l 2
 280 616 l 2
EndSplineSet
EndChar
StartChar: X
Encoding: 88 88 56
Width: 600
Flags: W
HStem: 486 21G<20 60 470 510> 644 20G<140 180 490 530>
AnchorPoint: "abvmark" 300 700 basechar 0
LayerCount: 2
Back
SplineSet
100 275 m 25
 100 275 156 325 200 325 c 27
 279 325 321 300 400 300 c 27
 444 300 500 350 500 350 c 1049
550 50 m 25
 500 0 l 17
 125 600 l 9
 75 550 l 1049
50 50 m 25
 100 0 l 17
 475 600 l 9
 525 550 l 1049
EndSplineSet
Fore
SplineSet
-14 15 m 1
 85 114 l 1
 112 87 l 1
 219 257 l 1
 203 259 185 261 165 261 c 0
 121 261 65 211 65 211 c 1
 36 240 l 1
 135 339 l 1
 135 339 156 358 182 372 c 1
 83 529 l 1
 40 486 l 1
 11 515 l 1
 160 664 l 1
 189 635 l 1
 322 422 l 1
 411 565 l 1
 510 664 l 1
 589 585 l 1
 490 486 l 1
 463 513 l 1
 373 369 l 1
 392 366 412 364 435 364 c 0
 479 364 535 414 535 414 c 1
 564 385 l 1
 465 286 l 1
 465 286 448 271 425 257 c 1
 542 71 l 1
 585 114 l 1
 614 85 l 1
 465 -64 l 1
 436 -35 l 1
 278 218 l 1
 164 35 l 1
 65 -64 l 1
 -14 15 l 1
EndSplineSet
EndChar
StartChar: Y
Encoding: 89 89 57
Width: 700
Flags: W
HStem: -214 128<124.978 377.532> -64 21G<320 360> 486 21G<-5 35> 536 128<82.5 177>
VStem: 180 40<214 513> 261 128<285 515> 511 128<-65 107 165 530>
AnchorPoint: "abvmark" 450 700 basechar 0
LayerCount: 2
Back
SplineSet
50 550 m 1
 50 550 84 600 124 600 c 3
 160 600 178 575 200 575 c 3
 228 575 250 600 251 600 c 1025
200 550 m 1
 200 175 l 1025
325 250 m 1
 325 550 l 1
 375 600 l 1025
100 100 m 17
 100 100 138 150 175 150 c 3
 374 150 375 0 375 0 c 1
 575 200 l 1025
50 -200 m 17
 50 -200 66 -150 250 -150 c 3
 412 -150 475 -200 475 -200 c 9
 575 -100 l 1
 575 565 l 1029
540 600 m 29
 610 530 l 1053
EndSplineSet
Fore
SplineSet
476 565 m 1
 575 664 l 1
 610 629 l 1
 639 600 l 1
 674 565 l 1
 639 530 l 1
 639 235 l 1
 639 -65 l 1
 440 -264 l 1
 440 -264 377 -214 215 -214 c 0
 106 -214 56 -232 33 -246 c 1
 15 -264 l 1
 -14 -235 l 1
 -14 -235 -13 -231 -8 -226 c 2
 91 -127 l 2
 92 -127 l 0
 107 -112 151 -86 285 -86 c 0
 447 -86 510 -136 510 -136 c 1
 511 -135 l 1
 511 107 l 1
 340 -64 l 1
 311 -35 l 1
 311 -35 311 8 281 47 c 1
 252 69 207 86 140 86 c 0
 125 86 111 79 97 68 c 2
 65 36 l 1
 36 65 l 1
 36 65 42 73 51 82 c 2
 150 181 l 2
 151 182 l 0
 159 190 169 198 180 204 c 1
 180 513 l 1
 175 512 170 511 165 511 c 0
 143 511 125 536 89 536 c 0
 76 536 63 530 52 523 c 2
 15 486 l 1
 -14 515 l 1
 -14 515 -7 525 4 536 c 2
 103 635 l 2
 117 649 137 664 159 664 c 0
 195 664 213 639 235 639 c 0
 263 639 285 664 286 664 c 2
 315 635 l 1
 220 541 l 1
 220 214 l 1
 237 214 253 211 267 209 c 1
 261 215 l 1
 261 515 l 1
 410 664 l 1
 439 635 l 1
 389 585 l 1
 389 285 l 1
 304 200 l 1
 331 190 352 176 367 161 c 2
 396 132 l 2
 412 116 422 97 428 82 c 1
 511 165 l 1
 511 530 l 1
 476 565 l 1
EndSplineSet
EndChar
StartChar: Z
Encoding: 90 90 58
Width: 700
Flags: W
HStem: -14 128<134.63 405.651> 236 128<374.238 507> 261 128<193 325.437> 486 128<248.735 514.996> 644 20G<115 275 575 655>
AnchorPoint: "blwmark" 300 0 basechar 0
AnchorPoint: "abvmark" 350 700 basechar 0
LayerCount: 2
Back
SplineSet
150 275 m 29
 150 275 206 325 250 325 c 31
 329 325 371 300 450 300 c 31
 494 300 550 350 550 350 c 1053
625 100 m 1
 525 0 l 1
 525 0 448 50 200 50 c 3
 127 50 50 0 50 0 c 1
 600 600 l 1
 600 600 514 550 450 550 c 3
 240 550 100 600 100 600 c 1025
EndSplineSet
Fore
SplineSet
660 164 m 1xd8
 689 135 l 1
 490 -64 l 1
 490 -64 413 -14 165 -14 c 0
 92 -14 15 -64 15 -64 c 1
 -14 -35 l 1
 255 259 l 1
 243 260 230 261 215 261 c 0
 171 261 115 211 115 211 c 1
 86 240 l 1
 185 339 l 1
 185 339 241 389 285 389 c 0xb8
 317 389 343 385 367 380 c 1
 473 496 l 1
 452 490 433 486 415 486 c 0
 205 486 65 536 65 536 c 1
 36 565 l 1
 135 664 l 1
 135 664 275 614 485 614 c 0
 549 614 635 664 635 664 c 1
 664 635 l 1
 421 370 l 1
 440 367 461 364 485 364 c 0
 529 364 585 414 585 414 c 1
 614 385 l 1
 515 286 l 1
 515 286 459 236 415 236 c 0
 374 236 343 242 311 249 c 1
 179 106 l 1
 196 111 216 114 235 114 c 0
 483 114 560 64 560 64 c 1
 660 164 l 1xd8
EndSplineSet
EndChar
StartChar: backslash
Encoding: 92 92 60
Width: 500
Flags: W
HStem: -214 21G<395 435>
LayerCount: 2
Back
SplineSet
450 -150 m 29
 50 700 l 1049
EndSplineSet
Fore
SplineSet
415 -214 m 1
 386 -185 l 1
 -14 665 l 1
 85 764 l 1
 114 735 l 1
 514 -115 l 1
 415 -214 l 1
EndSplineSet
EndChar
StartChar: asciicircum
Encoding: 94 94 62
Width: 600
Flags: W
HStem: 644 20G<315 355>
LayerCount: 2
Back
SplineSet
100 300 m 25
 300 600 l 25
 500 300 l 1053
EndSplineSet
Fore
SplineSet
65 236 m 1
 36 265 l 1
 236 565 l 1
 335 664 l 1
 364 635 l 1
 564 335 l 1
 465 236 l 1
 436 265 l 1
 277 504 l 1
 164 335 l 1
 65 236 l 1
EndSplineSet
EndChar
StartChar: b
Encoding: 98 98 66
Width: 400
Flags: W
HStem: 444 20G<215 255> 444 20G<215 255>
VStem: 36 128<98.1606 337 393 555> 236 128<135 302.223>
AnchorPoint: "blwmark" 200 0 basechar 0
AnchorPoint: "abvmark" 200 700 basechar 0
LayerCount: 2
Back
SplineSet
65 625 m 29
 135 555 l 1053
100 590 m 13
 100 100 l 25
 200 0 l 25
 300 100 l 25
 300 300 l 25
 200 400 l 1
 100 300 l 1049
EndSplineSet
Fore
SplineSet
164 337 m 1x30
 164 135 l 2
 164 97 214 85 235 64 c 1
 236 65 l 1
 236 265 l 2
 236 303 185 316 164 337 c 1x30
164 393 m 1
 235 464 l 1xb0
 364 335 l 1
 364 135 l 1
 165 -64 l 1
 36 65 l 1
 36 555 l 1
 1 590 l 1
 100 689 l 1
 135 654 l 1
 164 625 l 1
 199 590 l 1
 164 555 l 1
 164 393 l 1
EndSplineSet
EndChar
StartChar: f
Encoding: 102 102 70
Width: 300
Flags: W
HStem: -214 128<-92.5 -3.5> 536 21G<253.5 279>
VStem: 61 128<-115 336 464 515>
AnchorPoint: "abvmark" 175 700 basechar 0
LayerCount: 2
Back
SplineSet
-125 -200 m 17
 -125 -200 -88 -150 -50 -150 c 8
 -19 -150 18 -200 50 -200 c 24
 78 -200 125 -150 125 -150 c 1
 125 550 l 1
 225 650 l 17
 225 650 256 600 300 600 c 24
 328 600 375 650 376 650 c 1033
50 400 m 25
 250 400 l 1049
EndSplineSet
Fore
SplineSet
-160 -264 m 1
 -189 -235 l 1
 -189 -235 -183 -227 -173 -217 c 2
 -74 -118 l 2
 -73 -117 l 0
 -58 -102 -37 -86 -15 -86 c 0
 8 -86 36 -116 61 -129 c 1
 61 336 l 1
 15 336 l 1
 -14 365 l 1
 61 440 l 1
 61 515 l 1
 260 714 l 1
 289 685 l 1
 289 685 290 683 293 679 c 0
 305 671 319 664 335 664 c 0
 363 664 410 714 411 714 c 2
 440 685 l 1
 341 586 l 2
 340 586 293 536 265 536 c 0
 242 536 222 550 209 563 c 0
 208 564 l 2
 189 583 l 1
 189 464 l 1
 285 464 l 1
 314 435 l 1
 215 336 l 1
 189 336 l 1
 189 -115 l 2
 189 -115 188 -116 185 -119 c 2
 86 -218 l 2
 74 -230 38 -264 15 -264 c 0
 -17 -264 -54 -214 -85 -214 c 0
 -100 -214 -114 -221 -127 -231 c 2
 -160 -264 l 1
EndSplineSet
EndChar
StartChar: i
Encoding: 105 105 73
Width: 200
Flags: W
HStem: 444 20G<80 120> 444 20G<80 120> 466 21G<35 75>
VStem: 36 128<70 330>
AnchorPoint: "blwmark" 100 0 basechar 0
LayerCount: 2
Back
SplineSet
90 670 m 25
 160 600 l 25
 90 530 l 1049
65 70 m 25
 135 0 l 25
 205 70 l 1049
135 330 m 25
 65 400 l 25
 -5 330 l 1049
100 365 m 9
 100 35 l 1025
EndSplineSet
Fore
SplineSet
135 429 m 1xb0
 164 400 l 1
 199 365 l 1
 164 330 l 1
 164 70 l 1
 170 64 l 1
 240 134 l 1
 269 105 l 1
 100 -64 l 1
 65 -29 l 1
 36 -0 l 1
 1 35 l 1
 36 70 l 1
 36 330 l 1
 30 336 l 1
 -40 266 l 1
 -69 295 l 1
 100 464 l 1
 135 429 l 1xb0
26 635 m 1
 125 734 l 1
 224 635 l 1
 55 466 l 1
 26 495 l 1
 96 565 l 1
 26 635 l 1
EndSplineSet
Substitution2: "Dotless forms-1" dotlessi
EndChar
StartChar: k
Encoding: 107 107 75
Width: 400
Flags: W
HStem: 479 20G<280 320> 679 20G<80 120>
VStem: 36 128<60 210 286 565> 236 128<60 158>
AnchorPoint: "blwmark" 200 0 basechar 0
AnchorPoint: "abvmark" 200 700 basechar 0
LayerCount: 2
Back
SplineSet
265 435 m 25
 335 365 l 1049
65 635 m 25
 135 565 l 1049
65 635 m 25
 135 565 l 1049
100 200 m 1
 300 350 l 9
 300 400 l 1049
200 275 m 1
 300 200 l 1
 300 25 l 1029
265 60 m 29
 335 -10 l 1053
65 60 m 25
 135 -10 l 1049
65 635 m 25
 135 565 l 1049
100 600 m 9
 100 25 l 1049
EndSplineSet
Fore
SplineSet
135 664 m 1
 164 635 l 1
 199 600 l 1
 164 565 l 1
 164 286 l 1
 236 340 l 1
 236 365 l 1
 201 400 l 1
 300 499 l 1
 335 464 l 1
 364 435 l 1
 399 400 l 1
 300 301 l 1
 290 311 l 1
 282 303 l 1
 335 264 l 1
 364 235 l 1
 364 60 l 1
 399 25 l 1
 300 -74 l 1
 265 -39 l 1
 236 -10 l 1
 201 25 l 1
 236 60 l 1
 236 158 l 1
 165 211 l 1
 164 210 l 1
 164 60 l 1
 199 25 l 1
 100 -74 l 1
 65 -39 l 1
 36 -10 l 1
 1 25 l 1
 36 60 l 1
 36 165 l 1
 36 565 l 1
 1 600 l 1
 100 699 l 1
 135 664 l 1
EndSplineSet
EndChar
StartChar: n
Encoding: 110 110 78
Width: 400
Flags: W
HStem: 444 20G<80 120 240 280> 444 20G<80 120 240 280>
VStem: 36 128<70 310> 236 128<70 319.643>
AnchorPoint: "blwmark" 200 0 basechar 0
AnchorPoint: "abvmark" 200 500 basechar 0
LayerCount: 2
Back
SplineSet
265 70 m 29
 335 0 l 1053
300 35 m 5
 300 325 l 25
 225 400 l 1
 100 275 l 1049
65 70 m 25
 135 0 l 1049
135 330 m 25
 65 400 l 1049
100 365 m 9
 100 35 l 1025
EndSplineSet
Fore
SplineSet
135 429 m 1xb0
 164 400 l 1
 180 384 l 1
 260 464 l 1
 364 360 l 1
 364 70 l 1
 399 35 l 1
 300 -64 l 1
 265 -29 l 1
 236 -0 l 1
 201 35 l 1
 236 70 l 1
 236 290 l 2
 236 314 203 323 190 336 c 1
 164 310 l 1
 164 70 l 1
 199 35 l 1
 100 -64 l 1
 65 -29 l 1
 36 -0 l 1
 1 35 l 1
 36 70 l 1
 36 240 l 1
 36 330 l 1
 1 365 l 1
 100 464 l 1
 135 429 l 1xb0
EndSplineSet
Substitution2: "Stylistic alternates-1" n.alt
EndChar
StartChar: p
Encoding: 112 112 80
Width: 400
Flags: W
HStem: -214 21G<45 85> 444 20G<80 120 215.294 255> 444 20G<80 120 215.294 255>
VStem: 36 128<-115 -63 105.765 330> 236 128<135 303.305>
AnchorPoint: "abvmark" 200 500 basechar 0
LayerCount: 2
Back
SplineSet
50 0 m 1
 50 0 96 50 125 50 c 0
 154 50 200 0 200 0 c 9
 300 100 l 1
 300 300 l 25
 200 400 l 1
 100 300 l 1049
65 400 m 29
 135 330 l 1053
100 365 m 5
 100 -150 l 1025
EndSplineSet
Fore
SplineSet
135 429 m 1xd8
 164 400 l 1
 168 396 l 1
 235 464 l 1
 364 335 l 1
 364 135 l 1
 165 -64 l 1
 164 -63 l 1
 164 -115 l 1
 65 -214 l 1
 36 -185 l 1
 36 -44 l 2
 33 -47 30 -50 27 -52 c 2
 15 -64 l 1
 -14 -35 l 1
 -14 -35 -12 -33 -8 -29 c 2
 36 15 l 1
 36 265 l 1
 36 330 l 1
 1 365 l 1
 100 464 l 1
 135 429 l 1xd8
164 330 m 1
 164 114 l 1
 186 111 216 83 229 70 c 2
 235 64 l 1
 236 65 l 1
 236 265 l 2
 236 302 190 315 168 334 c 1
 164 330 l 1
EndSplineSet
EndChar
StartChar: q
Encoding: 113 113 81
Width: 400
Flags: W
HStem: -214 21G<245 285> 444 20G<215 255 315 355> 444 20G<215 255 315 355>
VStem: 36 128<135 265> 236 128<-115 7 63 303>
AnchorPoint: "abvmark" 225 500 basechar 0
LayerCount: 2
Back
SplineSet
300 100 m 9
 200 0 l 25
 100 100 l 25
 100 300 l 25
 200 400 l 1
 200 400 222 360 250 360 c 24
 278 360 300 400 300 400 c 9
 300 -150 l 1049
EndSplineSet
Fore
SplineSet
236 7 m 1xd8
 165 -64 l 1
 36 65 l 1
 36 265 l 1
 235 464 l 1
 264 435 l 1
 264 435 266 432 268 429 c 0
 274 426 279 424 285 424 c 0
 289 424 295 426 298 427 c 2
 335 464 l 1
 364 435 l 1
 364 -115 l 1
 265 -214 l 1
 236 -185 l 1
 236 7 l 1xd8
236 63 m 1
 236 303 l 1
 230 299 222 296 215 296 c 0
 203 296 193 304 184 312 c 0
 183 312 l 2
 164 331 l 1
 164 135 l 1
 236 63 l 1
EndSplineSet
EndChar
StartChar: s
Encoding: 115 115 83
Width: 400
Flags: W
HStem: -14 128<80 182.06> 286 128<228 320> 444 20G<215 255 376 405> 444 20G<215 255 376 405>
AnchorPoint: "blwmark" 200 0 basechar 0
AnchorPoint: "abvmark" 200 500 basechar 0
LayerCount: 2
Back
SplineSet
350 400 m 17
 350 400 303 350 275 350 c 24
 231 350 200 400 200 400 c 9
 100 300 l 1
 100 240 l 1
 300 160 l 1
 300 100 l 1
 200 0 l 17
 200 0 154 50 125 50 c 24
 96 50 50 0 50 0 c 1025
EndSplineSet
Fore
SplineSet
385 464 m 1xe0
 414 435 l 1
 414 435 413 434 410 431 c 2
 311 332 l 2
 299 320 263 286 240 286 c 0
 216 286 196 301 183 314 c 2
 164 333 l 1
 164 292 l 1
 335 224 l 1
 364 195 l 1
 364 135 l 1
 165 -64 l 1
 153 -52 l 2
 137 -37 110 -14 90 -14 c 0
 70 -14 42 -38 27 -52 c 2
 15 -64 l 1
 -14 -35 l 1
 -14 -35 -12 -33 -8 -29 c 2
 91 70 l 2
 104 83 137 114 160 114 c 0
 183 114 216 83 229 70 c 2
 235 64 l 1
 236 65 l 1
 236 108 l 1
 65 176 l 1
 36 205 l 1
 36 265 l 1
 235 464 l 1
 264 435 l 1
 264 435 265 433 268 429 c 0
 279 421 294 414 310 414 c 0
 330 414 360 440 376 455 c 2
 385 464 l 1xe0
EndSplineSet
EndChar
StartChar: t
Encoding: 116 116 84
Width: 325
Flags: W
HStem: 594 20G<140 180> 594 20G<140 180>
VStem: 61 128<64.2805 336 464 515>
AnchorPoint: "blwmark" 175 0 basechar 0
AnchorPoint: "abvmark" 150 650 basechar 0
LayerCount: 2
Back
SplineSet
50 400 m 25
 250 400 l 1049
125 550 m 1
 125 50 l 1
 175 0 l 1
 275 100 l 1025
EndSplineSet
Fore
SplineSet
160 614 m 1xa0
 189 585 l 1
 189 464 l 1
 285 464 l 1
 314 435 l 1
 215 336 l 1
 189 336 l 1
 189 85 l 2
 189 75 204 70 210 64 c 1
 310 164 l 1
 339 135 l 1
 140 -64 l 1
 61 15 l 1
 61 336 l 1
 15 336 l 1
 -14 365 l 1
 61 440 l 1
 61 515 l 1
 160 614 l 1xa0
EndSplineSet
EndChar
StartChar: u
Encoding: 117 117 85
Width: 400
Flags: W
HStem: 444 20G<80 120 280 320> 444 20G<80 120 280 320>
VStem: 36 128<80.3567 330> 236 128<90 330>
AnchorPoint: "blwmark" 200 0 basechar 0
AnchorPoint: "abvmark" 200 500 basechar 0
LayerCount: 2
Back
SplineSet
135 330 m 25
 65 400 l 1049
375 50 m 25
 325 0 l 1
 300 25 l 17
 300 365 l 1025
335 330 m 25
 265 400 l 1049
100 365 m 25
 100 75 l 1
 175 0 l 25
 300 125 l 1049
EndSplineSet
Fore
SplineSet
135 429 m 1xb0
 164 400 l 1
 199 365 l 1
 164 330 l 1
 164 110 l 2
 164 86 197 77 210 64 c 1
 236 90 l 1
 236 330 l 1
 201 365 l 1
 300 464 l 1
 335 429 l 1
 364 400 l 1
 399 365 l 1
 364 330 l 1
 364 160 l 1
 364 68 l 1
 410 114 l 1
 439 85 l 1
 290 -64 l 1
 236 -10 l 1
 236 32 l 1
 140 -64 l 1
 36 40 l 1
 36 330 l 1
 1 365 l 1
 100 464 l 1
 135 429 l 1xb0
EndSplineSet
EndChar
StartChar: v
Encoding: 118 118 86
Width: 400
Flags: W
HStem: 444 20G<80 120> 464 130G<80 120 319 360> 594 20G<319 360>
VStem: 36 128<98.1606 330> 186 128<412.5 513.5> 236 128<135 370.729>
AnchorPoint: "blwmark" 200 0 basechar 0
LayerCount: 2
Back
SplineSet
135 330 m 25
 65 400 l 1049
100 365 m 25
 100 100 l 1
 200 0 l 25
 300 100 l 1
 300 375 l 25
 280 413 250 423 250 472 c 8
 250 509 305 550 305 550 c 1033
EndSplineSet
Fore
SplineSet
135 429 m 1xb4
 164 400 l 1
 199 365 l 1
 164 330 l 1
 164 135 l 2
 164 97 214 85 235 64 c 1
 236 65 l 1
 236 340 l 1xb4
 216 378 186 388 186 437 c 0
 186 458 204 481 219 496 c 2
 318 595 l 2
 319 596 l 2
 331 608 340 614 340 614 c 2
 369 585 l 1
 330 546 l 2
 322 535 314 520 314 507 c 0xb8
 314 458 344 448 364 410 c 1
 364 135 l 1
 165 -64 l 1
 36 65 l 1
 36 330 l 1
 1 365 l 1
 100 464 l 1
 135 429 l 1xb4
EndSplineSet
Substitution2: "Dotless forms-1" v.alt
EndChar
StartChar: w
Encoding: 119 119 87
Width: 600
Flags: W
HStem: 444 20G<80 120 280 320> 444 20G<80 120 280 320 519 560> 594 20G<519 560>
VStem: 36 128<98.1606 330> 236 128<98.1606 330> 386 128<412.5 513.5> 436 128<135 370.729>
AnchorPoint: "blwmark" 300 0 basechar 0
LayerCount: 2
Back
SplineSet
335 330 m 25
 265 400 l 1049
300 365 m 25
 300 100 l 1
 400 0 l 25
 500 100 l 1
 500 375 l 25
 480 413 450 423 450 472 c 8
 450 509 505 550 505 550 c 1033
135 330 m 25
 65 400 l 1049
100 365 m 25
 100 100 l 1
 200 0 l 25
 300 100 l 1025
EndSplineSet
Fore
SplineSet
135 429 m 1xba
 164 400 l 1
 199 365 l 1
 164 330 l 1
 164 135 l 2
 164 97 214 85 235 64 c 1
 236 65 l 1
 236 330 l 1
 201 365 l 1
 300 464 l 1
 335 429 l 1
 364 400 l 1
 399 365 l 1
 364 330 l 1
 364 135 l 2
 364 97 414 85 435 64 c 1
 436 65 l 1
 436 340 l 1xba
 416 378 386 388 386 437 c 0
 386 458 404 481 419 496 c 2
 518 595 l 2
 519 596 l 2
 531 608 540 614 540 614 c 2
 569 585 l 1
 530 546 l 2
 522 535 514 520 514 507 c 0xbc
 514 458 544 448 564 410 c 1
 564 135 l 1
 365 -64 l 1
 265 36 l 1
 165 -64 l 1
 36 65 l 1
 36 330 l 1
 1 365 l 1
 100 464 l 1
 135 429 l 1xba
EndSplineSet
Substitution2: "Dotless forms-1" w.alt
EndChar
StartChar: braceright
Encoding: 125 125 93
Width: 300
Flags: W
HStem: -214 21G<-5 35>
VStem: 86 128<-15 165 399 601>
LayerCount: 2
Back
SplineSet
50 700 m 25
 150 650 l 1
 150 350 l 29
 250 300 l 29
 150 200 l 29
 150 -50 l 1
 50 -150 l 1049
EndSplineSet
Fore
SplineSet
-14 665 m 1
 85 764 l 1
 185 714 l 1
 214 685 l 1
 214 399 l 1
 285 364 l 1
 314 335 l 1
 214 235 l 1
 214 -15 l 1
 15 -214 l 1
 -14 -185 l 1
 86 -85 l 1
 86 165 l 1
 176 255 l 1
 115 286 l 1
 86 315 l 1
 86 601 l 1
 15 636 l 1
 -14 665 l 1
EndSplineSet
EndChar
StartChar: asciitilde
Encoding: 126 126 94
Width: 700
Flags: W
HStem: 236 128<305.973 557> 261 128<143 394.027>
LayerCount: 2
Back
SplineSet
100 275 m 17
 100 275 156 325 200 325 c 27
 317 325 383 300 500 300 c 27
 544 300 600 350 600 350 c 1033
EndSplineSet
Fore
SplineSet
36 240 m 1x40
 135 339 l 1
 135 339 191 389 235 389 c 0x40
 352 389 418 364 535 364 c 0
 579 364 635 414 635 414 c 1
 664 385 l 1
 565 286 l 1
 565 286 509 236 465 236 c 0x80
 348 236 282 261 165 261 c 0
 121 261 65 211 65 211 c 1
 36 240 l 1x40
EndSplineSet
EndChar
StartChar: exclamdown
Encoding: 161 161 200
Width: 300
Flags: W
HStem: 444 20G<130 170> 444 20G<130 170>
VStem: 76 148<-114.978 154.871> 86 128<-68.8574 155>
LayerCount: 2
Back
SplineSet
185 330 m 25
 115 400 l 1049
175 -150 m 1
 175 -150 161 -120 160 -100 c 24
 152 13 150 190 150 190 c 1
 150 190 147 13 140 -100 c 24
 137 -139 125 -200 125 -200 c 9
 175 -150 l 1
EndSplineSet
Fore
SplineSet
239 -115 m 1x20
 90 -264 l 1
 61 -235 l 1
 61 -235 73 -174 76 -135 c 0x20
 83 -22 86 155 86 155 c 1
 185 254 l 1
 214 225 l 1x10
 214 225 216 48 224 -65 c 0
 225 -85 239 -115 239 -115 c 1x20
249 365 m 1
 150 266 l 1
 51 365 l 1
 150 464 l 1x80
 249 365 l 1
EndSplineSet
EndChar
StartChar: cent
Encoding: 162 162 202
Width: 450
Flags: W
HStem: -214 21G<195 235> 644 20G<265 305>
VStem: 36 128<145 215> 186 128<-115 -45 130 270 445 565>
LayerCount: 2
Back
SplineSet
250 600 m 25
 250 -150 l 1049
400 300 m 9
 250 400 l 25
 100 250 l 25
 100 100 l 25
 250 0 l 25
 400 100 l 1045
EndSplineSet
Fore
SplineSet
464 335 m 1
 365 236 l 1
 314 270 l 1
 314 83 l 1
 435 164 l 1
 464 135 l 1
 365 36 l 1
 314 2 l 1
 314 -115 l 1
 215 -214 l 1
 186 -185 l 1
 186 -45 l 1
 65 36 l 1
 36 65 l 1
 36 215 l 1
 186 365 l 1
 186 565 l 1
 285 664 l 1
 314 635 l 1
 314 445 l 1
 435 364 l 1
 464 335 l 1
186 307 m 1
 175 296 166 287 164 285 c 2
 164 145 l 1
 186 130 l 1
 186 307 l 1
EndSplineSet
EndChar
StartChar: currency
Encoding: 164 164 207
Width: 500
Flags: W
HStem: 544 20G<240 295.102> 644 20G<65 105 465 505>
VStem: 36 128<247 340> 336 128<260 353>
LayerCount: 2
Back
SplineSet
450 0 m 29
 350 125 l 1053
50 0 m 29
 150 125 l 1053
450 600 m 29
 350 475 l 1053
50 600 m 29
 150 475 l 1053
225 500 m 29
 100 375 l 29
 100 200 l 29
 275 100 l 29
 400 225 l 29
 400 400 l 29
 225 500 l 29
EndSplineSet
Fore
SplineSet
190 436 m 1
 164 410 l 1
 164 247 l 1
 310 164 l 2
 310 164 333 187 336 190 c 2
 336 353 l 1
 190 436 l 1
85 664 m 1
 114 635 l 1
 210 514 l 1
 260 564 l 1
 346 515 l 1
 386 565 l 1
 485 664 l 1
 514 635 l 1
 414 510 l 1
 392 488 l 1
 435 464 l 1
 464 435 l 1
 464 260 l 1
 389 185 l 1
 414 160 l 1
 514 35 l 1
 415 -64 l 1
 386 -35 l 1
 290 86 l 1
 240 36 l 1
 154 85 l 1
 114 35 l 1
 15 -64 l 1
 -14 -35 l 1
 86 90 l 1
 108 112 l 1
 65 136 l 1
 36 165 l 1
 36 340 l 1
 111 415 l 1
 86 440 l 1
 -14 565 l 1
 85 664 l 1
EndSplineSet
EndChar
StartChar: yen
Encoding: 165 165 204
Width: 650
Flags: W
HStem: -214 128<124.978 359.305> -39 128<213.547 287 292 407.542> 486 21G<-5 35> 536 128<82.5 177>
VStem: 136 128<310 531.654> 411 128<-65 -57.864 76 207 265 540>
LayerCount: 2
Back
SplineSet
50 550 m 1
 50 550 84 600 124 600 c 3
 160 600 178 575 200 575 c 1
 200 275 l 1025
100 200 m 17
 100 200 138 250 175 250 c 3
 310 250 325 150 325 150 c 1
 475 300 l 1025
50 -200 m 17
 50 -200 66 -150 250 -150 c 3
 412 -150 375 -200 375 -200 c 9
 475 -100 l 1
 475 575 l 1025
450 600 m 25
 500 550 l 1049
150 -25 m 17
 150 -25 190 25 225 25 c 27
 342 25 408 0 525 0 c 27
 560 0 600 50 600 50 c 1033
EndSplineSet
Fore
SplineSet
115 -89 m 1
 86 -60 l 1
 86 -60 91 -53 100 -45 c 2
 199 54 l 2
 214 69 238 89 260 89 c 0
 269 89 278 89 287 89 c 1
 261 115 l 2
 261 115 258 135 242 158 c 1
 220 174 187 186 140 186 c 0
 125 186 111 179 97 168 c 2
 65 136 l 1
 36 165 l 1
 36 165 42 173 51 182 c 2
 136 267 l 1
 136 521 l 1
 124 528 109 536 89 536 c 0
 76 536 63 530 52 523 c 2
 15 486 l 1
 -14 515 l 1
 -14 515 -7 525 4 536 c 2
 103 635 l 2
 117 649 137 664 159 664 c 0
 195 664 213 639 235 639 c 1
 264 610 l 1
 264 310 l 1
 262 308 l 1
 292 301 313 288 328 273 c 2
 357 244 l 2
 357 243 l 0
 363 237 368 231 372 226 c 1
 411 265 l 1
 411 540 l 1
 386 565 l 1
 485 664 l 1
 510 639 l 1
 539 610 l 1
 564 585 l 1
 539 560 l 1
 539 335 l 1
 539 64 l 1
 546 64 553 64 560 64 c 0
 576 64 594 75 607 86 c 2
 635 114 l 1
 664 85 l 2
 664 85 659 80 651 71 c 2
 650 70 l 2
 551 -29 l 2
 547 -33 543 -36 539 -40 c 1
 539 -65 l 1
 340 -264 l 1
 311 -235 l 1
 311 -235 314 -231 315 -225 c 1
 296 -219 265 -214 215 -214 c 0
 106 -214 56 -232 33 -246 c 1
 15 -264 l 1
 -14 -235 l 1
 -14 -235 -13 -231 -8 -226 c 2
 91 -127 l 2
 92 -127 l 0
 107 -112 151 -86 285 -86 c 0
 363 -86 395 -98 407 -110 c 2
 411 -114 l 1
 411 -60 l 1
 337 -53 278 -39 190 -39 c 0
 174 -39 157 -49 143 -61 c 2
 115 -89 l 1
411 76 m 1
 411 207 l 1
 292 88 l 1
 336 86 374 81 411 76 c 1
EndSplineSet
EndChar
StartChar: section
Encoding: 167 167 206
Width: 500
Flags: W
HStem: -214 128<104 209.5> 586 128<296.14 407>
VStem: 36 128<204 265 504 565> 336 128<-65 -4 235 296>
LayerCount: 2
Back
SplineSet
200 400 m 25
 100 300 l 25
 100 150 l 25
 400 50 l 25
 400 -100 l 25
 300 -200 l 25
 300 -200 220 -150 163 -150 c 27
 115 -150 50 -200 50 -200 c 1049
450 700 m 25
 450 700 394 650 350 650 c 27
 288 650 200 700 200 700 c 25
 100 600 l 25
 100 450 l 25
 400 350 l 25
 400 200 l 25
 300 100 l 1049
EndSplineSet
Fore
SplineSet
514 735 m 1
 415 636 l 1
 415 636 359 586 315 586 c 0
 253 586 165 636 165 636 c 1
 164 635 l 1
 164 504 l 1
 435 414 l 1
 464 385 l 1
 464 235 l 1
 366 137 l 1
 435 114 l 1
 464 85 l 1
 464 -65 l 1
 265 -264 l 1
 265 -264 185 -214 128 -214 c 0
 80 -214 15 -264 15 -264 c 1
 -14 -235 l 1
 85 -136 l 1
 85 -136 150 -86 198 -86 c 0
 255 -86 335 -136 335 -136 c 1
 336 -135 l 1
 336 -4 l 1
 65 86 l 1
 36 115 l 1
 36 265 l 1
 134 363 l 1
 65 386 l 1
 36 415 l 1
 36 565 l 1
 235 764 l 1
 235 764 323 714 385 714 c 0
 429 714 485 764 485 764 c 1
 514 735 l 1
323 151 m 1
 336 165 l 1
 336 296 l 1
 177 349 l 1
 164 335 l 1
 164 204 l 1
 323 151 l 1
EndSplineSet
EndChar
StartChar: copyright
Encoding: 169 169 221
Width: 700
Flags: W
HStem: -39 78<258.945 466.952> 96 78<378 405.521> 426 32<346 363.702> 484 20G<310.19 349 407.5 425 493 528> 561 78<233.048 441.055>
VStem: 11 78<208.777 418.509> 175 78<233.5 356.249> 300 20<202 381 432 440> 340 78<214 386> 611 78<181.491 391.223>
LayerCount: 2
Back
SplineSet
310 438 m 1
 310 190 l 1025
379 410 m 5
 379 190 l 1029
310 465 m 5
 310 465 214 399 214 300 c 7
 214 208 267 135 366 135 c 7
 431 135 503 218 504 218 c 1029
310 406 m 5
 310 406 362 465 395 465 c 7
 430 465 416 438 448 438 c 7
 474 438 488 465 489 465 c 1029
50 350 m 4
 50 475 175 600 300 600 c 4
 550 600 650 500 650 250 c 4
 650 125 525 0 400 0 c 4
 150 0 50 100 50 350 c 4
50 350 m 0
 50 475 175 600 300 600 c 0
 550 600 650 500 650 250 c 0
 650 125 525 0 400 0 c 4
 150 0 50 100 50 350 c 0
EndSplineSet
Fore
SplineSet
286 367 m 1
 271 382 l 1
 271 382 276 387 283 394 c 2
 300 411 l 1
 300 440 l 1
 292 432 l 1
 271 404 253 367 253 324 c 0
 253 278 267 238 292 208 c 0
 294 206 297 204 300 202 c 2
 300 381 l 1
 286 367 l 1
92 57 m 2
 36 113 11 201 11 326 c 0
 11 389 42 451 89 498 c 2
 153 561 l 2
 200 608 262 639 324 639 c 0
 449 639 537 614 593 558 c 2
 608 543 l 2
 664 487 689 399 689 274 c 0
 689 211 658 149 611 102 c 2
 547 39 l 2
 500 -8 438 -39 376 -39 c 0
 251 -39 163 -14 107 42 c 2
 92 57 l 2
138 512 m 1
 108 471 89 422 89 374 c 0
 89 254 112 169 163 113 c 1
 219 62 305 39 424 39 c 0
 472 39 521 58 562 88 c 1
 592 129 611 178 611 226 c 0
 611 346 588 431 537 487 c 1
 481 538 395 561 276 561 c 0
 228 561 179 542 138 512 c 1
379 425 m 2
 376 425 374 426 371 426 c 0
 356 426 337 414 320 400 c 1
 320 189 l 1
 326 186 333 184 340 182 c 1
 340 386 l 1
 379 425 l 2
378 175 m 2
 382 175 386 174 390 174 c 0
 435 174 484 215 510 239 c 2
 528 257 l 1
 543 242 l 1
 540 239 l 2
 538 237 536 235 533 232 c 2
 469 168 l 2
 447 146 393 96 342 96 c 0
 297 96 261 111 236 136 c 2
 235 136 l 2
 220 151 l 2
 190 181 175 226 175 276 c 0
 175 338 212 386 240 414 c 2
 300 474 l 1
 300 483 l 1
 309 483 l 1
 323 497 334 504 334 504 c 1
 349 489 l 1
 320 461 l 1
 320 432 l 1
 346 458 l 2
 347 458 l 0
 365 476 396 504 419 504 c 0
 431 504 438 501 442 497 c 2
 457 482 l 2
 459 480 l 0
 463 478 466 477 472 477 c 0
 480 477 487 480 492 483 c 2
 513 504 l 2
 528 489 l 2
 526 487 524 483 518 477 c 2
 518 476 l 2
 454 413 l 2
 447 406 437 399 424 399 c 0
 422 399 420 399 418 399 c 2
 418 214 l 1
 378 175 l 2
EndSplineSet
EndChar
StartChar: logicalnot
Encoding: 172 172 225
Width: 600
Flags: W
HStem: 336 128<135 436>
VStem: 436 128<235 336>
LayerCount: 2
Back
SplineSet
100 400 m 25
 500 400 l 25
 500 200 l 1053
EndSplineSet
Fore
SplineSet
36 365 m 1
 135 464 l 1
 535 464 l 1
 564 435 l 1
 564 235 l 1
 465 136 l 1
 436 165 l 1
 436 336 l 1
 65 336 l 1
 36 365 l 1
EndSplineSet
EndChar
StartChar: registered
Encoding: 174 174 222
Width: 700
Flags: W
HStem: -39 78<258.485 466.952> 412 92<227.377 265.812> 426 62<226 251.439> 561 78<233.048 441.055>
VStem: 11 78<206.464 418.509> 266 20<199.519 415> 306 78<197 279 300 405> 429 78<187 290> 611 78<181.491 391.223>
LayerCount: 2
Back
SplineSet
193 438 m 5
 193 438 212 465 234 465 c 7
 254 465 264 451 276 451 c 7
 291 451 303 465 304 465 c 1029
276 438 m 1
 276 176 l 1025
413 314 m 5
 496 396 l 5
 372 465 l 5
 345 438 l 5
 345 162 l 5
 317 135 l 5
 317 135 302 162 248 162 c 7
 210 162 193 135 193 135 c 1037
441 341 m 5
 468 314 l 5
 468 162 l 5
 496 135 l 13
 523 162 l 1053
50 350 m 4
 50 475 175 600 300 600 c 4
 550 600 650 500 650 250 c 4
 650 125 525 0 400 0 c 4
 150 0 50 100 50 350 c 4
EndSplineSet
Fore
SplineSet
11 326 m 0x9f80
 11 389 42 451 89 498 c 2
 153 561 l 2
 200 608 262 639 324 639 c 0
 449 639 537 614 593 558 c 2
 608 543 l 2
 664 487 689 399 689 274 c 0
 689 211 658 149 611 102 c 2
 547 39 l 2
 500 -8 438 -39 376 -39 c 0
 251 -39 163 -14 107 42 c 2
 92 57 l 2
 36 113 11 201 11 326 c 0x9f80
384 279 m 1
 384 186 l 1
 321 123 l 1
 293 96 l 1
 281 108 l 2
 271 115 253 123 224 123 c 0
 206 123 192 116 183 110 c 2
 176 103 l 1
 232 59 313 39 424 39 c 0
 472 39 521 58 562 88 c 1
 592 129 611 178 611 226 c 0
 611 346 588 431 537 487 c 1
 481 538 395 561 276 561 c 0
 228 561 179 542 138 512 c 1
 108 471 89 422 89 374 c 0
 89 257 110 174 159 118 c 1
 160 118 l 2
 224 182 l 2
 231 189 245 199 266 201 c 1
 266 415 l 1
 262 413 257 412 252 412 c 0xdf80
 240 412 230 426 210 426 c 0
 202 426 194 422 187 417 c 2
 169 399 l 1
 154 414 l 1
 154 414 157 418 163 424 c 2
 226 488 l 2
 227 488 l 0xbf80
 235 496 246 504 258 504 c 0
 278 504 288 490 300 490 c 0
 315 490 327 504 328 504 c 2
 343 489 l 1
 286 433 l 1
 286 201 l 1
 293 200 300 199 306 197 c 1
 306 414 l 1
 396 504 l 1xdf80
 520 435 l 1
 535 420 l 1
 480 365 l 1
 507 338 l 1
 507 187 l 1
 520 174 l 2
 520 174 543 197 547 201 c 1
 562 186 l 1
 472 96 l 1
 444 123 l 1
 429 138 l 1
 429 290 l 1
 416 302 l 1
 389 275 l 1
 384 279 l 1
384 300 m 1
 437 353 l 1
 452 368 l 1
 384 405 l 1
 384 300 l 1
EndSplineSet
EndChar
StartChar: macron
Encoding: 175 175 227
Width: 400
Flags: W
HStem: 486 128<110 290>
LayerCount: 2
Back
SplineSet
75 550 m 1
 325 550 l 1053
EndSplineSet
Fore
SplineSet
11 515 m 1
 110 614 l 1
 360 614 l 1
 389 585 l 1
 290 486 l 1
 40 486 l 1
 11 515 l 1
EndSplineSet
EndChar
StartChar: degree
Encoding: 176 176 229
Width: 500
Flags: W
HStem: 361 128<221.747 314> 661 128<186 278.253>
VStem: 36 128<546.747 639> 336 128<511 603.253>
LayerCount: 2
Back
SplineSet
100 600 m 0
 100 660 165 725 225 725 c 0
 325 725 400 650 400 550 c 4
 400 490 335 425 275 425 c 0
 175 425 100 500 100 600 c 0
EndSplineSet
Fore
SplineSet
36 565 m 0
 36 595 52 626 76 650 c 2
 175 749 l 2
 199 773 230 789 260 789 c 0
 310 789 354 770 385 739 c 2
 414 710 l 2
 445 679 464 635 464 585 c 0
 464 555 448 524 424 500 c 2
 325 401 l 2
 301 377 270 361 240 361 c 0
 190 361 146 380 115 411 c 2
 86 440 l 2
 55 471 36 515 36 565 c 0
164 635 m 0
 164 593 177 554 200 525 c 1
 229 502 268 489 310 489 c 0
 318 489 325 490 333 492 c 1
 335 499 336 507 336 515 c 0
 336 557 323 596 300 625 c 1
 271 648 232 661 190 661 c 0
 182 661 175 660 167 658 c 1
 165 651 164 643 164 635 c 0
EndSplineSet
EndChar
StartChar: acute
Encoding: 180 180 99
Width: 400
Flags: W
HStem: 461 303
VStem: 86 253
LayerCount: 2
Back
SplineSet
275 700 m 21
 275 600 150 525 150 525 c 1053
EndSplineSet
Fore
SplineSet
310 764 m 1
 339 735 l 1
 339 685 307 641 276 610 c 2
 177 511 l 2
 146 480 115 461 115 461 c 1
 86 490 l 1
 185 589 l 2
 185 589 186 590 189 592 c 0
 201 613 211 638 211 665 c 1
 310 764 l 1
EndSplineSet
EndChar
StartChar: paragraph
Encoding: 182 182 226
Width: 600
Flags: W
HStem: 36 128<175.5 265.5> 536 128<226.568 327>
VStem: 36 128<216.818 449.975> 330 40<-86 138 208 513> 411 128<-40 515>
LayerCount: 2
Back
SplineSet
300 150 m 21
 300 150 290.06919394 100 225 100 c 7
 140 100 100 177.895380655 100 350 c 7
 100 469 141.905336974 600 274 600 c 7
 310 600 328 575 350 575 c 7
 378 575 400 600 401 600 c 1029
350 550 m 1
 350 -125 l 1025
525 600 m 5
 475 550 l 5
 475 -75 l 1029
550 -200 m 5
 550 -200 423 -150 325 -150 c 7
 256 -150 225 -200 225 -200 c 1029
EndSplineSet
Fore
SplineSet
614 -165 m 1
 515 -264 l 1
 515 -264 388 -214 290 -214 c 0
 258 -214 233 -226 217 -237 c 2
 190 -264 l 1
 161 -235 l 2
 161 -235 165 -229 173 -221 c 2
 173 -220 l 2
 272 -121 l 2
 283 -110 303 -97 330 -90 c 1
 330 138 l 1
 248 57 l 2
 237 46 219 36 190 36 c 0
 161 36 138 45 119 64 c 2
 90 93 l 2
 89 93 l 2
 53 130 36 202 36 315 c 0
 36 392 54 475 102 523 c 2
 201 622 l 2
 227 648 262 664 309 664 c 0
 345 664 363 639 385 639 c 0
 413 639 435 664 436 664 c 2
 465 635 l 1
 370 541 l 1
 370 -86 l 1
 383 -86 397 -88 411 -90 c 1
 411 515 l 1
 560 664 l 1
 589 635 l 1
 539 585 l 1
 539 -40 l 1
 477 -102 l 1
 537 -117 585 -136 585 -136 c 1
 614 -165 l 1
330 208 m 1
 330 513 l 1
 325 512 320 511 315 511 c 0
 293 511 275 536 239 536 c 0
 221 536 204 534 189 529 c 1
 171 486 164 434 164 385 c 0
 164 287 177 219 204 179 c 1
 220 169 239 164 260 164 c 0
 271 164 280 165 289 168 c 1
 330 208 l 1
EndSplineSet
EndChar
StartChar: periodcentered
Encoding: 183 183 212
Width: 300
Flags: W
HStem: 226 198
VStem: 51 198
LayerCount: 2
Back
SplineSet
115 360 m 29
 185 290 l 1053
EndSplineSet
Fore
SplineSet
51 325 m 1
 150 424 l 1
 249 325 l 1
 150 226 l 1
 51 325 l 1
EndSplineSet
EndChar
StartChar: ordmasculine
Encoding: 186 186 211
Width: 400
Flags: W
HStem: 136 128<85 137 193 315>
VStem: 36 128<398.161 565> 236 128<435 601.839>
LayerCount: 2
Back
SplineSet
200 700 m 25
 100 600 l 25
 100 400 l 25
 200 300 l 25
 300 400 l 25
 300 600 l 25
 200 700 l 25
50 200 m 25
 350 200 l 1053
EndSplineSet
Fore
SplineSet
-14 165 m 1
 85 264 l 1
 137 264 l 1
 36 365 l 1
 36 565 l 1
 235 764 l 1
 364 635 l 1
 364 435 l 1
 193 264 l 1
 385 264 l 1
 414 235 l 1
 315 136 l 1
 15 136 l 1
 -14 165 l 1
165 636 m 1
 164 635 l 1
 164 435 l 2
 164 397 214 385 235 364 c 1
 236 365 l 1
 236 565 l 2
 236 603 186 615 165 636 c 1
EndSplineSet
EndChar
StartChar: questiondown
Encoding: 191 191 201
Width: 400
Flags: W
HStem: 444 20G<180 220> 444 20G<180 220>
VStem: 36 128<-98 -35> 136 128<85 155>
LayerCount: 2
Back
SplineSet
300 -50 m 25
 300 -125 l 25
 225 -200 l 25
 100 -150 l 25
 100 0 l 25
 200 50 l 25
 200 190 l 1049
235 330 m 25
 165 400 l 1049
EndSplineSet
Fore
SplineSet
299 365 m 1x80
 200 266 l 1
 101 365 l 1
 200 464 l 1
 299 365 l 1x80
335 14 m 1
 364 -15 l 1
 364 -90 l 1
 190 -264 l 1
 65 -214 l 1
 36 -185 l 1
 36 -35 l 1x20
 135 64 l 1
 136 64 l 1
 136 155 l 1
 235 254 l 1
 264 225 l 1
 264 85 l 1x10
 165 -14 l 2
 164 -14 165 -14 164 -14 c 2
 164 -98 l 1x20
 236 -126 l 1
 236 -85 l 1
 335 14 l 1
EndSplineSet
EndChar
StartChar: AE
Encoding: 198 198 188
Width: 1150
Flags: W
HStem: -64 21G<-5 35 220 260 724 812> 236 178<890.415 963.849> 486 128<909 992> 511 21G<170 208> 644 20G<299 319.5 480 520 711.364 755 869 901 1041 1081>
VStem: 286 128<407.689 520> 680 40<108 443 543 551> 761 128<135 252 391 465>
AnchorPoint: "blwmark" 600 0 basechar 0
AnchorPoint: "abvmark" 600 700 basechar 0
LayerCount: 2
Back
SplineSet
535 530 m 13
 465 600 l 29
 395 530 l 1045
200 300 m 1
 200 300 230 350 300 350 c 3
 427 350 500 250 501 250 c 1025
225 575 m 1
 225 575 235 600 275 600 c 11
 324 600 350 549 350 500 c 3
 350 263 176 75 176 75 c 1025
50 0 m 1
 50 0 81 50 150 50 c 3
 248 50 275 0 275 0 c 1025
500 565 m 5
 525 300 l 1025
825 300 m 25
 825 300 872 350 900 350 c 27
 935 350 915 300 950 300 c 3
 991 300 1025 350 1026 350 c 1049
700 550 m 1
 700 100 l 1025
825 500 m 1
 825 100 l 1025
700 600 m 1
 700 600 525 480 525 300 c 3
 525 134 620 0 800 0 c 3
 919 0 1051 150 1052 150 c 1025
700 492 m 1
 700 492 795 600 855 600 c 3
 919 600 892 550 950 550 c 3
 998 550 1025 600 1026 600 c 1025
EndSplineSet
Fore
SplineSet
665 428 m 1xcf
 636 457 l 1
 636 457 644 466 658 480 c 2
 680 502 l 1
 680 551 l 1
 665 536 l 1
 665 536 663 535 661 533 c 0
 623 482 589 415 589 335 c 0
 589 252 612 178 658 124 c 0
 665 118 673 113 680 108 c 1
 680 443 l 1
 665 428 l 1xcf
535 629 m 1
 564 600 l 1
 599 565 l 1
 570 536 l 1
 573 509 l 2
 575 511 577 514 579 516 c 0
 580 517 l 2
 679 616 l 2
 680 616 l 2
 680 620 l 1
 683 620 l 1
 712 648 735 664 735 664 c 1
 764 635 l 1
 720 592 l 1
 720 543 l 1
 757 579 l 2
 758 580 l 0
 790 612 848 664 890 664 c 0
 912 664 923 659 931 651 c 2
 960 622 l 2
 960 621 l 2
 961 620 963 618 964 617 c 0
 970 615 976 614 985 614 c 0
 999 614 1011 619 1021 624 c 2
 1061 664 l 2
 1090 635 l 2
 1088 633 1082 622 1071 611 c 2
 972 512 l 2
 959 499 940 486 915 486 c 0xef
 903 486 895 488 889 491 c 1
 889 391 l 1
 904 403 922 414 935 414 c 0
 942 414 947 411 951 408 c 2
 980 379 l 2
 984 375 987 369 988 364 c 1
 1003 365 1016 372 1027 380 c 2
 1061 414 l 2
 1090 385 l 2
 1087 382 1082 375 1073 366 c 2
 974 267 l 2
 960 253 939 236 915 236 c 0
 908 236 903 239 899 242 c 2
 889 252 l 1
 889 135 l 1
 818 64 l 1
 823 64 829 64 835 64 c 0
 918 64 1007 137 1054 181 c 2
 1087 214 l 1
 1116 185 l 1
 1114 183 l 2
 1112 180 1107 176 1099 168 c 2
 1099 167 l 1
 1000 68 l 2
 960 28 859 -64 765 -64 c 0
 683 -64 620 -37 574 9 c 2
 573 9 l 2
 544 38 l 2
 505 77 480 129 468 188 c 1
 466 186 l 2
 437 215 l 2
 437 215 435 217 432 220 c 0
 412 237 384 258 347 271 c 1
 298 172 240 110 240 110 c 2
 238 108 l 1
 271 100 290 86 300 76 c 2
 329 47 l 2
 336 40 339 35 339 35 c 1
 240 -64 l 1
 217 -41 l 1
 198 -28 166 -14 115 -14 c 0
 83 -14 59 -25 42 -37 c 2
 15 -64 l 1
 -14 -35 l 1
 -14 -35 -10 -28 -2 -20 c 2
 97 79 l 2
 110 92 133 109 168 113 c 1
 197 156 231 216 255 286 c 1
 228 284 208 274 193 264 c 2
 165 236 l 1
 136 265 l 1
 136 265 140 272 149 280 c 2
 248 379 l 2
 256 387 267 396 282 403 c 1
 285 423 286 444 286 465 c 0
 286 487 281 511 270 529 c 1
 261 534 251 536 240 536 c 0
 226 536 216 533 208 529 c 2
 190 511 l 1xdf
 161 540 l 1
 161 540 163 545 168 550 c 2
 267 649 l 2
 274 656 288 664 310 664 c 0
 329 664 344 657 356 645 c 2
 385 616 l 2
 396 605 404 590 409 573 c 1
 500 664 l 1
 535 629 l 1
831 535 m 2
 828 535 824 536 820 536 c 0
 790 536 752 509 720 482 c 1
 720 86 l 1
 733 81 747 75 761 72 c 1
 761 265 l 1
 761 465 l 1
 831 535 l 2
397 406 m 1
 416 401 434 393 450 385 c 1
 436 530 l 1
 430 536 l 1
 414 520 l 1
 413 480 406 442 397 406 c 1
EndSplineSet
EndChar
StartChar: germandbls
Encoding: 223 223 131
Width: 500
Flags: W
HStem: -214 128<-92.5 -3.5> 286 128<226.5 310.5> 444 20G<365 405> 444 20G<365 405> 536 21G<253.5 279>
VStem: 61 128<19.7149 162 168 296 448.516 515> 336 128<-103 55>
AnchorPoint: "abvmark" 300 750 basechar 0
LayerCount: 2
Back
SplineSet
150 400 m 5
 150 400 224 350 268 350 c 7
 342 350 350 400 350 400 c 5
 400 350 l 5
 250 200 l 5
 400 100 l 5
 400 -150 l 5
 400 -150 353.000180261 -200 325 -200 c 5
 259 -113 125 0 125 0 c 1029
-125 -200 m 21
 -125 -200 -88 -150 -50 -150 c 12
 -19 -150 18 -200 50 -200 c 28
 78 -200 125 -150 125 -150 c 5
 125 550 l 5
 225 650 l 21
 225 650 256 600 300 600 c 28
 328 600 375 650 376 650 c 1037
EndSplineSet
Fore
SplineSet
-160 -264 m 1xee
 -189 -235 l 1
 -189 -235 -183 -227 -173 -217 c 2
 -74 -118 l 2
 -73 -117 l 0
 -58 -102 -37 -86 -15 -86 c 0
 8 -86 36 -116 61 -129 c 1
 61 -35 l 1
 61 515 l 1
 260 714 l 1
 289 685 l 1
 289 685 290 683 293 679 c 0
 305 671 319 664 335 664 c 0
 363 664 410 714 411 714 c 2
 440 685 l 1
 341 586 l 2
 340 586 293 536 265 536 c 0
 242 536 222 550 209 563 c 0
 208 564 l 2
 189 583 l 1
 189 461 l 1
 205 451 265 414 303 414 c 0
 318 414 331 416 340 419 c 1
 385 464 l 1
 464 385 l 1
 320 241 l 1
 435 164 l 1
 464 135 l 1
 464 -115 l 1
 464 -115 463 -116 460 -119 c 2
 361 -218 l 2
 349 -230 313 -264 290 -264 c 1
 261 -235 l 1
 243 -211 219 -184 194 -159 c 0
 186 -151 177 -143 169 -135 c 1
 86 -218 l 2
 74 -230 38 -264 15 -264 c 0
 -17 -264 -54 -214 -85 -214 c 0
 -100 -214 -114 -221 -127 -231 c 2
 -160 -264 l 1xee
278 -45 m 2
 308 -75 l 2
 317 -84 327 -93 336 -103 c 1
 336 55 l 1
 215 136 l 1
 189 162 l 1
 189 39 l 1
 212 19 245 -12 278 -45 c 2
189 296 m 1
 189 168 l 1
 336 315 l 1
 321 330 l 1
 300 309 l 2
 288 297 268 286 233 286 c 0
 220 286 204 290 189 296 c 1
EndSplineSet
EndChar
StartChar: ae
Encoding: 230 230 189
Width: 550
Flags: W
HStem: 444 20G<190 310 415 455> 444 20G<190 310 415 455>
AnchorPoint: "blwmark" 300 0 basechar 0
AnchorPoint: "abvmark" 300 500 basechar 0
LayerCount: 2
Back
SplineSet
125 250 m 17
 100 325 l 1
 175 400 l 1
 300 375 l 1
 300 125 l 9
 175 0 l 1
 100 75 l 1
 100 175 l 1
 175 250 l 1
 175 250 193.964297096 225 250 225 c 3
 269.004218286 225 300 225 300 225 c 1033
300 100 m 1
 500 300 l 1
 400 400 l 25
 300 300 l 25
 300 100 l 25
 400 0 l 25
 500 100 l 1041
EndSplineSet
Fore
SplineSet
364 135 m 1x80
 435 64 l 1
 535 164 l 1
 564 135 l 1
 365 -64 l 1
 252 49 l 1
 140 -64 l 1
 36 40 l 1
 36 140 l 1
 86 190 l 1
 61 215 l 1
 36 290 l 1
 210 464 l 1
 335 439 l 1
 364 410 l 1
 364 393 l 1
 435 464 l 1
 564 335 l 1
 364 135 l 1x80
187 291 m 1
 210 314 l 1
 214 310 l 2
 218 306 225 301 236 297 c 1
 236 317 l 1
 174 329 l 1
 187 291 l 1
364 335 m 1
 364 193 l 1
 436 265 l 1
 365 336 l 1
 364 335 l 1
236 90 m 1
 236 161 l 1
 215 161 l 2
 192 161 176 165 164 170 c 1
 164 110 l 1
 210 64 l 1
 236 90 l 1
EndSplineSet
EndChar
StartChar: eth
Encoding: 240 240 181
Width: 400
Flags: W
HStem: -63.9932 21G<144.998 184.998>
VStem: 36.0068 127.986<97.9168 264.998> 236.007 127.986<135.002 264.998>
AnchorPoint: "blwmark" 200 0 basechar 0
AnchorPoint: "abvmark" 250 700 basechar 0
LayerCount: 2
Back
SplineSet
275 625 m 5
 100 450 l 1029
300 300 m 1
 200 400 l 25
 100 300 l 1
 100 100 l 25
 200 0 l 25
 300 100 l 1
 300 450 l 10
 300 505 244 550 200 550 c 0
 156 550 100 556 100 600 c 27
 100 628 140 650 141 650 c 1049
EndSplineSet
Fore
SplineSet
310.001953125 688.993164062 m 1
 338.993164062 660.001953125 l 1
 64.998046875 386.006835938 l 1
 36.0068359375 414.999023438 l 1
 310.001953125 688.993164062 l 1
225.987304688 454.978515625 m 1
 223.895507812 459.03125 221.099609375 463.610351562 218.779296875 466.94921875 c 1
 201.495117188 479.098632812 182.55078125 486.006835938 164.998046875 486.006835938 c 0
 132.998046875 486.006835938 94.6513671875 489.180664062 76.115234375 507.836914062 c 0
 47.123046875 536.828125 l 0
 40.171875 543.825195312 36.0068359375 552.998046875 36.0068359375 564.998046875 c 0
 36.0068359375 577.162109375 43.5556640625 588.193359375 52.1767578125 596.78125 c 0
 151.171875 695.776367188 l 0
 162.395507812 706.956054688 175.436523438 713.993164062 176.001953125 713.993164062 c 1
 204.993164062 685.001953125 l 1
 165.994140625 646.002929688 l 1
 164.983398438 643.110351562 163.993164062 638.793945312 163.993164062 635.001953125 c 0
 163.993164062 630.80859375 164.373046875 627.63671875 165.393554688 623.67578125 c 1
 184.815429688 615.861328125 211.881835938 613.993164062 235.001953125 613.993164062 c 0
 258.206054688 613.993164062 284.749023438 601.4765625 304.654296875 581.579101562 c 0
 333.645507812 552.587890625 l 0
 351.484375 534.755859375 363.993164062 510.99609375 363.993164062 485.001953125 c 0
 363.993164062 135.001953125 l 1
 164.998046875 -63.9931640625 l 1
 36.0068359375 64.998046875 l 1
 36.0068359375 264.998046875 l 1
 225.987304688 454.978515625 l 1
236.006835938 264.998046875 m 1
 164.998046875 336.006835938 l 0
 163.993164062 335.001953125 l 1
 163.993164062 135.000976562 l 0
 163.993164062 96.62890625 214.274414062 84.7197265625 235.001953125 63.9931640625 c 0
 236.006835938 64.998046875 l 1
 236.006835938 264.998046875 l 1
EndSplineSet
EndChar
StartChar: divide
Encoding: 247 247 224
Width: 600
Flags: W
HStem: 1 21G<280 320> 236 128<135 465> 579 20G<280 320> 579 20G<280 320>
LayerCount: 2
Back
SplineSet
265 135 m 25
 335 65 l 1049
100 300 m 25
 500 300 l 1049
265 535 m 25
 335 465 l 1049
EndSplineSet
Fore
SplineSet
201 500 m 1xe0
 300 599 l 1
 399 500 l 1
 300 401 l 1
 201 500 l 1xe0
36 265 m 1
 135 364 l 1
 535 364 l 1
 564 335 l 1
 465 236 l 1
 65 236 l 1
 36 265 l 1
201 100 m 1
 300 199 l 1
 399 100 l 1
 300 1 l 1
 201 100 l 1
EndSplineSet
EndChar
StartChar: hbar
Encoding: 295 295 964
Width: 400
Flags: W
HStem: 444 20G<240 280> 444 20G<240 280>
VStem: 36 128<70 310 368 411 539 555> 236 128<70 319.643>
AnchorPoint: "abvmark" 200 700 basechar 0
AnchorPoint: "blwmark" 200 0 basechar 0
LayerCount: 2
Back
SplineSet
265 70 m 25
 335 0 l 1049
65 70 m 25
 135 0 l 1049
65 625 m 25
 135 555 l 1049
100 590 m 9
 100 35 l 1049
300 35 m 25
 300 325 l 25
 225 400 l 1
 100 275 l 1049
200 475 m 25
 25 475 l 1049
EndSplineSet
Fore
SplineSet
264 510 m 1xb0
 165 411 l 1
 164 411 l 1
 164 368 l 1
 260 464 l 1
 364 360 l 1
 364 70 l 1
 399 35 l 1
 300 -64 l 1
 265 -29 l 1
 236 -0 l 1
 201 35 l 1
 236 70 l 1
 236 290 l 2
 236 314 203 323 190 336 c 1
 164 310 l 1
 164 70 l 1
 199 35 l 1
 100 -64 l 1
 65 -29 l 1
 36 -0 l 1
 1 35 l 1
 36 70 l 1
 36 240 l 1
 36 411 l 1
 -10 411 l 1
 -39 440 l 1
 36 515 l 1
 36 555 l 1
 1 590 l 1
 100 689 l 1
 135 654 l 1
 164 625 l 1
 199 590 l 1
 164 555 l 1
 164 539 l 1
 235 539 l 1
 264 510 l 1xb0
EndSplineSet
EndChar
StartChar: dotlessi
Encoding: 305 305 97
Width: 200
Flags: W
HStem: 444 20G<80 120> 444 20G<80 120>
VStem: 36 128<70 330>
AnchorPoint: "blwmark" 100 0 basechar 0
AnchorPoint: "abvmark" 100 500 basechar 0
LayerCount: 2
Back
SplineSet
65 70 m 25
 135 0 l 25
 205 70 l 1049
135 330 m 25
 65 400 l 25
 -5 330 l 1049
100 365 m 9
 100 35 l 1025
EndSplineSet
Fore
SplineSet
135 429 m 1xa0
 164 400 l 1
 199 365 l 1
 164 330 l 1
 164 70 l 1
 170 64 l 1
 240 134 l 1
 269 105 l 1
 100 -64 l 1
 65 -29 l 1
 36 -0 l 1
 1 35 l 1
 36 70 l 1
 36 330 l 1
 30 336 l 1
 -40 266 l 1
 -69 295 l 1
 100 464 l 1
 135 429 l 1xa0
EndSplineSet
EndChar
StartChar: eng
Encoding: 331 331 600
Width: 400
Flags: W
HStem: -214 128<82.5 172> 444 20G<80 120 240 280> 444 20G<80 120 240 280>
VStem: 36 128<70 310> 236 128<-115 290>
AnchorPoint: "abvmark" 200 500 basechar 0
LayerCount: 2
Back
SplineSet
100 275 m 25
 225 400 l 1
 300 325 l 1
 300 -150 l 1
 300 -150 253 -200 225 -200 c 0
 193 -200 156 -150 125 -150 c 16
 87 -150 50 -200 50 -200 c 1033
65 70 m 29
 135 0 l 1053
135 330 m 25
 65 400 l 1049
100 365 m 9
 100 35 l 1029
EndSplineSet
Fore
SplineSet
135 429 m 1xd8
 164 400 l 1
 180 384 l 1
 260 464 l 1
 364 360 l 1
 364 -115 l 1
 364 -115 363 -116 360 -119 c 2
 261 -218 l 2
 249 -230 213 -264 190 -264 c 0
 158 -264 121 -214 90 -214 c 0
 75 -214 60 -222 48 -231 c 2
 15 -264 l 1
 -14 -235 l 1
 -14 -235 -8 -227 2 -217 c 2
 101 -118 l 2
 115 -104 137 -86 160 -86 c 0
 184 -86 210 -115 236 -129 c 1
 236 290 l 1
 190 336 l 1
 164 310 l 1
 164 70 l 1
 199 35 l 1
 100 -64 l 1
 65 -29 l 1
 36 -0 l 1
 1 35 l 1
 36 70 l 1
 36 240 l 1
 36 330 l 1
 1 365 l 1
 100 464 l 1
 135 429 l 1xd8
EndSplineSet
EndChar
StartChar: florin
Encoding: 402 402 260
Width: 400
Flags: W
HStem: -214 128<-92.5 4> 536 128<341.774 444>
LayerCount: 2
Back
SplineSet
-125 -200 m 17
 -125 -200 -88 -150 -50 -150 c 8
 -6 -150 6 -200 50 -200 c 24
 85 -200 125 -150 125 -150 c 1
 225 550 l 1
 325 650 l 17
 325 650 365 600 400 600 c 24
 435 600 475 650 476 650 c 1033
100 400 m 25
 350 400 l 1049
EndSplineSet
Fore
SplineSet
36 365 m 1
 135 464 l 1
 154 464 l 1
 161 515 l 1
 360 714 l 1
 388 686 l 2
 402 675 419 664 435 664 c 0
 453 664 473 677 487 690 c 2
 511 714 l 2
 540 685 l 1
 538 683 l 2
 536 681 533 677 528 672 c 2
 527 672 l 2
 428 573 l 2
 413 558 388 536 365 536 c 0
 343 536 319 556 304 571 c 0
 299 576 294 580 289 585 c 1
 272 464 l 1
 385 464 l 1
 414 435 l 1
 315 336 l 1
 253 336 l 1
 189 -115 l 2
 189 -115 184 -120 176 -129 c 2
 175 -130 l 2
 76 -229 l 2
 61 -244 37 -264 15 -264 c 0
 -29 -264 -41 -214 -85 -214 c 0
 -100 -214 -114 -221 -127 -231 c 2
 -160 -264 l 1
 -189 -235 l 1
 -189 -235 -183 -227 -173 -217 c 2
 -74 -118 l 2
 -73 -117 l 0
 -58 -102 -37 -86 -15 -86 c 0
 23 -86 37 -123 68 -133 c 1
 135 336 l 1
 65 336 l 1
 36 365 l 1
EndSplineSet
EndChar
StartChar: hv
Encoding: 405 405 514
Width: 600
Flags: W
HStem: 444 20G<240 280> 444 20G<240 280 516.19 560> 594 20G<516.19 560>
VStem: 36 128<70 310 368 555> 236 128<135 319.643> 386 128<414.5 513> 436 128<135 340>
AnchorPoint: "blwmark" 300 0 basechar 0
AnchorPoint: "abvmark" 300 700 basechar 0
LayerCount: 2
Back
SplineSet
505 550 m 25
 504 550 450 514 450 472 c 16
 450 423 500 375 500 375 c 25
 500 100 l 1
 400 0 l 25
 300 100 l 1
 300 325 l 25
 225 400 l 1
 100 275 l 1049
65 70 m 25
 135 0 l 1049
65 625 m 25
 135 555 l 1049
100 590 m 9
 100 35 l 1049
EndSplineSet
Fore
SplineSet
135 654 m 1xba
 164 625 l 1
 199 590 l 1
 164 555 l 1
 164 368 l 1
 260 464 l 1
 364 360 l 1
 364 135 l 1
 435 64 l 1
 436 65 l 1
 436 340 l 1xba
 435 341 l 2
 429 347 386 392 386 437 c 0
 386 459 402 480 416 494 c 2
 515 593 l 2
 528 606 540 614 540 614 c 2
 569 585 l 1
 525 541 l 2
 518 530 514 519 514 507 c 0xbc
 514 464 553 421 562 412 c 2
 564 410 l 1
 564 135 l 1
 365 -64 l 1
 236 65 l 1
 236 290 l 2
 236 314 203 323 190 336 c 1
 164 310 l 1
 164 70 l 1
 199 35 l 1
 100 -64 l 1
 65 -29 l 1
 36 -0 l 1
 1 35 l 1
 36 70 l 1
 36 240 l 1
 36 555 l 1
 1 590 l 1
 100 689 l 1
 135 654 l 1xba
EndSplineSet
EndChar
StartChar: wynn
Encoding: 447 447 877
Width: 400
Flags: W
HStem: -214 21G<45 85> 444 20G<80 120 215.294 255> 444 20G<80 120 215.294 255>
VStem: 36 128<-115 -93 -35 35 93 330> 236 128<235 303.305>
AnchorPoint: "abvmark" 200 500 basechar 0
LayerCount: 2
Back
SplineSet
50 -50 m 9
 300 200 l 1
 300 300 l 25
 200 400 l 1
 100 300 l 1049
65 400 m 29
 135 330 l 1053
100 365 m 5
 100 -150 l 1025
EndSplineSet
Fore
SplineSet
135 429 m 1xd8
 164 400 l 1
 168 396 l 1
 235 464 l 1
 364 335 l 1
 364 235 l 1
 164 35 l 1
 164 -115 l 1
 65 -214 l 1
 36 -185 l 1
 36 -93 l 1
 15 -114 l 1
 -14 -85 l 1
 36 -35 l 1
 36 265 l 1
 36 330 l 1
 1 365 l 1
 100 464 l 1
 135 429 l 1xd8
164 330 m 1
 164 93 l 1
 236 165 l 1
 236 265 l 2
 236 302 190 315 168 334 c 1
 164 330 l 1
EndSplineSet
EndChar
StartChar: HV
Encoding: 502 502 513
Width: 900
Flags: W
HStem: -64 21G<-5 35 220 260 560 610> -14 128<113.505 179.559> 486 21G<-5 35> 536 128<82.5 177>
VStem: 180 40<114 513> 261 128<101 235 293 515> 486 128<95 290> 636 128<432 516> 711 128<186 366.782>
AnchorPoint: "blwmark" 475 0 basechar 0
AnchorPoint: "abvmark" 500 700 basechar 0
LayerCount: 2
Back
SplineSet
50 550 m 5
 50 550 84 600 124 600 c 7
 160 600 178 575 200 575 c 7
 228 575 250 600 251 600 c 1029
200 550 m 1
 200 75 l 1025
375 250 m 5
 500 375 l 5
 550 325 l 5
 550 50 l 5
 625 0 l 5
 775 151 l 5
 775 415 l 5
 775 415 700 419 700 475 c 7
 700 530 800 600 800 600 c 1029
375 600 m 5
 325 550 l 5
 325 50 l 5
 275 0 l 5
 275 0 248 50 150 50 c 7
 81 50 50 0 50 0 c 1037
EndSplineSet
Fore
SplineSet
410 664 m 1xfe80
 439 635 l 1
 389 585 l 1
 389 293 l 1
 535 439 l 1
 614 360 l 1
 614 95 l 1
 660 64 l 1
 711 116 l 1
 711 357 l 1xfe80
 701 360 688 366 679 375 c 2
 650 404 l 2
 641 413 636 424 636 440 c 0
 636 466 659 496 683 520 c 2
 782 619 l 2
 808 645 835 664 835 664 c 1
 864 635 l 1
 776 547 l 2
 769 535 764 522 764 510 c 0xff
 764 503 766 495 768 490 c 0
 788 480 810 479 810 479 c 1
 839 450 l 1
 839 186 l 1
 689 35 l 1
 590 -64 l 1
 515 -14 l 1
 486 15 l 1
 486 290 l 1
 465 311 l 1
 389 235 l 1
 389 85 l 1
 240 -64 l 1
 217 -41 l 1
 198 -28 166 -14 115 -14 c 0
 83 -14 58 -26 42 -37 c 2
 15 -64 l 1
 -14 -35 l 2
 -14 -35 -10 -29 -2 -21 c 2
 -2 -20 l 2
 97 79 l 2
 111 93 139 112 180 114 c 1
 180 513 l 1
 175 512 170 511 165 511 c 0
 143 511 125 536 89 536 c 0
 76 536 63 530 52 523 c 2
 15 486 l 1
 -14 515 l 1
 -14 515 -7 525 4 536 c 2
 103 635 l 2
 117 649 137 664 159 664 c 0
 195 664 213 639 235 639 c 0
 263 639 285 664 286 664 c 2
 315 635 l 1
 220 541 l 1
 220 112 l 1
 236 110 250 106 261 101 c 1
 261 515 l 1
 410 664 l 1xfe80
EndSplineSet
EndChar
StartChar: dotlessj
Encoding: 567 567 98
Width: 200
Flags: W
HStem: 444 20G<80 120> 444 20G<80 120>
VStem: 36 128<-65 330>
AnchorPoint: "abvmark" 100 500 basechar 0
LayerCount: 2
Back
SplineSet
135 330 m 25
 65 400 l 25
 -5 330 l 1049
100 365 m 1
 100 -100 l 9
 30 -170 l 1049
EndSplineSet
Fore
SplineSet
135 429 m 1xa0
 164 400 l 1
 199 365 l 1
 164 330 l 1
 164 -65 l 1
 -5 -234 l 1
 -34 -205 l 1
 36 -135 l 1
 36 330 l 1
 30 336 l 1
 -40 266 l 1
 -69 295 l 1
 100 464 l 1
 135 429 l 1xa0
EndSplineSet
EndChar
StartChar: ascript
Encoding: 593 593 348
Width: 400
Flags: W
HStem: 444 20G<215 255 315 355> 444 20G<215 255 315 355>
VStem: 36 128<80.3567 265> 236 128<90 303>
AnchorPoint: "blwmark" 200 0 basechar 0
AnchorPoint: "abvmark" 225 500 basechar 0
LayerCount: 2
Back
SplineSet
375 50 m 29
 325 0 l 5
 300 25 l 5
 300 400 l 5
 300 400 278 360 250 360 c 4
 222 360 200 400 200 400 c 13
 100 300 l 5
 100 75 l 21
 175 0 l 5
 300 125 l 1053
EndSplineSet
Fore
SplineSet
236 303 m 1x30
 230 299 222 296 215 296 c 0
 203 296 192 303 183 312 c 2
 164 331 l 1
 164 110 l 2
 164 86 197 77 210 64 c 1
 236 90 l 1
 236 303 l 1x30
236 32 m 1
 140 -64 l 1
 36 40 l 1
 36 265 l 1
 235 464 l 1
 264 435 l 1
 264 435 266 433 268 429 c 0
 273 426 279 424 285 424 c 0
 289 424 293 425 298 427 c 2
 335 464 l 1xb0
 364 435 l 1
 364 68 l 1
 410 114 l 1
 439 85 l 1
 290 -64 l 1
 236 -10 l 1
 236 32 l 1
EndSplineSet
EndChar
StartChar: Rsmallcap
Encoding: 640 640 854
Width: 450
Flags: W
HStem: 444 20G<80 120 215.294 265> 444 20G<80 120 215.294 265>
VStem: 36 128<70 87 143 330>
AnchorPoint: "blwmark" 225 0 basechar 0
AnchorPoint: "abvmark" 200 500 basechar 0
LayerCount: 2
Back
SplineSet
65 70 m 25
 135 0 l 1049
65 400 m 25
 135 330 l 1049
100 365 m 9
 100 35 l 1025
400 50 m 25
 350 0 l 1
 350 0 331 82 300 125 c 24
 280 154 225 175 225 175 c 1025
200 150 m 1
 350 300 l 1
 200 400 l 1
 100 300 l 1049
EndSplineSet
Fore
SplineSet
435 114 m 1xa0
 464 85 l 1
 315 -64 l 1
 286 -35 l 1
 286 -35 268 42 239 85 c 1
 216 101 190 111 190 111 c 2
 165 86 l 1
 164 87 l 1
 164 70 l 1
 199 35 l 1
 100 -64 l 1
 65 -29 l 1
 36 -0 l 1
 1 35 l 1
 36 70 l 1
 36 265 l 1
 36 330 l 1
 1 365 l 1
 100 464 l 1
 135 429 l 1
 164 400 l 1
 168 396 l 1
 235 464 l 1
 385 364 l 1
 414 335 l 1
 299 220 l 1
 309 214 318 207 326 199 c 0
 327 199 l 2
 356 170 l 2
 359 167 362 163 364 160 c 0
 380 138 392 107 401 80 c 1
 435 114 l 1xa0
164 143 m 1
 280 259 l 1
 168 334 l 1
 164 330 l 1
 164 143 l 1
EndSplineSet
EndChar
StartChar: circumflex
Encoding: 710 710 100
Width: 400
Flags: W
HStem: 461 303
VStem: 36 328
LayerCount: 2
Back
SplineSet
300 525 m 25
 300 525 200 600 200 700 c 5
 200 550 100 525 100 525 c 1025
EndSplineSet
Fore
SplineSet
136 662 m 0
 136 664 136 663 136 665 c 2
 235 764 l 1
 264 735 l 2
 264 733 264 734 264 732 c 0
 264 709 269 690 277 671 c 0
 289 642 307 617 324 598 c 0
 331 592 335 589 335 589 c 1
 364 560 l 1
 265 461 l 1
 265 461 254 469 239 484 c 2
 210 513 l 2
 200 523 187 537 176 553 c 1
 115 492 l 2
 90 467 65 461 65 461 c 2
 36 490 l 1
 120 574 l 1
 129 596 136 624 136 662 c 0
EndSplineSet
EndChar
StartChar: dotaccent
Encoding: 729 729 269
Width: 400
Flags: W
HStem: 476 198
VStem: 101 198
LayerCount: 2
Back
SplineSet
165 610 m 29
 235 540 l 1053
EndSplineSet
Fore
SplineSet
101 575 m 1
 200 674 l 1
 299 575 l 1
 200 476 l 1
 101 575 l 1
EndSplineSet
EndChar
StartChar: ogonek
Encoding: 731 731 283
Width: 400
Flags: W
HStem: -264 328
VStem: 61 278
LayerCount: 2
Back
SplineSet
200 0 m 25
 125 -75 l 1
 125 -150 l 9
 225 -200 l 25
 275 -150 l 1053
EndSplineSet
Fore
SplineSet
235 64 m 1
 264 35 l 1
 189 -40 l 1
 189 -101 l 1
 260 -136 l 2
 260 -136 305 -91 310 -86 c 1
 339 -115 l 1
 190 -264 l 1
 90 -214 l 1
 61 -185 l 1
 61 -110 l 1
 235 64 l 1
EndSplineSet
EndChar
StartChar: tilde
Encoding: 732 732 168
Width: 400
Flags: W
HStem: 486 128<195.416 318> 511 128<82 204.584> 644 20G<365 405>
LayerCount: 2
Back
SplineSet
50 525 m 17
 50 525 90 575 125 575 c 27
 184 575 216 550 275 550 c 27
 310 550 350 600 350 600 c 1033
EndSplineSet
Fore
SplineSet
15 461 m 1x60
 -14 490 l 1
 -14 490 -9 497 -0 505 c 2
 99 604 l 2
 114 619 138 639 160 639 c 0x60
 219 639 251 614 310 614 c 0
 326 614 344 625 357 636 c 2
 385 664 l 1
 414 635 l 2
 414 635 409 630 401 621 c 2
 400 620 l 2
 301 521 l 2
 286 506 262 486 240 486 c 0xa0
 181 486 149 511 90 511 c 0
 74 511 57 501 43 489 c 2
 15 461 l 1x60
EndSplineSet
EndChar
StartChar: hungarumlaut
Encoding: 733 733 267
Width: 400
Flags: W
HStem: 461 303
LayerCount: 2
Back
SplineSet
350 700 m 17
 350 600 225 525 225 525 c 1049
200 700 m 17
 200 600 75 525 75 525 c 1049
EndSplineSet
Fore
SplineSet
235 764 m 1
 264 735 l 1
 264 685 232 641 201 610 c 2
 102 511 l 2
 71 480 40 461 40 461 c 1
 11 490 l 1
 110 589 l 2
 110 589 111 590 114 592 c 0
 126 613 136 638 136 665 c 1
 235 764 l 1
385 764 m 1
 414 735 l 1
 414 685 382 641 351 610 c 2
 252 511 l 2
 221 480 190 461 190 461 c 1
 161 490 l 1
 260 589 l 2
 260 589 261 590 264 592 c 0
 276 613 286 638 286 665 c 1
 385 764 l 1
EndSplineSet
EndChar
StartChar: ringbelow
Encoding: 755 755 886
Width: 400
Flags: W
HStem: -328 306<140.6 259.4>
VStem: 47 306<-234.037 -115.963>
LayerCount: 2
Back
SplineSet
100 -150 m 4
 100 -90 115 -75 175 -75 c 4
 250 -75 300 -125 300 -200 c 4
 300 -260 285 -275 225 -275 c 4
 150 -275 100 -225 100 -150 c 4
EndSplineSet
Fore
SplineSet
47 -182 m 0
 47 -152 51 -133 62 -122 c 2
 147 -37 l 2
 158 -26 177 -22 207 -22 c 0
 245 -22 275 -34 297 -56 c 2
 319 -78 l 1
 341 -100 353 -131 353 -168 c 0
 353 -198 349 -217 338 -228 c 2
 253 -313 l 2
 242 -324 223 -328 193 -328 c 0
 155 -328 125 -316 103 -294 c 2
 81 -272 l 1
 59 -250 47 -219 47 -182 c 0
153 -128 m 1
 155 -155 164 -178 178 -197 c 1
 196 -211 220 -220 247 -222 c 1
 245 -195 236 -172 222 -153 c 1
 204 -139 180 -130 153 -128 c 1
EndSplineSet
EndChar
StartChar: figuredash
Encoding: 8210 8210 908
Width: 400
Flags: W
HStem: 136 128<135 265>
VStem: 36 328
LayerCount: 2
Back
SplineSet
100 200 m 25
 300 200 l 1049
EndSplineSet
Fore
SplineSet
36 165 m 1
 135 264 l 1
 335 264 l 1
 364 235 l 1
 265 136 l 1
 65 136 l 1
 36 165 l 1
EndSplineSet
EndChar
StartChar: endash
Encoding: 8211 8211 257
Width: 400
Flags: W
HStem: 136 128<85 315>
LayerCount: 2
Back
SplineSet
50 200 m 25
 350 200 l 1049
EndSplineSet
Fore
SplineSet
-14 165 m 1
 85 264 l 1
 385 264 l 1
 414 235 l 1
 315 136 l 1
 15 136 l 1
 -14 165 l 1
EndSplineSet
EndChar
StartChar: emdash
Encoding: 8212 8212 258
Width: 600
Flags: W
HStem: 136 128<85 515>
LayerCount: 2
Back
SplineSet
50 200 m 25
 550 200 l 1049
EndSplineSet
Fore
SplineSet
-14 165 m 1
 85 264 l 1
 585 264 l 1
 614 235 l 1
 515 136 l 1
 15 136 l 1
 -14 165 l 1
EndSplineSet
EndChar
StartChar: quoteleft
Encoding: 8216 8216 254
Width: 300
Flags: W
VStem: 46 233
LayerCount: 2
Back
SplineSet
180 405 m 29
 110 475 l 5
 110 545 l 29
 215 650 l 1053
EndSplineSet
Fore
SplineSet
244 440 m 1
 145 341 l 1
 46 440 l 1
 46 510 l 1
 250 714 l 1
 279 685 l 1
 174 580 l 1
 174 510 l 1
 244 440 l 1
EndSplineSet
EndChar
StartChar: quotesinglbase
Encoding: 8218 8218 256
Width: 300
VWidth: 450
Flags: W
VStem: 21 233
LayerCount: 2
Back
SplineSet
120 70 m 29
 190 0 l 5
 190 -70 l 29
 85 -175 l 1053
EndSplineSet
Fore
SplineSet
56 35 m 1
 155 134 l 1
 254 35 l 1
 254 -35 l 1
 50 -239 l 1
 21 -210 l 1
 126 -105 l 1
 126 -35 l 1
 56 35 l 1
EndSplineSet
EndChar
StartChar: quotedblleft
Encoding: 8220 8220 251
Width: 500
Flags: W
LayerCount: 2
Back
SplineSet
180 405 m 25
 110 475 l 1
 110 545 l 25
 215 650 l 1049
380 405 m 25
 310 475 l 1
 310 545 l 25
 415 650 l 1049
EndSplineSet
Fore
SplineSet
444 440 m 1
 345 341 l 1
 246 440 l 1
 246 510 l 1
 450 714 l 1
 479 685 l 1
 374 580 l 1
 374 510 l 1
 444 440 l 1
244 440 m 1
 145 341 l 1
 46 440 l 1
 46 510 l 1
 250 714 l 1
 279 685 l 1
 174 580 l 1
 174 510 l 1
 244 440 l 1
EndSplineSet
EndChar
StartChar: quotedblbase
Encoding: 8222 8222 253
Width: 500
VWidth: 450
Flags: W
LayerCount: 2
Back
SplineSet
320 70 m 29
 390 0 l 5
 390 -70 l 29
 285 -175 l 1053
120 70 m 25
 190 0 l 1
 190 -70 l 25
 85 -175 l 1049
EndSplineSet
Fore
SplineSet
56 35 m 1
 155 134 l 1
 254 35 l 1
 254 -35 l 1
 50 -239 l 1
 21 -210 l 1
 126 -105 l 1
 126 -35 l 1
 56 35 l 1
256 35 m 1
 355 134 l 1
 454 35 l 1
 454 -35 l 1
 250 -239 l 1
 221 -210 l 1
 326 -105 l 1
 326 -35 l 1
 256 35 l 1
EndSplineSet
EndChar
StartChar: quotedblrev
Encoding: 8223 8223 929
Width: 500
Flags: W
LayerCount: 2
Back
SplineSet
180 620 m 25
 110 550 l 1
 110 480 l 25
 215 375 l 1049
380 620 m 29
 310 550 l 5
 310 480 l 29
 415 375 l 1053
EndSplineSet
Fore
SplineSet
345 684 m 1
 444 585 l 1
 374 515 l 1
 374 445 l 2
 374 445 379 440 380 439 c 2
 479 340 l 1
 450 311 l 1
 246 515 l 1
 246 585 l 1
 345 684 l 1
145 684 m 1
 244 585 l 1
 174 515 l 1
 174 445 l 2
 174 445 179 440 180 439 c 2
 279 340 l 1
 250 311 l 1
 46 515 l 1
 46 585 l 1
 145 684 l 1
EndSplineSet
EndChar
StartChar: dagger
Encoding: 8224 8224 262
Width: 400
Flags: W
HStem: -214 21G<145 185> 444 20G<65 105 275 355> 444 20G<65 105 275 355> 644 20G<240 280>
VStem: 128 143<-2.44351 302> 136 128<-115 105.814>
LayerCount: 2
Back
SplineSet
50 400 m 29
 100 350 l 29
 300 400 l 29
 350 350 l 1053
175 550 m 1
 175 550 188 459 190 400 c 24
 198 186 200 -150 200 -150 c 1
 200 -150 203 186 210 400 c 24
 213 478 225 600 225 600 c 9
 175 550 l 1
EndSplineSet
Fore
SplineSet
111 515 m 1xd8
 260 664 l 1
 289 635 l 1
 289 635 279 527 275 449 c 1
 335 464 l 1
 414 385 l 1
 315 286 l 1
 271 330 l 1xd8
 266 126 264 -115 264 -115 c 2
 165 -214 l 1
 136 -185 l 1xd4
 136 -185 134 91 128 302 c 1
 65 286 l 1
 -14 365 l 1
 85 464 l 1
 121 428 l 1
 117 473 111 515 111 515 c 1xd8
EndSplineSet
EndChar
StartChar: perthousand
Encoding: 8240 8240 244
Width: 1050
Flags: W
HStem: -214 21G<-5 35 445 485 795 835>
VStem: 36 128<448.161 565> 236 128<485 601.839> 336 128<-51.8394 65> 536 128<-15 101.839> 686 128<-51.8394 65> 886 128<-15 101.839>
LayerCount: 2
Back
SplineSet
850 200 m 29
 750 100 l 29
 750 -50 l 29
 850 -150 l 29
 950 -50 l 29
 950 100 l 29
 850 200 l 29
500 200 m 25
 400 100 l 25
 400 -50 l 25
 500 -150 l 25
 600 -50 l 25
 600 100 l 25
 500 200 l 25
50 -150 m 25
 650 700 l 1049
200 700 m 25
 100 600 l 25
 100 450 l 25
 200 350 l 25
 300 450 l 25
 300 600 l 25
 200 700 l 25
EndSplineSet
Fore
SplineSet
165 636 m 1xee
 164 635 l 1
 164 485 l 2
 164 447 214 435 235 414 c 1
 236 415 l 1
 236 565 l 2
 236 603 186 615 165 636 c 1xee
36 565 m 1
 235 764 l 1
 364 635 l 1
 364 485 l 1
 165 286 l 1
 36 415 l 1
 36 565 l 1
15 -214 m 1
 -14 -185 l 1
 586 665 l 1
 685 764 l 1
 714 735 l 1
 114 -115 l 1
 15 -214 l 1
465 136 m 1
 464 135 l 1
 464 -15 l 2xde
 464 -53 514 -65 535 -86 c 1
 536 -85 l 1
 536 65 l 2
 536 103 486 115 465 136 c 1
336 65 m 1
 535 264 l 1
 664 135 l 1
 664 -15 l 1
 465 -214 l 1
 336 -85 l 1
 336 65 l 1
815 136 m 1
 814 135 l 1
 814 -15 l 2
 814 -53 864 -65 885 -86 c 1
 886 -85 l 1
 886 65 l 2
 886 103 836 115 815 136 c 1
686 65 m 1
 885 264 l 1
 1014 135 l 1
 1014 -15 l 1
 815 -214 l 1
 686 -85 l 1
 686 65 l 1
EndSplineSet
EndChar
StartChar: guilsinglleft
Encoding: 8249 8249 242
Width: 300
Flags: W
VStem: -14 328
LayerCount: 2
Back
SplineSet
225 325 m 21
 225 325 203.459960938 295.372070312 175 275 c 4
 80 207 50 200 50 200 c 5
 50 200 114 174 200 100 c 4
 221.074883505 81.8657979147 250 50 250 50 c 1037
EndSplineSet
Fore
SplineSet
260 389 m 1
 289 360 l 1
 289 360 280 347 265 332 c 2
 166 233 l 1
 165 232 165 233 164 232 c 0
 162 230 158 226 156 224 c 1
 179 209 206 189 235 164 c 0
 242 158 250 150 257 143 c 2
 286 114 l 1
 287 114 l 0
 302 99 314 85 314 85 c 1
 215 -14 l 1
 186 15 l 2
 186 15 182 20 174 28 c 0
 171 30 168 34 165 36 c 0
 79 110 15 136 15 136 c 1
 -14 165 l 1
 85 264 l 1
 85 264 115 271 210 339 c 1
 260 389 l 1
EndSplineSet
EndChar
StartChar: guilsinglright
Encoding: 8250 8250 243
Width: 300
Flags: W
VStem: -14 328
LayerCount: 2
Back
SplineSet
75 325 m 21
 75 325 96.5400390625 295.372070312 125 275 c 4
 220 207 250 200 250 200 c 5
 250 200 186 174 100 100 c 4
 78.9248046875 81.8662109375 50 50 50 50 c 1037
EndSplineSet
Fore
SplineSet
110 389 m 1
 139 360 l 1
 139 360 143 355 149 348 c 0
 153 345 156 342 160 339 c 0
 218 297 252 278 269 270 c 0
 280 265 285 264 285 264 c 1
 314 235 l 1
 215 136 l 1
 215 136 151 110 65 36 c 0
 54 26 30 1 15 -14 c 1
 -14 15 l 1
 -14 15 -2 29 13 44 c 2
 112 143 l 2
 119 151 128 158 135 164 c 0
 138 167 142 170 146 173 c 1
 131 183 112 195 90 211 c 0
 81 218 71 226 64 233 c 2
 35 262 l 2
 20 277 11 290 11 290 c 1
 110 389 l 1
EndSplineSet
EndChar
StartChar: refmark
Encoding: 8251 8251 953
Width: 600
Flags: W
HStem: 564 15G<115 155 305 345 515 555>
LayerCount: 2
Back
SplineSet
500 500 m 25
 100 100 l 1049
100 500 m 25
 500 100 l 1049
465 360 m 25
 535 290 l 1049
240 135 m 25
 310 65 l 1049
290 535 m 25
 360 465 l 1049
65 310 m 29
 135 240 l 1053
EndSplineSet
Fore
SplineSet
1 275 m 1
 100 374 l 1
 199 275 l 1
 100 176 l 1
 1 275 l 1
226 500 m 1
 325 599 l 1
 424 500 l 1
 325 401 l 1
 226 500 l 1
176 100 m 1
 275 199 l 1
 374 100 l 1
 275 1 l 1
 176 100 l 1
401 325 m 1
 500 424 l 1
 599 325 l 1
 500 226 l 1
 401 325 l 1
36 465 m 1
 135 564 l 1
 335 364 l 1
 535 564 l 1
 564 535 l 1
 364 335 l 1
 564 135 l 1
 465 36 l 1
 265 236 l 1
 65 36 l 1
 36 65 l 1
 236 265 l 1
 36 465 l 1
EndSplineSet
EndChar
StartChar: bracketquillleft
Encoding: 8261 8261 916
Width: 300
Flags: W
HStem: -214 21G<45 235>
VStem: 36 128<-86 236 364 636>
LayerCount: 2
Back
SplineSet
250 300 m 25
 100 300 l 1049
250 700 m 25
 100 700 l 25
 100 -150 l 25
 250 -150 l 1033
EndSplineSet
Fore
SplineSet
314 735 m 1
 215 636 l 1
 164 636 l 1
 164 364 l 1
 285 364 l 1
 314 335 l 1
 215 236 l 1
 164 236 l 1
 164 -86 l 1
 285 -86 l 1
 314 -115 l 1
 215 -214 l 1
 65 -214 l 1
 36 -185 l 1
 36 265 l 1
 36 665 l 1
 135 764 l 1
 285 764 l 1
 314 735 l 1
EndSplineSet
EndChar
StartChar: et
Encoding: 8266 8266 960
Width: 400
Flags: W
HStem: -214 21G<95 135> 286 128<160.922 291.641> 444 20G<90 170 335 405> 444 20G<90 170 335 405>
VStem: 86 128<-115 23.4712>
LayerCount: 2
Back
SplineSet
75 400 m 1
 75 400 137 350 225 350 c 3
 279 350 350 400 350 400 c 1
 350 400 150 176 150 -100 c 7
 150 -132 150 -150 150 -150 c 1025
EndSplineSet
Fore
SplineSet
11 365 m 1xe8
 110 464 l 1
 110 464 172 414 260 414 c 0
 314 414 385 464 385 464 c 1
 414 435 l 1
 414 435 214 211 214 -65 c 2
 214 -115 l 1
 115 -214 l 1
 86 -185 l 1
 86 -135 l 2
 86 47 173 207 232 294 c 1
 219 290 203 286 190 286 c 0
 102 286 40 336 40 336 c 1
 11 365 l 1xe8
EndSplineSet
EndChar
StartChar: lozengedot
Encoding: 8280 8280 899
Width: 600
Flags: W
HStem: -64 21G<280 320>
LayerCount: 2
Back
SplineSet
415 210 m 25
 485 140 l 1049
265 70 m 25
 335 0 l 1049
265 350 m 25
 335 280 l 1049
115 210 m 25
 185 140 l 1049
EndSplineSet
Fore
SplineSet
51 175 m 1
 150 274 l 1
 249 175 l 1
 150 76 l 1
 51 175 l 1
201 315 m 1
 300 414 l 1
 399 315 l 1
 300 216 l 1
 201 315 l 1
201 35 m 1
 300 134 l 1
 399 35 l 1
 300 -64 l 1
 201 35 l 1
351 175 m 1
 450 274 l 1
 549 175 l 1
 450 76 l 1
 351 175 l 1
EndSplineSet
EndChar
StartChar: because
Encoding: 8757 8757 897
Width: 600
Flags: W
HStem: -64 21G<280 320>
LayerCount: 2
Back
SplineSet
415 350 m 25
 485 280 l 1049
115 350 m 25
 185 280 l 1049
265 70 m 25
 335 0 l 1049
EndSplineSet
Fore
SplineSet
201 35 m 1
 300 134 l 1
 399 35 l 1
 300 -64 l 1
 201 35 l 1
51 315 m 1
 150 414 l 1
 249 315 l 1
 150 216 l 1
 51 315 l 1
351 315 m 1
 450 414 l 1
 549 315 l 1
 450 216 l 1
 351 315 l 1
EndSplineSet
EndChar
StartChar: bracketangleleft
Encoding: 9296 9296 930
Width: 400
Flags: W
HStem: -214 21G<295 335>
LayerCount: 2
Back
SplineSet
325 675 m 17
 325 675 244.716713418 553.917846347 225 525 c 0
 180 459 50 250 50 250 c 1
 50 250 204 60 250 0 c 0
 266.916127607 -22.0645142705 350 -150 350 -150 c 1033
EndSplineSet
Fore
SplineSet
360 739 m 1
 389 710 l 1
 389 710 309 589 289 560 c 0
 244 494 114 285 114 285 c 1
 114 285 268 95 314 35 c 0
 331 13 414 -115 414 -115 c 1
 315 -214 l 1
 286 -185 l 1
 286 -185 203 -57 186 -35 c 0
 140 25 -14 215 -14 215 c 1
 -14 215 116 424 161 490 c 0
 181 519 261 640 261 640 c 1
 360 739 l 1
EndSplineSet
EndChar
StartChar: FleuronRight
Encoding: 10087 10087 956
Width: 800
Flags: W
HStem: -64 21G<120 160> -39 553<376.417 491.973> 544 20G<165 205>
LayerCount: 2
Back
SplineSet
50 150 m 29
 75 200 l 29
 325 300 l 1053
175 0 m 29
 150 25 l 29
 175 475 l 29
 150 500 l 1053
750 350 m 5
 750 350 622 25 450 25 c 31
 374 25 300 74 300 150 c 31
 300 212 425 250 425 250 c 5
 425 250 300 288 300 350 c 31
 300 405 351 450 400 450 c 7
 473 450 506 386 550 325 c 12
 579 285 576 225 625 225 c 7
 667 225 725 325 725 325 c 1029
EndSplineSet
Fore
SplineSet
661 290 m 1
 785 414 l 1
 814 385 l 1
 814 385 807 367 794 340 c 0
 768 286 719 195 656 132 c 2
 557 33 l 2
 557 32 l 0
 515 -10 467 -39 415 -39 c 0
 371 -39 328 -23 299 6 c 2
 270 35 l 2
 269 36 l 0
 248 57 236 83 236 115 c 0
 236 131 244 146 257 159 c 2
 317 219 l 1
 308 225 299 231 291 238 c 1
 290 236 l 1
 222 209 l 1
 214 60 l 1
 239 35 l 1
 140 -64 l 1
 86 -10 l 1
 95 158 l 1
 82 153 l 1
 15 86 l 1
 -14 115 l 1
 11 165 l 1
 101 255 l 1
 111 440 l 2
 112 453 93 458 86 465 c 1
 185 564 l 1
 239 510 l 1
 228 311 l 1
 236 314 l 2
 236 315 l 0
 236 342 248 366 266 384 c 2
 365 483 l 2
 384 502 410 514 435 514 c 0
 470 514 497 499 519 477 c 2
 548 448 l 2
 572 424 591 391 614 360 c 0
 629 339 636 311 646 291 c 0
 650 290 655 289 660 289 c 0
 661 289 661 290 661 290 c 1
EndSplineSet
EndChar
StartChar: bracketwhiteright
Encoding: 10215 10215 919
Width: 400
Flags: W
HStem: -214 128<85 154 196 236> 636 128<85 154 196 236>
VStem: 154 42<-86 636> 236 128<-86 636>
LayerCount: 2
Back
SplineSet
175 650 m 25
 175 -100 l 1049
50 700 m 25
 300 700 l 25
 300 -150 l 25
 50 -150 l 1033
EndSplineSet
Fore
SplineSet
-14 665 m 1
 85 764 l 1
 335 764 l 1
 364 735 l 1
 364 -115 l 1
 265 -214 l 1
 15 -214 l 1
 -14 -185 l 1
 85 -86 l 1
 154 -86 l 1
 154 636 l 1
 15 636 l 1
 -14 665 l 1
196 -86 m 1
 236 -86 l 1
 236 636 l 1
 196 636 l 1
 196 -86 l 1
EndSplineSet
EndChar
StartChar: ruslst
Encoding: 11789 11789 903
Width: 300
Flags: W
VStem: -14 328
LayerCount: 2
Back
SplineSet
50 450 m 25
 250 700 l 1049
EndSplineSet
Fore
SplineSet
15 386 m 1
 -14 415 l 1
 186 665 l 1
 285 764 l 1
 314 735 l 1
 114 485 l 1
 15 386 l 1
EndSplineSet
EndChar
StartChar: ramus
Encoding: 11801 11801 911
Width: 600
Flags: W
HStem: -214 21G<45 85> 550 20G<234 274>
VStem: 11 128<151.121 315> 155 128<370.266 471>
LayerCount: 2
Back
SplineSet
360 662 m 1
 360 662 360 625 360 600 c 27
 360 551 395 475 395 475 c 1
 395 475 485 516 535 550 c 24
 555 564 572 588 572 588 c 1025
75 350 m 1
 75 350 75 274 75 225 c 27
 75 127 154 -25 154 -25 c 1
 154 -25 326 57 425 125 c 24
 465 153 500 200 500 200 c 1025
219 506 m 1
 219 506 219 449 219 412 c 27
 219 339 275 225 275 225 c 1
 275 225 407 287 481 338 c 24
 511 359 538 394 538 394 c 1025
100 -150 m 25
 500 700 l 1049
EndSplineSet
Fore
SplineSet
65 -214 m 1
 36 -185 l 1
 93 -63 l 1
 90 -60 l 1
 90 -60 11 92 11 190 c 2
 11 315 l 1
 110 414 l 1
 139 385 l 1
 139 260 l 2
 139 215 156 157 174 109 c 1
 212 189 l 1
 211 190 l 1
 211 190 155 304 155 377 c 2
 155 471 l 1
 254 570 l 1
 283 541 l 1
 283 447 l 2
 283 424 289 396 297 369 c 1
 331 441 l 1
 327 450 296 519 296 565 c 2
 296 627 l 1
 395 726 l 1
 424 697 l 1
 424 639 l 1
 436 665 l 1
 535 764 l 1
 564 735 l 1
 484 565 l 1
 511 579 543 596 567 612 c 1
 607 652 l 1
 636 623 l 1
 636 623 628 612 616 600 c 2
 517 501 l 2
 512 496 506 490 500 486 c 0
 479 472 452 457 427 444 c 1
 367 317 l 1
 412 340 473 373 516 402 c 0
 517 403 520 405 520 405 c 2
 573 458 l 1
 602 429 l 1
 602 429 591 415 575 399 c 2
 476 300 l 2
 467 291 457 282 446 274 c 0
 408 247 353 218 310 196 c 1
 251 70 l 1
 310 100 399 147 460 189 c 0
 474 199 518 247 535 264 c 1
 564 235 l 1
 564 235 549 214 527 192 c 2
 428 93 l 2
 417 82 403 70 390 61 c 0
 333 22 253 -22 194 -52 c 1
 164 -115 l 1
 65 -214 l 1
EndSplineSet
EndChar
StartChar: rlslst
Encoding: 11804 11804 904
Width: 300
Flags: W
HStem: -214 21G<195 235>
VStem: -14 328
LayerCount: 2
Back
SplineSet
50 100 m 25
 250 -150 l 1049
EndSplineSet
Fore
SplineSet
85 164 m 1
 114 135 l 1
 314 -115 l 1
 215 -214 l 1
 186 -185 l 1
 -14 65 l 1
 85 164 l 1
EndSplineSet
EndChar
StartChar: llslst
Encoding: 11805 11805 905
Width: 300
Flags: W
HStem: -214 21G<-5 35>
VStem: -14 328
LayerCount: 2
Back
SplineSet
50 -150 m 25
 250 100 l 1049
EndSplineSet
Fore
SplineSet
15 -214 m 1
 -14 -185 l 1
 186 65 l 1
 285 164 l 1
 314 135 l 1
 114 -115 l 1
 15 -214 l 1
EndSplineSet
EndChar
StartChar: barquillleft
Encoding: 11808 11808 920
Width: 300
Flags: W
HStem: -214 21G<45 85>
VStem: 36 128<-115 236 364 665>
LayerCount: 2
Back
SplineSet
250 300 m 25
 100 300 l 1049
100 700 m 25
 100 -150 l 1049
EndSplineSet
Fore
SplineSet
135 764 m 1
 164 735 l 1
 164 364 l 1
 285 364 l 1
 314 335 l 1
 215 236 l 1
 164 236 l 1
 164 -115 l 1
 65 -214 l 1
 36 -185 l 1
 36 265 l 1
 36 665 l 1
 135 764 l 1
EndSplineSet
EndChar
StartChar: barquillright
Encoding: 11809 11809 921
Width: 300
Flags: W
HStem: -214 21G<145 185>
VStem: 136 128<-115 236 364 665>
LayerCount: 2
Back
SplineSet
50 300 m 25
 200 300 l 1049
200 700 m 25
 200 -150 l 1049
EndSplineSet
Fore
SplineSet
235 764 m 1
 264 735 l 1
 264 335 l 1
 264 -115 l 1
 165 -214 l 1
 136 -185 l 1
 136 236 l 1
 15 236 l 1
 -14 265 l 1
 85 364 l 1
 136 364 l 1
 136 665 l 1
 235 764 l 1
EndSplineSet
EndChar
StartChar: brackettopleft
Encoding: 11810 11810 922
Width: 300
Flags: W
VStem: 36 128<335 636>
LayerCount: 2
Back
SplineSet
250 700 m 25
 100 700 l 17
 100 300 l 1025
EndSplineSet
Fore
SplineSet
314 735 m 1
 215 636 l 1
 164 636 l 1
 164 335 l 1
 65 236 l 1
 36 265 l 1
 36 665 l 1
 135 764 l 1
 285 764 l 1
 314 735 l 1
EndSplineSet
EndChar
StartChar: brackettopright
Encoding: 11811 11811 923
Width: 300
Flags: W
VStem: 136 128<335 636>
LayerCount: 2
Back
SplineSet
50 700 m 25
 200 700 l 17
 200 300 l 1025
EndSplineSet
Fore
SplineSet
-14 665 m 1
 85 764 l 1
 235 764 l 1
 264 735 l 1
 264 335 l 1
 165 236 l 1
 136 265 l 1
 136 636 l 1
 15 636 l 1
 -14 665 l 1
EndSplineSet
EndChar
StartChar: Ubracketleft
Encoding: 11814 11814 912
Width: 500
Flags: W
HStem: -64 128<245.487 415> 336 128<246.362 415>
VStem: 36 128<145.057 255.774>
LayerCount: 2
Back
SplineSet
450 400 m 1
 300 400 l 26
 190 400 100 310 100 200 c 27
 100 90 190 0 300 0 c 26
 450 0 l 1025
EndSplineSet
Fore
SplineSet
514 435 m 1
 415 336 l 1
 265 336 l 2
 235 336 207 330 182 318 c 1
 170 293 164 265 164 235 c 0
 164 187 181 143 209 109 c 1
 243 81 287 64 335 64 c 2
 485 64 l 1
 514 35 l 1
 415 -64 l 1
 265 -64 l 2
 210 -64 160 -41 124 -5 c 2
 95 24 l 2
 59 60 36 110 36 165 c 0
 36 220 58 270 94 306 c 2
 95 306 l 2
 194 405 l 2
 230 441 280 464 335 464 c 2
 485 464 l 1
 514 435 l 1
EndSplineSet
EndChar
StartChar: Ubracketright
Encoding: 11815 11815 913
Width: 500
Flags: W
HStem: -64 128<85 255.751> 336 128<85 254.513>
VStem: 336 128<145.986 254.943>
LayerCount: 2
Back
SplineSet
50 400 m 1
 200 400 l 26
 310 400 400 310 400 200 c 27
 400 90 310 0 200 0 c 26
 50 0 l 1025
EndSplineSet
Fore
SplineSet
-14 365 m 1
 85 464 l 1
 235 464 l 2
 290 464 340 441 376 405 c 2
 405 376 l 2
 441 340 464 290 464 235 c 0
 464 180 441 130 405 94 c 2
 306 -5 l 2
 306 -6 l 2
 270 -42 220 -64 165 -64 c 2
 15 -64 l 1
 -14 -35 l 1
 85 64 l 1
 235 64 l 2
 265 64 293 70 318 82 c 1
 330 107 336 135 336 165 c 0
 336 213 319 257 291 291 c 1
 257 319 213 336 165 336 c 2
 15 336 l 1
 -14 365 l 1
EndSplineSet
EndChar
StartChar: a_u
Encoding: 42807 42807 344
Width: 600
Flags: W
HStem: -64 21G<120 160 320 360 470 510> 444 20G<190 310 480 520> 444 20G<190 310 480 520>
VStem: 236 128<110 161 297 317> 436 128<90 330>
AnchorPoint: "blwmark" 300 0 basechar 0
AnchorPoint: "abvmark" 300 500 basechar 0
LayerCount: 2
Back
SplineSet
300 125 m 9
 175 0 l 1
 100 75 l 1
 100 175 l 1
 175 250 l 1
 175 250 193.964297096 225 250 225 c 3
 269.004218286 225 300 225 300 225 c 1033
575 50 m 25
 525 0 l 1
 500 25 l 17
 500 365 l 1025
535 330 m 25
 465 400 l 1049
500 125 m 25
 375 0 l 25
 300 75 l 1
 300 375 l 17
 175 400 l 1
 100 325 l 1
 125 250 l 1033
EndSplineSet
Fore
SplineSet
610 114 m 1xd8
 639 85 l 1
 490 -64 l 1
 436 -10 l 1
 436 32 l 1
 340 -64 l 1
 240 36 l 1
 140 -64 l 1
 36 40 l 1
 36 140 l 1
 86 190 l 1
 61 215 l 1
 36 290 l 1
 210 464 l 1
 335 439 l 1
 364 410 l 1
 364 260 l 1
 364 160 l 1
 364 110 l 1
 410 64 l 1
 436 90 l 1
 436 330 l 1
 401 365 l 1
 500 464 l 1
 535 429 l 1
 564 400 l 1
 599 365 l 1
 564 330 l 1
 564 160 l 1
 564 68 l 1
 610 114 l 1xd8
236 90 m 1
 236 161 l 1
 215 161 l 2
 192 161 176 165 164 170 c 1
 164 110 l 1
 210 64 l 1
 236 90 l 1
236 297 m 1
 236 317 l 1
 174 329 l 1
 187 291 l 1
 210 314 l 1
 214 310 l 2
 218 306 225 301 236 297 c 1
EndSplineSet
LCarets2: 1 300 
Ligature2: "Historic ligatures-1" a u
EndChar
StartChar: a_y
Encoding: 42813 42813 346
Width: 600
Flags: W
HStem: -214 128<282.5 377.5> -64 21G<120 159.823 345 385> 444 20G<190 310 480 520> 444 20G<190 310 480 520>
VStem: 436 128<-130 7 65 330>
AnchorPoint: "abvmark" 300 500 basechar 0
LayerCount: 2
Back
SplineSet
300 125 m 9
 175 0 l 1
 100 75 l 1
 100 175 l 1
 175 250 l 1
 175 250 193.964297096 225 250 225 c 3
 269.004218286 225 300 225 300 225 c 1033
535 330 m 29
 465 400 l 1053
250 -200 m 17
 250 -200 287 -150 325 -150 c 8
 369 -150 381 -200 425 -200 c 24
 460 -200 500 -150 500 -150 c 1
 500 365 l 1029
500 100 m 9
 400 0 l 25
 300 100 l 1
 300 375 l 17
 175 400 l 1
 100 325 l 1
 125 250 l 1033
EndSplineSet
Fore
SplineSet
215 -264 m 1xe8
 186 -235 l 1
 186 -235 192 -227 202 -217 c 2
 301 -118 l 2
 302 -117 l 0
 317 -102 338 -86 360 -86 c 0
 395 -86 410 -117 436 -130 c 1
 436 7 l 1
 365 -64 l 1
 252 49 l 1
 140 -64 l 1
 36 40 l 1
 36 140 l 1
 86 190 l 1
 61 215 l 1
 36 290 l 1
 210 464 l 1
 335 439 l 1
 364 410 l 1
 364 260 l 1
 364 160 l 1
 364 135 l 1
 435 64 l 1
 436 65 l 1
 436 330 l 1
 401 365 l 1
 500 464 l 1
 535 429 l 1
 564 400 l 1
 599 365 l 1
 564 330 l 1
 564 135 l 1
 564 -115 l 2
 564 -115 559 -120 551 -129 c 2
 550 -130 l 2
 451 -229 l 2
 436 -244 412 -264 390 -264 c 0
 346 -264 334 -214 290 -214 c 0
 275 -214 261 -221 248 -231 c 2
 215 -264 l 1xe8
236 90 m 1
 236 161 l 1
 215 161 l 2
 192 161 176 165 164 170 c 1
 164 110 l 1
 210 64 l 1
 236 90 l 1
236 297 m 1
 236 317 l 1
 174 329 l 1
 187 291 l 1
 210 314 l 1
 214 310 l 2
 218 306 225 301 236 297 c 1
EndSplineSet
LCarets2: 1 300 
Ligature2: "Historic ligatures-1" a y
EndChar
StartChar: kbar
Encoding: 42817 42817 862
Width: 400
Flags: W
HStem: -64 21G<80 120 280 320> 469 20G<280 320>
VStem: 36 128<70 210 286 411 539 555> 236 128<70 158>
AnchorPoint: "abvmark" 200 700 basechar 0
AnchorPoint: "blwmark" 200 0 basechar 0
LayerCount: 2
Back
SplineSet
200 475 m 25
 25 475 l 1049
265 425 m 25
 335 355 l 1049
65 625 m 25
 135 555 l 1049
65 625 m 25
 135 555 l 1049
100 200 m 1
 300 350 l 9
 300 390 l 1049
200 275 m 1
 300 200 l 1
 300 35 l 1025
265 70 m 25
 335 0 l 1049
65 70 m 25
 135 0 l 1049
65 625 m 25
 135 555 l 1049
100 590 m 9
 100 35 l 1049
EndSplineSet
Fore
SplineSet
135 654 m 1
 164 625 l 1
 199 590 l 1
 164 555 l 1
 164 539 l 1
 235 539 l 1
 264 510 l 1
 165 411 l 1
 164 411 l 1
 164 286 l 1
 236 340 l 1
 236 355 l 1
 201 390 l 1
 300 489 l 1
 335 454 l 1
 364 425 l 1
 399 390 l 1
 300 291 l 1
 285 306 l 1
 282 303 l 1
 335 264 l 1
 364 235 l 1
 364 70 l 1
 399 35 l 1
 300 -64 l 1
 265 -29 l 1
 236 -0 l 1
 201 35 l 1
 236 70 l 1
 236 158 l 1
 165 211 l 1
 164 210 l 1
 164 70 l 1
 199 35 l 1
 100 -64 l 1
 65 -29 l 1
 36 -0 l 1
 1 35 l 1
 36 70 l 1
 36 165 l 1
 36 411 l 1
 -10 411 l 1
 -39 440 l 1
 36 515 l 1
 36 555 l 1
 1 590 l 1
 100 689 l 1
 135 654 l 1
EndSplineSet
EndChar
StartChar: kslash
Encoding: 42819 42819 863
Width: 400
Flags: W
HStem: -64 21G<80 120 280 320> 469 20G<280 320>
VStem: 36 128<70 210 286 555>
AnchorPoint: "abvmark" 200 700 basechar 0
AnchorPoint: "blwmark" 200 0 basechar 0
LayerCount: 2
Back
SplineSet
375 250 m 25
 225 100 l 1049
265 425 m 25
 335 355 l 1049
65 625 m 25
 135 555 l 1049
65 625 m 25
 135 555 l 1049
100 200 m 1
 300 350 l 9
 300 390 l 1049
200 275 m 1
 300 200 l 1
 300 35 l 1025
265 70 m 25
 335 0 l 1049
65 70 m 25
 135 0 l 1049
65 625 m 25
 135 555 l 1049
100 590 m 9
 100 35 l 1049
EndSplineSet
Fore
SplineSet
135 654 m 1
 164 625 l 1
 199 590 l 1
 164 555 l 1
 164 286 l 1
 236 340 l 1
 236 355 l 1
 201 390 l 1
 300 489 l 1
 335 454 l 1
 364 425 l 1
 399 390 l 1
 300 291 l 1
 285 306 l 1
 282 303 l 1
 335 264 l 1
 348 251 l 1
 410 314 l 1
 439 285 l 1
 364 210 l 1
 364 70 l 1
 399 35 l 1
 300 -64 l 1
 265 -29 l 1
 236 -0 l 1
 201 35 l 1
 236 70 l 1
 236 82 l 1
 194 40 l 1
 199 35 l 1
 100 -64 l 1
 65 -29 l 1
 36 -0 l 1
 1 35 l 1
 36 70 l 1
 36 165 l 1
 36 555 l 1
 1 590 l 1
 100 689 l 1
 135 654 l 1
164 70 m 1
 165 69 l 1
 236 140 l 1
 236 158 l 1
 165 211 l 1
 164 210 l 1
 164 70 l 1
EndSplineSet
EndChar
StartChar: lbroken
Encoding: 42823 42823 574
Width: 350
Flags: W
HStem: -64 21G<230 270> 444 20G<265 305> 444 20G<265 305>
VStem: 36 128<343 555> 186 128<70 307>
LayerCount: 2
Back
SplineSet
215 70 m 29
 285 0 l 29
 355 70 l 1053
65 625 m 25
 135 555 l 1049
100 590 m 1
 100 250 l 1
 250 400 l 1
 250 35 l 1029
EndSplineSet
Fore
SplineSet
135 654 m 1xd8
 164 625 l 1
 199 590 l 1
 164 555 l 1
 164 343 l 1
 285 464 l 1
 314 435 l 1
 314 70 l 1
 320 64 l 1
 390 134 l 1
 419 105 l 1
 250 -64 l 1
 215 -29 l 1
 186 -0 l 1
 151 35 l 1
 186 70 l 1
 186 307 l 1
 65 186 l 1
 36 215 l 1
 36 555 l 1
 1 590 l 1
 100 689 l 1
 135 654 l 1xd8
EndSplineSet
EndChar
StartChar: lbar
Encoding: 42825 42825 865
Width: 200
Flags: W
HStem: -64 21G<80 120>
VStem: 36 128<70 411 539 555>
AnchorPoint: "abvmark" 100 700 basechar 0
AnchorPoint: "blwmark" 100 0 basechar 0
LayerCount: 2
Back
SplineSet
65 70 m 25
 135 0 l 25
 205 70 l 1049
65 625 m 29
 135 555 l 1053
100 590 m 13
 100 35 l 1049
175 475 m 25
 25 475 l 1049
EndSplineSet
Fore
SplineSet
135 654 m 1
 164 625 l 1
 199 590 l 1
 164 555 l 1
 164 539 l 1
 210 539 l 1
 239 510 l 1
 164 435 l 1
 164 70 l 1
 170 64 l 1
 240 134 l 1
 269 105 l 1
 100 -64 l 1
 65 -29 l 1
 36 -0 l 1
 1 35 l 1
 36 70 l 1
 36 411 l 1
 -10 411 l 1
 -39 440 l 1
 36 515 l 1
 36 555 l 1
 1 590 l 1
 100 689 l 1
 135 654 l 1
EndSplineSet
EndChar
StartChar: obiit
Encoding: 42827 42827 866
Width: 400
Flags: W
HStem: -64 21G<145 185> 161 128<164 228> 444 20G<215 255> 444 20G<215 255>
VStem: 36 128<98.1606 161>
LayerCount: 2
Back
SplineSet
25 225 m 25
 375 225 l 1049
200 400 m 25
 100 300 l 25
 100 100 l 25
 200 0 l 25
 300 100 l 25
 300 300 l 25
 200 400 l 25
EndSplineSet
Fore
SplineSet
165 336 m 1xc8
 164 335 l 1
 164 289 l 1
 228 289 l 1
 213 310 181 320 165 336 c 1xc8
36 161 m 1
 -10 161 l 1
 -39 190 l 1
 36 265 l 1
 60 289 l 1
 235 464 l 1xe8
 364 335 l 1
 364 289 l 1
 410 289 l 1
 439 260 l 1
 364 185 l 1
 364 135 l 1
 165 -64 l 1
 36 65 l 1
 36 161 l 1
164 161 m 1
 164 135 l 2
 164 97 214 85 235 64 c 1
 236 65 l 1
 236 161 l 1
 164 161 l 1
EndSplineSet
EndChar
StartChar: o_o
Encoding: 42831 42831 669
Width: 600
Flags: W
HStem: -64 21G<145 185 345 385> 444 20G<215 255 415 455> 444 20G<215 255 415 455>
VStem: 36 128<98.1606 265> 236 128<98.1606 301.839> 436 128<135 301.839>
CounterMasks: 1 1c
AnchorPoint: "blwmark" 300 0 basechar 0
AnchorPoint: "abvmark" 300 500 basechar 0
LayerCount: 2
Back
SplineSet
400 400 m 25
 300 300 l 25
 300 100 l 25
 400 0 l 25
 500 100 l 25
 500 300 l 25
 400 400 l 25
200 400 m 25
 100 300 l 25
 100 100 l 25
 200 0 l 25
 300 100 l 25
 300 300 l 25
 200 400 l 25
EndSplineSet
Fore
SplineSet
165 336 m 1x9c
 164 335 l 1
 164 135 l 2
 164 97 214 85 235 64 c 1
 236 65 l 1
 236 265 l 2
 236 303 186 315 165 336 c 1x9c
36 265 m 1
 235 464 l 1
 335 364 l 1
 435 464 l 1xdc
 564 335 l 1
 564 135 l 1
 365 -64 l 1
 265 36 l 1
 165 -64 l 1
 36 65 l 1
 36 265 l 1
364 135 m 2
 364 97 414 85 435 64 c 1
 436 65 l 1
 436 265 l 2
 436 303 386 315 365 336 c 1
 364 335 l 1
 364 135 l 2
EndSplineSet
LCarets2: 1 300 
Ligature2: "Historic ligatures-1" o o
EndChar
StartChar: pbar
Encoding: 42833 42833 868
Width: 400
Flags: W
HStem: -214 21G<45 85> 444 20G<80 120 215.294 255> 444 20G<80 120 215.294 255>
VStem: 36 128<-11 2 164 330> 236 128<132 303.305>
AnchorPoint: "abvmark" 200 500 basechar 0
LayerCount: 2
Back
SplineSet
50 50 m 1
 50 50 96 100 125 100 c 0
 206 100 250 0 250 0 c 9
 300 50 l 1
 300 300 l 25
 200 400 l 1
 100 300 l 1049
65 400 m 25
 135 330 l 1049
100 365 m 1
 100 -150 l 1025
200 -75 m 25
 25 -75 l 1049
EndSplineSet
Fore
SplineSet
264 -40 m 1xd8
 165 -139 l 1
 140 -139 l 1
 65 -214 l 1
 36 -185 l 1
 36 -139 l 1
 -10 -139 l 1
 -39 -110 l 1
 36 -35 l 1
 36 6 l 2
 33 3 30 0 27 -2 c 2
 15 -14 l 1
 -14 15 l 1
 -14 15 -12 17 -8 21 c 2
 36 65 l 1
 36 265 l 1
 36 330 l 1
 1 365 l 1
 100 464 l 1
 135 429 l 1
 164 400 l 1
 168 396 l 1
 235 464 l 1
 364 335 l 1
 364 85 l 1
 251 -27 l 1
 264 -40 l 1xd8
164 -11 m 1
 173 -11 l 1
 170 -7 167 -3 164 2 c 2
 164 -11 l 1
164 330 m 1
 164 164 l 1
 193 163 218 149 236 132 c 1
 236 265 l 2
 236 302 190 315 168 334 c 1
 164 330 l 1
EndSplineSet
EndChar
StartChar: qbar
Encoding: 42839 42839 871
Width: 400
Flags: W
HStem: -214 21G<245 285> -64 21G<145 185> 444 20G<215 255 315 355> 444 20G<215 255 315 355>
VStem: 36 128<135 265> 236 128<-11 7 63 303>
AnchorPoint: "abvmark" 225 500 basechar 0
LayerCount: 2
Back
SplineSet
375 -75 m 25
 200 -75 l 1049
300 100 m 9
 200 0 l 25
 100 100 l 25
 100 300 l 25
 200 400 l 1
 200 400 222 360 250 360 c 24
 278 360 300 400 300 400 c 9
 300 -150 l 1049
EndSplineSet
Fore
SplineSet
236 7 m 1xec
 165 -64 l 1
 36 65 l 1
 36 265 l 1
 235 464 l 1
 264 435 l 1
 264 435 266 432 268 429 c 0
 274 426 279 424 285 424 c 0
 289 424 295 426 298 427 c 2
 335 464 l 1
 364 435 l 1
 364 -11 l 1
 410 -11 l 1
 439 -40 l 1
 364 -115 l 1
 265 -214 l 1
 236 -185 l 1
 236 -139 l 1
 165 -139 l 1
 136 -110 l 1
 235 -11 l 1
 236 -11 l 1
 236 7 l 1xec
236 63 m 1
 236 303 l 1
 230 299 222 296 215 296 c 0
 203 296 193 304 184 312 c 0
 183 312 l 2
 164 331 l 1
 164 135 l 1
 236 63 l 1
EndSplineSet
EndChar
StartChar: rrotunda
Encoding: 42843 42843 96
Width: 300
Flags: W
HStem: -64 21G<145 185> 444 20G<115 155> 444 20G<115 155>
VStem: -14 328
AnchorPoint: "blwmark" 150 0 basechar 0
AnchorPoint: "abvmark" 150 500 basechar 0
LayerCount: 2
Back
SplineSet
250 50 m 25
 200 0 l 1
 100 200 l 25
 200 300 l 1
 100 400 l 1
 50 350 l 1049
EndSplineSet
Fore
SplineSet
285 114 m 1xd0
 314 85 l 1
 165 -64 l 1
 136 -35 l 1
 36 165 l 1
 136 265 l 1
 65 336 l 1
 15 286 l 1
 -14 315 l 1
 135 464 l 1
 264 335 l 1
 164 235 l 1
 245 74 l 1
 285 114 l 1xd0
EndSplineSet
EndChar
StartChar: y_y
Encoding: 42849 42849 834
Width: 600
Flags: W
HStem: -264 129<320.774 435.549> -214 128<82.5 227.007> -64 21G<145 185 345 385> 444 20G<80 120 280 320 480 520> 444 20G<80 120 280 320 480 520>
VStem: 36 128<135 330> 236 128<135 330> 436 128<-134.641 7 65 330>
CounterMasks: 1 07
AnchorPoint: "abvmark" 300 500 basechar 0
LayerCount: 2
Back
SplineSet
335 330 m 25
 265 400 l 1049
535 330 m 29
 465 400 l 1053
50 -200 m 17
 50 -200 87 -150 125 -150 c 8
 244 -150 306 -200 425 -200 c 24
 460 -200 500 -150 500 -150 c 1
 500 365 l 1029
500 100 m 9
 400 0 l 25
 300 100 l 1
 300 365 l 1049
135 330 m 25
 65 400 l 1049
300 100 m 9
 200 0 l 25
 100 100 l 1
 100 365 l 1049
EndSplineSet
Fore
SplineSet
15 -264 m 1xa7
 -14 -235 l 1
 -14 -235 -8 -227 2 -217 c 2
 101 -118 l 2
 102 -117 l 0
 117 -102 138 -86 160 -86 c 0x67
 271 -86 333 -129 436 -135 c 1
 436 7 l 1
 365 -64 l 1
 265 36 l 1
 165 -64 l 1
 36 65 l 1
 36 330 l 1
 1 365 l 1
 100 464 l 1
 135 429 l 1
 164 400 l 1
 199 365 l 1
 164 330 l 1
 164 135 l 1
 235 64 l 1
 236 65 l 1
 236 330 l 1
 201 365 l 1
 300 464 l 1
 335 429 l 1
 364 400 l 1
 399 365 l 1
 364 330 l 1
 364 135 l 1
 435 64 l 1
 436 65 l 1
 436 330 l 1
 401 365 l 1
 500 464 l 1
 535 429 l 1
 564 400 l 1
 599 365 l 1
 564 330 l 1
 564 135 l 1
 564 -115 l 2
 564 -115 559 -120 551 -129 c 2
 550 -130 l 2
 451 -229 l 2
 436 -244 412 -264 390 -264 c 0xb7
 271 -264 209 -214 90 -214 c 0x67
 75 -214 61 -221 48 -231 c 2
 15 -264 l 1xa7
EndSplineSet
LCarets2: 1 300 
Ligature2: "Historic ligatures-1" y y
EndChar
StartChar: thornbarbelow
Encoding: 42855 42855 875
Width: 400
Flags: W
HStem: -214 21G<45 85> 444 20G<215 255> 444 20G<215 255>
VStem: 36 128<-11 2 164 335 393 555> 236 128<132 265>
AnchorPoint: "abvmark" 200 700 basechar 0
LayerCount: 2
Back
SplineSet
200 -75 m 25
 25 -75 l 1049
100 300 m 25
 200 400 l 1
 300 300 l 1
 300 50 l 1
 250 0 l 1
 250 0 206 100 125 100 c 0
 96 100 50 50 50 50 c 1025
65 625 m 29
 135 555 l 1053
100 590 m 5
 100 -150 l 1025
EndSplineSet
Fore
SplineSet
135 654 m 1xd8
 164 625 l 1
 199 590 l 1
 164 555 l 1
 164 393 l 1
 235 464 l 1
 364 335 l 1
 364 85 l 1
 251 -27 l 1
 264 -40 l 1
 165 -139 l 1
 140 -139 l 1
 65 -214 l 1
 36 -185 l 1
 36 -139 l 1
 -10 -139 l 1
 -39 -110 l 1
 36 -35 l 1
 36 6 l 2
 33 3 30 0 27 -2 c 2
 15 -14 l 1
 -14 15 l 1
 -14 15 -12 17 -8 21 c 2
 36 65 l 1
 36 265 l 1
 36 555 l 1
 1 590 l 1
 100 689 l 1
 135 654 l 1xd8
164 335 m 1
 164 164 l 1
 193 163 217 149 236 132 c 1
 236 265 l 1
 165 336 l 1
 164 335 l 1
164 2 m 2
 164 -11 l 1
 173 -11 l 1
 170 -7 167 -3 164 2 c 2
EndSplineSet
EndChar
StartChar: is
Encoding: 42861 42861 957
Width: 450
Flags: W
HStem: -214 128<-92.5 2.5>
VStem: 61 128<-130 82 150 220 287 515> 261 128<435 515>
LayerCount: 2
Back
SplineSet
-125 -200 m 17
 -125 -200 -88 -150 -50 -150 c 8
 -6 -150 6 -200 50 -200 c 24
 85 -200 125 -150 125 -150 c 1
 125 550 l 1
 225 650 l 25
 325 550 l 25
 325 400 l 25
 0 50 l 1049
EndSplineSet
Fore
SplineSet
189 287 m 1
 261 365 l 1
 261 515 l 1
 190 586 l 1
 189 585 l 1
 189 287 l 1
61 82 m 1
 -35 -14 l 1
 -64 15 l 1
 61 150 l 1
 61 515 l 1
 260 714 l 1
 389 585 l 1
 389 435 l 1
 189 220 l 1
 189 -115 l 2
 189 -115 184 -120 176 -129 c 2
 175 -130 l 2
 76 -229 l 2
 61 -244 37 -264 15 -264 c 0
 -29 -264 -41 -214 -85 -214 c 0
 -100 -214 -114 -221 -127 -231 c 2
 -160 -264 l 1
 -189 -235 l 1
 -189 -235 -183 -227 -173 -217 c 2
 -74 -118 l 2
 -73 -117 l 0
 -58 -102 -37 -86 -15 -86 c 0
 20 -86 35 -117 61 -130 c 1
 61 82 l 1
EndSplineSet
EndChar
StartChar: dum
Encoding: 42865 42865 448
Width: 600
Flags: W
HStem: -214 21G<245 285> -64 21G<145 185 245 285 434.5 453.5>
VStem: 36 128<98.1606 265> 236 128<93 162 218 265>
AnchorPoint: "abvmark" 250 700 basechar 0
LayerCount: 2
Back
SplineSet
400 225 m 1
 450 200 l 1
 450 200 450 139 450 100 c 27
 450 3 300 -150 300 -150 c 1025
300 300 m 1
 200 400 l 25
 100 300 l 1
 100 100 l 25
 200 0 l 17
 300 100 l 1025
141 650 m 25
 140 650 100 628 100 600 c 27
 100 556 156 550 200 550 c 0
 244 550 300 505 300 450 c 18
 300 0 l 9
 350 50 l 17
 350 50 381 0 475 0 c 3
 531 0 550 50 550 50 c 1033
EndSplineSet
Fore
SplineSet
205 685 m 1
 166 646 l 2
 165 642 164 639 164 635 c 0
 164 631 164 627 165 624 c 0
 185 616 212 614 235 614 c 0
 258 614 285 602 305 582 c 2
 334 553 l 2
 334 552 l 0
 352 534 364 511 364 485 c 2
 364 335 l 1
 364 218 l 1
 435 289 l 1
 485 264 l 1
 514 235 l 1
 514 135 l 2
 514 113 506 89 495 64 c 1
 500 64 505 64 510 64 c 0
 522 64 532 67 541 70 c 2
 585 114 l 1
 614 85 l 1
 614 85 609 71 596 58 c 2
 497 -41 l 2
 485 -53 467 -64 440 -64 c 0
 429 -64 420 -63 411 -62 c 1
 385 -94 364 -115 364 -115 c 2
 265 -214 l 1
 236 -185 l 1
 236 -185 304 -116 348 -42 c 1
 337 -36 328 -29 323 -24 c 2
 314 -15 l 1
 265 -64 l 1
 236 -35 l 1
 236 7 l 1
 165 -64 l 1
 36 65 l 1
 36 265 l 1
 226 455 l 1
 224 459 222 463 219 467 c 0
 202 479 182 486 165 486 c 0
 133 486 95 489 76 508 c 2
 47 537 l 2
 40 544 36 553 36 565 c 0
 36 577 42 587 51 596 c 0
 52 597 l 2
 151 696 l 2
 162 707 175 714 176 714 c 2
 205 685 l 1
364 135 m 1
 364 93 l 1
 385 114 l 1
 386 113 l 1
 386 151 l 1
 365 161 l 1
 364 162 l 1
 364 135 l 1
236 65 m 1
 236 265 l 1
 165 336 l 1
 164 335 l 1
 164 135 l 2
 164 97 214 85 235 64 c 1
 236 65 l 1
EndSplineSet
EndChar
StartChar: lum
Encoding: 42866 42866 573
Width: 425
Flags: W
HStem: -214 21G<70 110> -64 21G<80 120 259.5 278>
VStem: 36 128<70 187 193 555>
LayerCount: 2
Back
SplineSet
225 225 m 1
 275 200 l 1
 275 200 275 139 275 100 c 27
 275 3 125 -150 125 -150 c 1025
375 50 m 17
 375 50 356 0 300 0 c 3
 206 0 185 50 185 50 c 9
 135 0 l 25
 65 70 l 1025
65 625 m 25
 135 555 l 1049
100 590 m 9
 100 35 l 1049
EndSplineSet
Fore
SplineSet
135 654 m 1
 164 625 l 1
 199 590 l 1
 164 555 l 1
 164 193 l 1
 260 289 l 1
 310 264 l 1
 339 235 l 1
 339 135 l 2
 339 113 331 89 320 64 c 1
 325 64 330 64 335 64 c 0
 347 64 356 66 366 70 c 1
 410 114 l 1
 439 85 l 1
 439 85 434 71 421 58 c 2
 322 -41 l 2
 321 -41 l 0
 309 -53 291 -64 265 -64 c 0
 254 -64 245 -63 236 -62 c 1
 210 -94 189 -115 189 -115 c 2
 90 -214 l 1
 61 -185 l 1
 61 -185 130 -115 174 -40 c 1
 169 -37 165 -33 162 -30 c 2
 148 -16 l 1
 100 -64 l 1
 65 -29 l 1
 36 -0 l 1
 1 35 l 1
 36 70 l 1
 36 555 l 1
 1 590 l 1
 100 689 l 1
 135 654 l 1
164 70 m 1
 170 64 l 1
 211 105 l 1
 211 151 l 1
 190 161 l 1
 164 187 l 1
 164 70 l 1
EndSplineSet
EndChar
StartChar: mum
Encoding: 42867 42867 587
Width: 825
Flags: W
HStem: -214 21G<470 510> -64 21G<80 120 280 320 480 520 659.5 678> 444 20G<80 120 240 280 440 480> 444 20G<80 120 240 280 440 480>
VStem: 36 128<70 310> 236 128<70 310> 436 128<70 187 193 319.643>
CounterMasks: 1 0e
LayerCount: 2
Back
SplineSet
500 35 m 1
 500 325 l 25
 425 400 l 1
 300 275 l 1041
265 70 m 9
 335 0 l 1041
300 35 m 1
 300 325 l 25
 225 400 l 1
 100 275 l 1041
65 70 m 9
 135 0 l 1041
135 330 m 9
 65 400 l 1041
100 365 m 9
 100 35 l 1025
625 225 m 1
 675 200 l 1
 675 200 675 139 675 100 c 27
 675 3 525 -150 525 -150 c 1025
775 50 m 17
 775 50 756 0 700 0 c 3
 606 0 585 50 585 50 c 9
 535 0 l 25
 465 70 l 1025
EndSplineSet
Fore
SplineSet
810 114 m 1xee
 839 85 l 1
 839 85 834 71 821 58 c 2
 722 -41 l 2
 721 -41 l 0
 709 -53 691 -64 665 -64 c 0
 654 -64 645 -63 636 -62 c 1
 610 -94 589 -115 589 -115 c 2
 490 -214 l 1
 461 -185 l 1
 461 -185 530 -115 574 -40 c 1
 569 -37 565 -33 562 -30 c 2
 548 -16 l 1
 500 -64 l 1
 465 -29 l 1
 436 -0 l 1
 401 35 l 1
 436 70 l 1
 436 290 l 2
 436 314 403 323 390 336 c 1
 364 310 l 1
 364 70 l 1
 399 35 l 1
 300 -64 l 1
 265 -29 l 1
 236 -0 l 1
 201 35 l 1
 236 70 l 1
 236 240 l 1
 236 290 l 2
 236 314 203 323 190 336 c 1
 164 310 l 1
 164 70 l 1
 199 35 l 1
 100 -64 l 1
 65 -29 l 1
 36 -0 l 1
 1 35 l 1
 36 70 l 1
 36 240 l 1
 36 330 l 1
 1 365 l 1
 100 464 l 1
 135 429 l 1
 164 400 l 1
 180 384 l 1
 260 464 l 1
 360 364 l 1
 460 464 l 1
 564 360 l 1
 564 193 l 1
 660 289 l 1
 710 264 l 1
 739 235 l 1
 739 135 l 2
 739 113 731 89 720 64 c 1
 725 64 730 64 735 64 c 0
 747 64 756 66 766 70 c 1
 810 114 l 1xee
611 105 m 1
 611 151 l 1
 590 161 l 1
 564 187 l 1
 564 70 l 1
 570 64 l 1
 611 105 l 1
EndSplineSet
EndChar
StartChar: rum
Encoding: 42869 42869 704
Width: 450
Flags: W
HStem: -214 21G<95 131> -64 21G<80 120> 444 20G<80 120 415 455> 464 105G<80 120 265 325 415 455>
VStem: 36 128<70 330> 236 128<111.783 298.763>
LayerCount: 2
Back
SplineSet
250 525 m 1
 300 500 l 1
 300 500 300 406 300 250 c 3
 300 -37.2507615308 150 -150 150 -150 c 1025
400 400 m 17
 400 400 381 350 325 350 c 3
 231 350 200 400 200 400 c 9
 100 300 l 1025
65 70 m 25
 135 0 l 1049
65 400 m 25
 135 330 l 1049
100 365 m 9
 100 35 l 1025
EndSplineSet
Fore
SplineSet
135 429 m 1xec
 164 400 l 1
 168 396 l 1
 226 455 l 1
 215 461 l 1
 186 490 l 1
 285 589 l 1
 335 564 l 1
 364 535 l 1
 364 414 l 1
 374 414 382 417 391 420 c 2
 435 464 l 1
 464 435 l 1
 464 435 459 421 446 408 c 2
 364 326 l 1
 364 285 l 2
 364 57 269 -61 230 -100 c 2
 131 -199 l 2
 121 -209 115 -214 115 -214 c 1
 86 -185 l 1
 120 -151 l 1
 164 -99 236 16 236 215 c 2
 236 292 l 1
 203 300 183 316 173 326 c 2
 167 333 l 1
 164 330 l 1
 164 70 l 1
 199 35 l 1
 100 -64 l 1
 65 -29 l 1
 36 -0 l 1
 1 35 l 1
 36 70 l 1
 36 265 l 1
 36 330 l 1
 1 365 l 1
 100 464 l 1
 135 429 l 1xec
EndSplineSet
EndChar
StartChar: tum
Encoding: 42871 42871 728
Width: 600
Flags: W
HStem: -214 21G<245 281> -64 21G<120 160> 286 128<191.402 386> 444 170G<140 180 415 475 576 605> 444 20G<576 605>
VStem: 61 128<64.2805 294 440 515> 386 128<111.783 289 428 451>
LayerCount: 2
Back
SplineSet
50 400 m 1049,0,-1
125 550 m 1,2,-1
 125 50 l 1,3,-1
 175 0 l 1,4,-1
 275 100 l 1025
400 525 m 1,0,-1
 450 500 l 1,1,2
 450 500 450 406 450 250 c 3,3,4
 450 -37.2509765625 300 -150 300 -150 c 1025
550 400 m 1,6,7
 550 400 518 350 350 350 c 3,8,9
 173 350 50 400 50 400 c 1025,10,-1
EndSplineSet
Fore
SplineSet
585 464 m 1xee
 614 435 l 1
 614 435 613 434 610 431 c 2
 514 334 l 1
 514 285 l 2
 514 57 419 -61 380 -100 c 2
 281 -199 l 2
 271 -209 265 -214 265 -214 c 1
 236 -185 l 1
 270 -151 l 1
 314 -99 386 16 386 215 c 2
 386 289 l 1
 366 287 342 286 315 286 c 0
 269 286 227 289 189 294 c 1
 189 85 l 2
 189 75 204 70 210 64 c 1
 310 164 l 1
 339 135 l 1
 140 -64 l 1
 61 15 l 1
 61 321 l 1
 31 329 15 336 15 336 c 2
 -14 365 l 1
 61 440 l 1
 61 515 l 1
 160 614 l 1xf6
 189 585 l 1
 189 434 l 1
 240 423 307 414 385 414 c 0
 386 414 l 2
 386 451 l 1
 365 461 l 1
 336 490 l 1
 435 589 l 1
 485 564 l 1
 514 535 l 1
 514 428 l 1
 548 437 566 447 576 455 c 2
 585 464 l 1xee
EndSplineSet
EndChar
StartChar: um
Encoding: 42872 42872 958
Width: 400
Flags: W
HStem: -214 21G<45 85> -64 21G<-5 27 164 185> 444 20G<215 255 376 405> 444 20G<215 255 376 405>
LayerCount: 2
Back
SplineSet
100 -150 m 25
 100 -150 100 -58 100 0 c 3
 100 141 350 400 350 400 c 17
 350 400 303 350 275 350 c 0
 231 350 200 400 200 400 c 9
 100 300 l 1
 100 240 l 1
 300 160 l 1
 300 100 l 1
 200 0 l 17
 200 0 154 50 125 50 c 24
 96 50 50 0 50 0 c 1025
EndSplineSet
Fore
SplineSet
219 290 m 1xc0
 205 295 192 305 183 314 c 2
 164 333 l 1
 164 292 l 1
 207 275 l 1
 211 280 215 285 219 290 c 1xc0
180 108 m 1
 197 99 215 83 226 73 c 0
 227 72 228 71 229 70 c 2
 235 64 l 1
 236 65 l 1
 236 108 l 1
 188 127 l 1
 185 121 182 114 180 108 c 1
65 -214 m 1
 36 -185 l 1
 36 -44 l 2
 33 -47 29 -50 27 -52 c 2
 15 -64 l 1
 -14 -35 l 1
 -14 -35 -12 -33 -8 -29 c 2
 48 28 l 1
 58 57 75 89 94 120 c 0
 101 132 108 143 116 155 c 1
 65 176 l 1
 36 205 l 1
 36 265 l 1
 235 464 l 1
 264 435 l 1
 264 435 265 433 268 429 c 0
 279 421 294 414 310 414 c 0
 330 414 361 441 376 455 c 2
 385 464 l 1xe0
 414 435 l 1
 412 433 408 430 403 424 c 0
 383 402 336 350 289 288 c 0
 280 277 272 265 263 253 c 1
 335 224 l 1
 364 195 l 1
 364 135 l 1
 165 -64 l 1
 164 -63 l 1
 164 -115 l 1
 65 -214 l 1
EndSplineSet
EndChar
StartChar: q_etfin
Encoding: 59583 59583 966
Width: 600
Flags: W
HStem: 444 20G<215 255 315 355 390 435> 444 20G<215 255 315 355 390 435>
VStem: 36 128<135 265> 236 128<-73 7 63 70 193 303>
LayerCount: 2
Back
SplineSet
300 100 m 9
 200 0 l 25
 100 100 l 25
 100 300 l 25
 200 400 l 1
 200 400 222 360 250 360 c 24
 278 360 300 400 300 400 c 9
 300 -150 l 1049
300 325 m 29
 375 400 l 5
 500 300 l 5
 350 150 l 5
 500 100 l 5
 500 0 l 5
 250 -200 l 1029
EndSplineSet
Fore
SplineSet
236 7 m 1xb0
 165 -64 l 1
 36 65 l 1
 36 265 l 1
 235 464 l 1
 264 435 l 1
 264 435 266 432 268 429 c 0
 274 426 279 424 285 424 c 0
 289 424 295 426 298 427 c 2
 335 464 l 1
 364 435 l 1
 364 418 l 1
 410 464 l 1
 535 364 l 1
 564 335 l 1
 428 199 l 1
 535 164 l 1
 564 135 l 1
 564 35 l 1
 465 -64 l 1
 215 -264 l 1
 186 -235 l 1
 236 -185 l 1
 236 7 l 1xb0
364 -73 m 1
 436 -15 l 1
 436 46 l 1
 364 70 l 1
 364 -73 l 1
364 193 m 1
 433 262 l 1
 364 317 l 1
 364 193 l 1
236 290 m 1
 236 303 l 1
 230 299 222 296 215 296 c 0
 203 296 193 304 184 312 c 0
 183 312 l 2
 164 331 l 1
 164 135 l 1
 236 63 l 1
 236 290 l 1
EndSplineSet
LCarets2: 1 300 
Ligature2: "Ligatures-1" q etfin
EndChar
StartChar: g_p
Encoding: 60114 60114 501
Width: 600
Flags: W
HStem: -214 128<82.5 177.5> -64 21G<120 160 195 227 364 385> 444 20G<215 255 315 355 415 455> 444 20G<215 255 315 355 415 455>
VStem: 36 128<135 265> 236 128<-115 -63 105.765 304> 436 128<135 301.839>
CounterMasks: 1 0e
LayerCount: 2
Back
SplineSet
250 0 m 1
 250 0 296 50 325 50 c 0
 354 50 400 0 400 0 c 9
 500 100 l 1
 500 300 l 25
 400 400 l 1
 300 300 l 1049
50 -200 m 17
 50 -200 87 -150 125 -150 c 8
 169 -150 181 -200 225 -200 c 24
 260 -200 300 -150 300 -150 c 9
 300 400 l 1
 300 400 275 360 250 360 c 24
 225 360 200 400 200 400 c 1
 100 300 l 25
 100 100 l 25
 175 0 l 1
 300 125 l 1049
300 -150 m 9
 350 -200 l 1025
EndSplineSet
Fore
SplineSet
236 304 m 1xce
 229 299 222 296 215 296 c 0
 204 296 192 304 183 313 c 2
 164 333 l 1
 164 135 l 1
 214 68 l 1
 236 90 l 1
 236 265 l 1
 236 304 l 1xce
236 32 m 1
 140 -64 l 1
 111 -35 l 1
 36 65 l 1
 36 265 l 1
 235 464 l 1
 264 435 l 1
 264 435 266 433 268 430 c 0
 273 427 279 424 285 424 c 0
 290 424 293 424 298 427 c 2
 335 464 l 1
 364 435 l 1
 364 393 l 1
 435 464 l 1xee
 564 335 l 1
 564 135 l 1
 365 -64 l 1
 364 -63 l 1
 364 -115 l 1
 414 -165 l 1
 315 -264 l 1
 266 -215 l 1
 251 -229 l 2
 236 -244 212 -264 190 -264 c 0
 146 -264 134 -214 90 -214 c 0
 75 -214 61 -221 48 -231 c 2
 15 -264 l 1
 -14 -235 l 1
 -14 -235 -8 -227 2 -217 c 2
 101 -118 l 2
 102 -117 l 0
 117 -102 138 -86 160 -86 c 0
 195 -86 210 -117 236 -130 c 1
 236 -44 l 2
 233 -47 230 -50 227 -52 c 2
 215 -64 l 1
 186 -35 l 1
 186 -35 188 -33 192 -29 c 2
 236 15 l 1
 236 32 l 1
364 335 m 1
 364 114 l 1
 386 111 416 83 429 70 c 2
 435 64 l 1
 436 65 l 1
 436 265 l 2
 436 303 386 315 365 336 c 1
 364 335 l 1
EndSplineSet
LCarets2: 1 300 
Ligature2: "Historic ligatures-1" g p
EndChar
StartChar: longs_longs
Encoding: 60326 60326 327
Width: 500
GlyphClass: 3
Flags: W
HStem: -214 128<-92.5 -3.5> 536 21G<453.5 479>
VStem: 61 128<-104.365 515> 261 128<-115 517.891>
LayerCount: 2
Back
SplineSet
125 -150 m 1
 156 -150 218 -200 250 -200 c 0
 278 -200 325 -150 325 -150 c 1
 325 550 l 1
 425 650 l 17
 425 650 456 600 500 600 c 24
 528 600 575 650 576 650 c 1033
-125 -200 m 17
 -125 -200 -88 -150 -50 -150 c 8
 -19 -150 18 -200 50 -200 c 24
 78 -200 125 -150 125 -150 c 1
 125 550 l 1
 225 650 l 1
 225 650 281 550 325 550 c 1025
EndSplineSet
Fore
SplineSet
-160 -264 m 1
 -189 -235 l 1
 -189 -235 -183 -227 -173 -217 c 2
 -74 -118 l 2
 -73 -117 l 0
 -58 -102 -37 -86 -15 -86 c 0
 8 -86 36 -116 61 -129 c 1
 61 515 l 1
 260 714 l 1
 289 685 l 1
 289 685 307 654 329 627 c 0
 340 619 350 614 360 614 c 1
 460 714 l 1
 489 685 l 1
 489 685 490 683 493 679 c 0
 505 671 519 664 535 664 c 0
 563 664 610 714 611 714 c 2
 640 685 l 1
 541 586 l 2
 540 586 493 536 465 536 c 0
 442 536 422 550 409 563 c 0
 408 564 l 2
 389 583 l 1
 389 -115 l 2
 389 -115 388 -116 385 -119 c 2
 286 -218 l 2
 274 -230 238 -264 215 -264 c 0
 183 -264 121 -214 90 -214 c 1
 86 -218 l 2
 74 -230 38 -264 15 -264 c 0
 -17 -264 -54 -214 -85 -214 c 0
 -100 -214 -114 -221 -127 -231 c 2
 -160 -264 l 1
261 498 m 1
 255 502 250 507 245 512 c 2
 216 541 l 2
 206 551 197 562 189 572 c 1
 189 -94 l 1
 212 -104 239 -121 261 -130 c 1
 261 498 l 1
EndSplineSet
LCarets2: 1 300 
Ligature2: "Ligatures-1" longs longs
EndChar
StartChar: longs_longs_i
Encoding: 60327 60327 331
Width: 650
GlyphClass: 3
Flags: W
HStem: -214 128<-92.5 -3.5> -64 21G<530 570> 444 20G<530 570> 444 20G<530 570> 486 21G<495 535>
VStem: 61 128<-104.365 515> 261 128<-115 517.891> 486 128<70 330>
LayerCount: 2
Back
SplineSet
125 -150 m 1
 156 -150 218 -200 250 -200 c 0
 278 -200 325 -150 325 -150 c 1
 325 550 l 1
 425 650 l 17
 425 650 500 600 600 600 c 1
 550 550 l 1025
-125 -200 m 1
 -125 -200 -88 -150 -50 -150 c 8
 -19 -150 18 -200 50 -200 c 24
 78 -200 125 -150 125 -150 c 1
 125 550 l 1
 225 650 l 1
 225 650 281 550 325 550 c 1025
515 400 m 25
 585 330 l 1025
550 365 m 9
 550 35 l 1029
515 70 m 29
 585 0 l 29
 655 70 l 1053
EndSplineSet
Fore
SplineSet
585 429 m 1xef
 614 400 l 1
 649 365 l 1
 614 330 l 1
 614 70 l 1
 620 64 l 1
 690 134 l 1
 719 105 l 1
 550 -64 l 1
 515 -29 l 1
 486 -0 l 1
 451 35 l 1
 486 70 l 1
 486 330 l 1
 451 365 l 1
 550 464 l 1
 585 429 l 1xef
-160 -264 m 1
 -189 -235 l 1
 -189 -235 -183 -227 -173 -217 c 2
 -74 -118 l 2
 -73 -117 l 0
 -58 -102 -37 -86 -15 -86 c 0
 8 -86 36 -116 61 -129 c 1
 61 515 l 1
 260 714 l 1
 289 685 l 1
 289 685 307 654 329 627 c 0
 340 619 350 614 360 614 c 1
 460 714 l 1
 460 714 535 664 635 664 c 1
 664 635 l 1
 515 486 l 1
 486 515 l 1
 512 541 l 1
 440 553 390 586 390 586 c 1
 389 585 l 1
 389 -115 l 2
 389 -115 388 -116 385 -119 c 2
 286 -218 l 2
 274 -230 238 -264 215 -264 c 0
 183 -264 121 -214 90 -214 c 1
 86 -218 l 2
 74 -230 38 -264 15 -264 c 0
 -17 -264 -54 -214 -85 -214 c 0
 -100 -214 -114 -221 -127 -231 c 2
 -160 -264 l 1
261 498 m 1
 255 502 250 507 245 512 c 2
 216 541 l 2
 206 551 197 562 189 572 c 1
 189 -94 l 1
 212 -104 239 -121 261 -130 c 1
 261 498 l 1
EndSplineSet
LCarets2: 2 300 500 
Ligature2: "Ligatures-1" longs longs i
EndChar
StartChar: b_b
Encoding: 61122 61122 349
Width: 600
GlyphClass: 3
Flags: W
HStem: -64 21G<145 185 345 385> 444 20G<215 236 415 455> 444 20G<215 236 415 455>
VStem: 36 128<98.1606 337 393 555> 236 128<98.1606 302.223 464 555> 436 128<135 302.223>
CounterMasks: 1 1c
LayerCount: 2
Back
SplineSet
265 625 m 25
 335 555 l 1049
300 590 m 9
 300 100 l 25
 400 0 l 25
 500 100 l 25
 500 300 l 25
 400 400 l 1
 300 300 l 1049
65 625 m 25
 135 555 l 1049
100 590 m 9
 100 100 l 25
 200 0 l 25
 300 100 l 25
 300 300 l 25
 200 400 l 1
 100 300 l 1049
EndSplineSet
Fore
SplineSet
164 337 m 1x9c
 164 135 l 2
 164 97 214 85 235 64 c 1
 236 65 l 1
 236 265 l 2
 236 303 185 316 164 337 c 1x9c
164 393 m 1
 235 464 l 1
 236 463 l 1
 236 555 l 1
 201 590 l 1
 300 689 l 1
 335 654 l 1
 364 625 l 1
 399 590 l 1
 364 555 l 1
 364 393 l 1
 435 464 l 1xdc
 564 335 l 1
 564 135 l 1
 365 -64 l 1
 265 36 l 1
 165 -64 l 1
 36 65 l 1
 36 555 l 1
 1 590 l 1
 100 689 l 1
 135 654 l 1
 164 625 l 1
 199 590 l 1
 164 555 l 1
 164 393 l 1
364 335 m 1
 364 135 l 2
 364 97 414 85 435 64 c 1
 436 65 l 1
 436 265 l 2
 436 303 385 316 364 337 c 1
 364 335 l 1
EndSplineSet
LCarets2: 1 300 
Ligature2: "Historic ligatures-1" b b
EndChar
StartChar: f_r
Encoding: 61130 61130 352
Width: 550
GlyphClass: 3
Flags: W
HStem: -214 128<-92.5 -3.5> -64 21G<330 370> 336 128<189 280> 444 20G<465.294 505> 536 21G<253.5 279>
VStem: 61 128<-115 336 464 515> 286 128<70 330>
LayerCount: 2
Back
SplineSet
-125 -200 m 1
 -125 -200 -88 -150 -50 -150 c 8
 -19 -150 18 -200 50 -200 c 24
 78 -200 125 -150 125 -150 c 1
 125 550 l 1
 225 650 l 17
 225 650 256 600 300 600 c 24
 328 600 375 650 376 650 c 1025
50 400 m 1
 315 400 l 25
 385 330 l 1025
500 350 m 25
 450 400 l 25
 350 300 l 1049
315 70 m 25
 385 0 l 1049
350 365 m 9
 350 35 l 1025
EndSplineSet
Fore
SplineSet
385 429 m 1xde
 414 400 l 1
 418 396 l 1
 485 464 l 1xde
 564 385 l 1
 465 286 l 1
 417 334 l 1
 414 330 l 1
 414 70 l 1
 449 35 l 1
 350 -64 l 1
 315 -29 l 1
 286 -0 l 1
 251 35 l 1
 286 70 l 1
 286 265 l 1
 286 330 l 1
 280 336 l 1
 189 336 l 1
 189 -115 l 2
 189 -115 188 -116 185 -119 c 2
 86 -218 l 2
 74 -230 38 -264 15 -264 c 0
 -17 -264 -54 -214 -85 -214 c 0
 -100 -214 -114 -221 -127 -231 c 2
 -160 -264 l 1
 -189 -235 l 1
 -189 -235 -183 -227 -173 -217 c 2
 -74 -118 l 2
 -73 -117 l 0
 -58 -102 -37 -86 -15 -86 c 0
 8 -86 36 -116 61 -129 c 1
 61 336 l 1
 15 336 l 1
 -14 365 l 1
 61 440 l 1
 61 515 l 1
 260 714 l 1
 289 685 l 1
 289 685 290 683 293 679 c 0
 305 671 319 664 335 664 c 0
 363 664 410 714 411 714 c 2
 440 685 l 1
 341 586 l 2
 340 586 293 536 265 536 c 0
 242 536 222 550 209 563 c 0
 208 564 l 2
 189 583 l 1
 189 464 l 1xee
 350 464 l 1
 385 429 l 1xde
EndSplineSet
LCarets2: 1 300 
Ligature2: "Ligatures-1" f r
EndChar
StartChar: f_f_t
Encoding: 61134 61134 354
Width: 725
GlyphClass: 3
Flags: W
HStem: -214 128<-92.5 -3.5> -64 21G<520 560> 336 128<189 261 389 461 589 615>
VStem: 61 128<-104.365 336 464 515> 261 128<-115 336 464 517.891> 461 128<85 336 464 517.891>
CounterMasks: 1 1c
LayerCount: 2
Back
SplineSet
675 100 m 1
 575 0 l 1
 525 50 l 1
 525 550 l 1
 481 550 425 650 425 650 c 9
 325 550 l 1
 325 -150 l 1
 325 -150 278 -200 250 -200 c 0
 218 -200 156 -150 125 -150 c 1025
-125 -200 m 17
 -125 -200 -88 -150 -50 -150 c 8
 -19 -150 18 -200 50 -200 c 24
 78 -200 125 -150 125 -150 c 1
 125 550 l 1
 225 650 l 1
 225 650 281 550 325 550 c 1025
50 400 m 1
 650 400 l 1053
EndSplineSet
Fore
SplineSet
-160 -264 m 1
 -189 -235 l 1
 -189 -235 -183 -227 -173 -217 c 2
 -74 -118 l 2
 -73 -117 l 0
 -58 -102 -37 -86 -15 -86 c 0
 8 -86 36 -116 61 -129 c 1
 61 336 l 1
 15 336 l 1
 -14 365 l 1
 61 440 l 1
 61 515 l 1
 260 714 l 1
 289 685 l 1
 289 685 307 654 329 627 c 0
 340 619 350 614 360 614 c 1
 460 714 l 1
 489 685 l 1
 489 685 506 654 529 627 c 0
 539 619 550 614 560 614 c 1
 589 585 l 1
 589 464 l 1
 685 464 l 1
 714 435 l 1
 615 336 l 1
 589 336 l 1
 589 85 l 1
 610 64 l 1
 710 164 l 1
 739 135 l 1
 540 -64 l 1
 461 15 l 1
 461 336 l 1
 389 336 l 1
 389 -115 l 1
 389 -115 388 -116 385 -119 c 2
 286 -218 l 2
 274 -230 238 -264 215 -264 c 0
 183 -264 121 -214 90 -214 c 1
 86 -218 l 2
 74 -230 38 -264 15 -264 c 0
 -17 -264 -54 -214 -85 -214 c 0
 -100 -214 -114 -221 -127 -231 c 2
 -160 -264 l 1
189 464 m 1
 261 464 l 1
 261 498 l 1
 255 502 250 507 245 512 c 2
 216 541 l 2
 206 551 197 562 189 572 c 1
 189 464 l 1
189 336 m 1
 189 -94 l 1
 212 -104 239 -121 261 -130 c 1
 261 336 l 1
 189 336 l 1
389 464 m 1
 461 464 l 1
 461 498 l 1
 456 502 450 507 445 512 c 2
 416 541 l 2
 415 541 l 0
 406 550 396 562 389 572 c 1
 389 464 l 1
EndSplineSet
LCarets2: 2 300 500 
Ligature2: "Ligatures-1" f f t
EndChar
StartChar: f_t_y
Encoding: 61136 61136 356
Width: 850
GlyphClass: 3
Flags: W
HStem: -214 128<-92.5 -3.5 532.5 627.5> -64 21G<320 360 595 635> 336 128<189 261 389 480> 444 20G<730 770>
VStem: 61 128<-115 336 464 515> 261 128<64.2805 336 464 517.891> 486 128<140 330> 686 128<-130 7 65 330>
LayerCount: 2
Back
SplineSet
785 330 m 25
 715 400 l 1049
500 -200 m 17
 500 -200 537 -150 575 -150 c 8
 619 -150 631 -200 675 -200 c 24
 710 -200 750 -150 750 -150 c 1
 750 365 l 1025
750 100 m 9
 650 0 l 25
 550 100 l 1
 550 365 l 1049
-125 -200 m 1
 -125 -200 -88 -150 -50 -150 c 8
 -19 -150 18 -200 50 -200 c 24
 78 -200 125 -150 125 -150 c 1
 125 550 l 1
 225 650 l 1
 225 650 281 550 325 550 c 1
 325 50 l 1
 375 0 l 1
 475 100 l 1025
50 400 m 1
 515 400 l 25
 585 330 l 1025
EndSplineSet
Fore
SplineSet
-160 -264 m 1xef
 -189 -235 l 1
 -189 -235 -183 -227 -173 -217 c 2
 -74 -118 l 2
 -73 -117 l 0
 -58 -102 -37 -86 -15 -86 c 0
 8 -86 36 -116 61 -129 c 1
 61 336 l 1
 15 336 l 1
 -14 365 l 1
 61 440 l 1
 61 515 l 1
 260 714 l 1
 289 685 l 1
 289 685 307 654 329 627 c 0
 340 619 350 614 360 614 c 1
 389 585 l 1
 389 464 l 1xef
 550 464 l 1
 585 429 l 1
 614 400 l 1
 649 365 l 1
 614 330 l 1
 614 135 l 1
 685 64 l 1
 686 65 l 1
 686 330 l 1
 651 365 l 1
 750 464 l 1xdf
 785 429 l 1
 814 400 l 1
 849 365 l 1
 814 330 l 1
 814 135 l 1
 814 -115 l 2
 814 -115 809 -120 801 -129 c 2
 800 -130 l 2
 701 -229 l 2
 686 -244 662 -264 640 -264 c 0
 596 -264 584 -214 540 -214 c 0
 525 -214 511 -221 498 -231 c 2
 465 -264 l 1
 436 -235 l 1
 436 -235 442 -227 452 -217 c 2
 551 -118 l 2
 552 -117 l 0
 567 -102 588 -86 610 -86 c 0
 645 -86 660 -117 686 -130 c 1
 686 7 l 1
 615 -64 l 1
 486 65 l 1
 486 82 l 1
 340 -64 l 1
 261 15 l 1
 261 336 l 1
 189 336 l 1
 189 -115 l 2
 189 -115 188 -116 185 -119 c 2
 86 -218 l 2
 74 -230 38 -264 15 -264 c 0
 -17 -264 -54 -214 -85 -214 c 0
 -100 -214 -114 -221 -127 -231 c 2
 -160 -264 l 1xef
189 464 m 1
 261 464 l 1
 261 498 l 1
 256 502 250 507 245 512 c 2
 216 541 l 2
 206 551 197 562 189 572 c 1
 189 464 l 1
389 336 m 1
 389 85 l 2
 389 75 404 70 410 64 c 1
 486 140 l 1
 486 330 l 1
 480 336 l 1
 389 336 l 1
EndSplineSet
LCarets2: 2 300 500 
Ligature2: "Ligatures-1" f t y
EndChar
StartChar: g_g
Encoding: 61137 61137 497
Width: 600
Flags: W
HStem: -214 128<82.5 171.5> -64 21G<145 185 364 385> 444 20G<215 255 315 355 415 455 515 555> 444 20G<215 255 315 355 415 455 515 555>
VStem: 36 128<97.7768 265> 236 128<-104.365 -63 97.7768 303> 436 128<-115 7 63 303>
CounterMasks: 1 0e
LayerCount: 2
Back
SplineSet
300 -150 m 8
 331 -150 393 -200 425 -200 c 0
 453 -200 500 -150 500 -150 c 9
 500 400 l 1
 500 400 478 360 450 360 c 24
 422 360 400 400 400 400 c 1
 300 300 l 25
 300 100 l 25
 400 0 l 25
 500 100 l 1041
50 -200 m 17
 50 -200 87 -150 125 -150 c 8
 156 -150 193 -200 225 -200 c 24
 253 -200 300 -150 300 -150 c 9
 300 400 l 1
 300 400 278 360 250 360 c 24
 222 360 200 400 200 400 c 1
 100 300 l 25
 100 100 l 25
 200 0 l 25
 300 100 l 1041
EndSplineSet
Fore
SplineSet
236 7 m 1xee
 165 -64 l 1
 36 65 l 1
 36 265 l 1
 235 464 l 1
 264 435 l 1
 264 435 266 433 268 429 c 0
 273 426 279 424 285 424 c 0
 289 424 293 425 298 427 c 2
 335 464 l 1
 364 435 l 1
 364 393 l 1
 435 464 l 1
 464 435 l 1
 464 435 466 433 468 429 c 0
 473 426 479 424 485 424 c 0
 489 424 493 425 498 427 c 2
 535 464 l 1
 564 435 l 1
 564 -115 l 2
 564 -115 563 -116 560 -119 c 2
 461 -218 l 2
 449 -230 413 -264 390 -264 c 0
 358 -264 296 -214 265 -214 c 1
 261 -218 l 2
 249 -230 213 -264 190 -264 c 0
 158 -264 121 -214 90 -214 c 0
 75 -214 61 -221 48 -231 c 2
 15 -264 l 1
 -14 -235 l 1
 -14 -235 -8 -227 2 -217 c 2
 101 -118 l 2
 102 -117 l 0
 117 -102 138 -86 160 -86 c 0
 183 -86 211 -116 236 -129 c 1
 236 7 l 1xee
436 63 m 1
 436 303 l 1
 430 299 422 296 415 296 c 0
 403 296 392 303 383 312 c 2
 364 331 l 1
 364 135 l 2
 364 97 415 84 436 63 c 1
436 7 m 1
 365 -64 l 1
 364 -63 l 1
 364 -94 l 1
 387 -104 414 -121 436 -130 c 1
 436 7 l 1
236 265 m 1
 236 303 l 1
 230 299 222 296 215 296 c 0
 203 296 192 303 183 312 c 2
 164 331 l 1
 164 135 l 2
 164 97 215 84 236 63 c 1
 236 65 l 1
 236 265 l 1
EndSplineSet
LCarets2: 1 300 
Ligature2: "Historic ligatures-1" g g
EndChar
StartChar: p_p
Encoding: 61142 61142 689
Width: 600
Flags: W
HStem: -214 21G<45 85 245 285> -64 21G<-5 27 164 177 364 385> 444 20G<80 120 215.294 255 415 455> 444 20G<80 120 215.294 255 415 455>
VStem: 36 128<-115 -63 105.765 330> 236 128<-115 -63 99.6857 265> 436 128<135 265>
CounterMasks: 1 0e
LayerCount: 2
Back
SplineSet
300 -150 m 1
 300 300 l 9
 400 400 l 1
 500 300 l 25
 500 100 l 1
 400 0 l 1
 400 0 366 50 275 50 c 0
 246 50 200 0 200 0 c 1
 200 0 154 50 125 50 c 0
 96 50 50 0 50 0 c 1025
300 300 m 25
 200 400 l 1
 100 300 l 1049
65 400 m 29
 135 330 l 1053
100 365 m 5
 100 -150 l 1025
EndSplineSet
Fore
SplineSet
135 429 m 1xee
 164 400 l 1
 168 396 l 1
 235 464 l 1
 335 364 l 1
 435 464 l 1
 564 335 l 1
 564 135 l 1
 365 -64 l 1
 364 -63 l 1
 364 -115 l 1
 265 -214 l 1
 236 -185 l 1
 236 -14 l 1
 217 -17 191 -39 177 -52 c 2
 165 -64 l 1
 164 -63 l 1
 164 -115 l 1
 65 -214 l 1
 36 -185 l 1
 36 -44 l 2
 33 -47 30 -50 27 -52 c 2
 15 -64 l 1
 -14 -35 l 1
 -14 -35 -12 -33 -8 -29 c 2
 36 15 l 1
 36 265 l 1
 36 330 l 1
 1 365 l 1
 100 464 l 1
 135 429 l 1xee
364 107 m 1
 398 98 418 82 428 72 c 0
 431 69 433 68 436 65 c 2
 436 265 l 1
 365 336 l 1
 364 335 l 1
 364 107 l 1
164 330 m 1
 164 114 l 1
 186 111 216 83 229 70 c 2
 235 64 l 1
 236 65 l 1
 236 265 l 1
 167 334 l 1
 164 330 l 1
EndSplineSet
LCarets2: 1 300 
Ligature2: "Historic ligatures-1" p p
EndChar
StartChar: pfluorish_p
Encoding: 61143 61143 879
Width: 700
Flags: W
HStem: -214 21G<-30 2 145 185 345 385> -64 21G<264 277 464 485> 444 20G<180 220 315.294 355 515 555> 444 20G<180 220 315.294 355 515 555>
VStem: 136 128<-115 -63 159 330> 336 128<-115 -63 99.6857 265> 536 128<135 265>
CounterMasks: 1 0e
LayerCount: 2
Back
SplineSet
400 -150 m 1
 400 300 l 9
 500 400 l 1
 600 300 l 25
 600 100 l 1
 500 0 l 1
 500 0 466 50 375 50 c 0
 346 50 300 0 300 0 c 1
 300 0 232 100 25 100 c 1
 25 100 75 44 75 0 c 3
 75 -132 25 -150 25 -150 c 1033
400 300 m 25
 300 400 l 1
 200 300 l 1049
165 400 m 25
 235 330 l 1049
200 365 m 1
 200 -150 l 1025
EndSplineSet
Fore
SplineSet
235 429 m 1xee
 264 400 l 1
 268 396 l 1
 335 464 l 1
 435 364 l 1
 535 464 l 1
 664 335 l 1
 664 135 l 1
 465 -64 l 1
 464 -63 l 1
 464 -115 l 1
 365 -214 l 1
 336 -185 l 1
 336 -14 l 1
 317 -17 291 -39 277 -52 c 2
 265 -64 l 1
 264 -63 l 1
 264 -115 l 1
 165 -214 l 1
 136 -185 l 1
 136 -16 l 1
 129 -69 113 -94 101 -106 c 2
 2 -205 l 2
 -5 -212 -10 -214 -10 -214 c 1
 -39 -185 l 1
 -15 -161 l 1
 -3 -141 11 -103 11 -35 c 0
 11 9 -39 65 -39 65 c 1
 60 164 l 1
 88 164 113 162 136 159 c 1
 136 265 l 1
 136 330 l 1
 101 365 l 1
 200 464 l 1
 235 429 l 1xee
464 107 m 1
 498 98 518 82 528 72 c 0
 531 69 533 68 536 65 c 2
 536 265 l 1
 465 336 l 1
 464 335 l 1
 464 107 l 1
264 330 m 1
 264 120 l 1
 293 105 312 89 323 78 c 2
 336 65 l 1
 336 265 l 1
 267 334 l 1
 264 330 l 1
EndSplineSet
LCarets2: 1 400 
Ligature2: "Ligatures-1" pflourish p
EndChar
StartChar: t_r
Encoding: 61144 61144 729
Width: 500
Flags: W
HStem: -64 21G<120 160 280 320> 444 20G<415.294 455> 594 20G<140 180 415.294 455>
VStem: 61 128<64.2805 336 464 515> 236 128<90 330>
LayerCount: 2
Back
SplineSet
450 350 m 25
 400 400 l 25
 300 300 l 1049
265 70 m 25
 335 0 l 1049
300 365 m 9
 300 35 l 1025
125 550 m 1
 125 50 l 1
 175 0 l 1
 275 100 l 1025
50 400 m 1
 265 400 l 25
 335 330 l 1025
EndSplineSet
Fore
SplineSet
160 614 m 1
 189 585 l 1
 189 464 l 1
 300 464 l 1
 335 429 l 1
 364 400 l 1
 368 396 l 1
 435 464 l 1
 514 385 l 1
 415 286 l 1
 367 334 l 1
 364 330 l 1
 364 70 l 1
 399 35 l 1
 300 -64 l 1
 265 -29 l 1
 236 -0 l 1
 220 16 l 1
 140 -64 l 1
 61 15 l 1
 61 336 l 1
 15 336 l 1
 -14 365 l 1
 61 440 l 1
 61 515 l 1
 160 614 l 1
189 336 m 1
 189 85 l 2
 189 75 204 70 210 64 c 1
 236 90 l 1
 236 265 l 1
 236 330 l 1
 230 336 l 1
 189 336 l 1
EndSplineSet
LCarets2: 1 300 
Ligature2: "Ligatures-1" t r
EndChar
StartChar: t_t
Encoding: 61145 61145 730
Width: 525
Flags: W
HStem: -64 21G<120 160 320 360> 336 128<189 261 389 415> 594 20G<140 180 340 380>
VStem: 61 128<64.2805 336 464 515> 261 128<115 336 464 515>
LayerCount: 2
Back
SplineSet
325 550 m 1
 325 50 l 1
 375 0 l 1
 475 100 l 1025
50 400 m 1
 450 400 l 1041
125 550 m 1
 125 50 l 1
 175 0 l 1
 275 100 l 1025
EndSplineSet
Fore
SplineSet
160 614 m 1
 189 585 l 1
 189 464 l 1
 261 464 l 1
 261 515 l 1
 360 614 l 1
 389 585 l 1
 389 464 l 1
 485 464 l 1
 514 435 l 1
 415 336 l 1
 389 336 l 1
 389 85 l 2
 389 75 404 70 410 64 c 1
 510 164 l 1
 539 135 l 1
 340 -64 l 1
 261 15 l 1
 261 57 l 1
 140 -64 l 1
 61 15 l 1
 61 336 l 1
 15 336 l 1
 -14 365 l 1
 61 440 l 1
 61 515 l 1
 160 614 l 1
189 336 m 1
 189 85 l 2
 189 75 204 70 210 64 c 1
 261 115 l 1
 261 336 l 1
 189 336 l 1
EndSplineSet
LCarets2: 1 300 
Ligature2: "Ligatures-1" t t
EndChar
StartChar: a_f
Encoding: 61347 61347 337
Width: 475
GlyphClass: 3
Flags: W
HStem: -214 128<82.5 171.5> -64 21G<120 160> 536 21G<428.5 454>
VStem: 236 128<-115 32 90 161 297 336 464 515>
LayerCount: 2
Back
SplineSet
300 125 m 9
 175 0 l 1
 100 75 l 1
 100 175 l 1
 175 250 l 1
 175 250 193.964297096 225 250 225 c 3
 269.004218286 225 300 225 300 225 c 1033
50 -200 m 17
 50 -200 87 -150 125 -150 c 8
 156 -150 193 -200 225 -200 c 24
 253 -200 300 -150 300 -150 c 1
 300 550 l 1
 400 650 l 17
 400 650 431 600 475 600 c 24
 503 600 550 650 551 650 c 1033
425 400 m 1
 175 400 l 17
 100 325 l 1
 125 250 l 1033
EndSplineSet
Fore
SplineSet
489 435 m 1
 390 336 l 1
 364 336 l 1
 364 260 l 1
 364 160 l 1
 364 -115 l 2
 364 -115 363 -116 360 -119 c 2
 261 -218 l 2
 249 -230 213 -264 190 -264 c 0
 158 -264 121 -214 90 -214 c 0
 75 -214 61 -221 48 -231 c 2
 15 -264 l 1
 -14 -235 l 1
 -14 -235 -8 -227 2 -217 c 2
 101 -118 l 2
 102 -117 l 0
 117 -102 138 -86 160 -86 c 0
 183 -86 211 -116 236 -129 c 1
 236 32 l 1
 140 -64 l 1
 36 40 l 1
 36 140 l 1
 86 190 l 1
 61 215 l 1
 36 290 l 1
 210 464 l 1
 236 464 l 1
 236 515 l 1
 435 714 l 1
 464 685 l 1
 464 685 465 683 468 679 c 0
 480 671 494 664 510 664 c 0
 538 664 585 714 586 714 c 2
 615 685 l 1
 516 586 l 2
 515 586 468 536 440 536 c 0
 417 536 397 550 384 563 c 0
 383 564 l 2
 364 583 l 1
 364 464 l 1
 460 464 l 1
 489 435 l 1
236 336 m 1
 172 336 l 1
 187 291 l 1
 210 314 l 1
 214 310 l 2
 218 306 225 301 236 297 c 1
 236 336 l 1
236 90 m 1
 236 161 l 1
 215 161 l 2
 192 161 176 165 164 170 c 1
 164 110 l 1
 210 64 l 1
 236 90 l 1
EndSplineSet
LCarets2: 1 300 
Ligature2: "Historic ligatures-1" a f
EndChar
StartChar: a_n
Encoding: 61351 61351 340
Width: 600
GlyphClass: 3
Flags: W
HStem: -64 21G<120 160 280 320 480 520> 444 20G<190 310 440 480> 444 20G<190 310 440 480>
VStem: 236 128<90 161 297 310> 436 128<70 319.643>
LayerCount: 2
Back
SplineSet
125 250 m 17
 100 325 l 1
 175 400 l 1
 300 375 l 1
 300 125 l 9
 175 0 l 1
 100 75 l 1
 100 175 l 1
 175 250 l 1
 175 250 193.964297096 225 250 225 c 3
 269.004218286 225 300 225 300 225 c 1033
465 70 m 25
 535 0 l 1049
500 35 m 1
 500 325 l 25
 425 400 l 1
 300 275 l 1049
265 70 m 25
 335 0 l 1049
300 35 m 1
 300 375 l 1041
EndSplineSet
Fore
SplineSet
86 190 m 1xd8
 61 215 l 1
 36 290 l 1
 210 464 l 1
 335 439 l 1
 364 410 l 1
 364 368 l 1
 460 464 l 1
 564 360 l 1
 564 70 l 1
 599 35 l 1
 500 -64 l 1
 465 -29 l 1
 436 -0 l 1
 401 35 l 1
 436 70 l 1
 436 290 l 2
 436 314 403 323 390 336 c 1
 364 310 l 1
 364 160 l 1
 364 70 l 1
 399 35 l 1
 300 -64 l 1
 265 -29 l 1
 236 -0 l 1
 220 16 l 1
 140 -64 l 1
 36 40 l 1
 36 140 l 1
 86 190 l 1xd8
187 291 m 1
 210 314 l 1
 214 310 l 2
 218 306 225 301 236 297 c 1
 236 317 l 1
 174 329 l 1
 187 291 l 1
236 90 m 1
 236 161 l 1
 215 161 l 2
 192 161 176 165 164 170 c 1
 164 110 l 1
 210 64 l 1
 236 90 l 1
EndSplineSet
LCarets2: 1 300 
Ligature2: "Historic ligatures-1" a n
EndChar
StartChar: a_Rsmallcap
Encoding: 61355 61355 857
Width: 650
Flags: W
HStem: -64 21G<120 160 270 310 495 535> 444 20G<190 310 415 465> 444 20G<190 310 415 465>
LayerCount: 2
Back
SplineSet
600 50 m 25
 550 0 l 1
 550 0 531 82 500 125 c 24
 480 154 425 175 425 175 c 1025
400 150 m 1
 550 300 l 1
 400 400 l 1
 300 300 l 1049
125 250 m 17
 100 325 l 1
 175 400 l 1
 300 375 l 1
 300 25 l 1
 325 0 l 1
 375 50 l 1049
300 125 m 25
 175 0 l 1
 100 75 l 1
 100 175 l 1
 175 250 l 1
 175 250 193.964297096 225 250 225 c 3
 269.004218286 225 300 225 300 225 c 1033
EndSplineSet
Fore
SplineSet
635 114 m 1xc0
 664 85 l 1
 515 -64 l 1
 486 -35 l 1
 486 -35 468 42 439 85 c 0
 438 86 l 2
 439 85 l 1
 290 -64 l 1
 236 -10 l 1
 236 32 l 1
 140 -64 l 1
 36 40 l 1
 36 140 l 1
 86 190 l 1
 61 215 l 1
 36 290 l 1
 210 464 l 1
 335 439 l 1
 364 410 l 1
 364 393 l 1
 435 464 l 1
 585 364 l 1
 614 335 l 1
 499 220 l 1
 509 214 518 207 526 199 c 0
 527 199 l 2
 556 170 l 2
 559 167 562 163 564 160 c 0
 580 138 592 107 601 80 c 1
 635 114 l 1xc0
187 291 m 1
 210 314 l 1
 214 310 l 2
 218 306 225 301 236 297 c 1
 236 317 l 1
 174 329 l 1
 187 291 l 1
236 161 m 1
 215 161 l 2
 192 161 176 165 164 170 c 1
 164 110 l 1
 210 64 l 1
 236 90 l 1
 236 161 l 1
364 160 m 1
 364 143 l 1
 460 239 l 1
 480 259 l 1
 365 336 l 1
 364 335 l 1
 364 260 l 1
 364 160 l 1
364 87 m 1
 364 68 l 1
 402 106 l 1
 395 109 390 111 390 111 c 2
 365 86 l 1
 364 87 l 1
EndSplineSet
LCarets2: 1 300 
Ligature2: "Historic ligatures-1" a Rsmallcap
EndChar
StartChar: c_h
Encoding: 61883 61883 853
Width: 650
Flags: W
HStem: -64 21G<145 184.785 330 370 530 570> 444 20G<215 255 490 530> 444 20G<215 255 490 530>
VStem: 36 128<98.1606 265> 286 128<115 257 413 555> 486 128<70 319.643>
LayerCount: 2
Back
SplineSet
300 300 m 9
 200 400 l 25
 100 300 l 25
 100 100 l 25
 200 0 l 25
 300 100 l 1041
515 70 m 25
 585 0 l 1049
315 70 m 25
 385 0 l 1049
315 625 m 25
 385 555 l 1049
350 590 m 9
 350 35 l 1049
550 35 m 25
 550 325 l 25
 475 400 l 1
 350 275 l 1049
EndSplineSet
Fore
SplineSet
385 654 m 1xdc
 414 625 l 1
 449 590 l 1
 414 555 l 1
 414 368 l 1
 510 464 l 1
 614 360 l 1
 614 70 l 1
 649 35 l 1
 550 -64 l 1
 515 -29 l 1
 486 -0 l 1
 451 35 l 1
 486 70 l 1
 486 290 l 2
 486 314 453 323 440 336 c 1
 414 310 l 1
 414 70 l 1
 449 35 l 1
 350 -64 l 1
 315 -29 l 1
 286 -0 l 1
 257 29 l 1
 165 -64 l 1
 36 65 l 1
 36 265 l 1
 235 464 l 1
 286 413 l 1
 286 555 l 1
 251 590 l 1
 350 689 l 1
 385 654 l 1xdc
286 240 m 1
 286 257 l 1
 265 236 l 1
 165 336 l 1
 164 335 l 1
 164 135 l 2
 164 97 214 85 235 64 c 1
 286 115 l 1
 286 240 l 1
EndSplineSet
LCarets2: 1 300 
Ligature2: "Ligatures-1" c h
EndChar
StartChar: m.alt
Encoding: 61987 61987 588
Width: 600
Flags: W
HStem: -64 21G<80 120 280 320> 444 20G<80 120 240 280 440 480> 444 20G<80 120 240 280 440 480>
VStem: 36 128<70 310> 236 128<70 310> 436 128<-65 319.643>
CounterMasks: 1 1c
AnchorPoint: "abvmark" 300 500 basechar 0
LayerCount: 2
Back
SplineSet
265 70 m 25
 335 0 l 1049
300 35 m 1
 300 325 l 25
 225 400 l 1
 100 275 l 1049
65 70 m 25
 135 0 l 1049
135 330 m 25
 65 400 l 1049
100 365 m 9
 100 35 l 1025
430 -170 m 25
 500 -100 l 1
 500 325 l 9
 425 400 l 1
 300 275 l 1049
EndSplineSet
Fore
SplineSet
395 -234 m 1xdc
 366 -205 l 1
 436 -135 l 1
 436 290 l 2
 436 314 403 323 390 336 c 1
 364 310 l 1
 364 70 l 1
 399 35 l 1
 300 -64 l 1
 265 -29 l 1
 236 -0 l 1
 201 35 l 1
 236 70 l 1
 236 240 l 1
 236 290 l 2
 236 314 203 323 190 336 c 1
 164 310 l 1
 164 70 l 1
 199 35 l 1
 100 -64 l 1
 65 -29 l 1
 36 -0 l 1
 1 35 l 1
 36 70 l 1
 36 240 l 1
 36 330 l 1
 1 365 l 1
 100 464 l 1
 135 429 l 1
 164 400 l 1
 180 384 l 1
 260 464 l 1
 360 364 l 1
 460 464 l 1
 564 360 l 1
 564 -65 l 1
 395 -234 l 1xdc
EndSplineSet
EndChar
StartChar: n.alt
Encoding: 61992 61992 598
Width: 400
Flags: W
HStem: -64 21G<80 120> 444 20G<80 120 240 280> 444 20G<80 120 240 280>
VStem: 36 128<70 310> 236 128<-65 319.643>
AnchorPoint: "abvmark" 200 500 basechar 0
LayerCount: 2
Back
SplineSet
65 70 m 25
 135 0 l 1049
135 330 m 25
 65 400 l 1049
100 365 m 9
 100 35 l 1025
230 -170 m 25
 300 -100 l 1
 300 325 l 9
 225 400 l 1
 100 275 l 1049
EndSplineSet
Fore
SplineSet
195 -234 m 1xd8
 166 -205 l 1
 236 -135 l 1
 236 290 l 2
 236 314 203 323 190 336 c 1
 164 310 l 1
 164 70 l 1
 199 35 l 1
 100 -64 l 1
 65 -29 l 1
 36 -0 l 1
 1 35 l 1
 36 70 l 1
 36 240 l 1
 36 330 l 1
 1 365 l 1
 100 464 l 1
 135 429 l 1
 164 400 l 1
 180 384 l 1
 260 464 l 1
 364 360 l 1
 364 -65 l 1
 195 -234 l 1xd8
EndSplineSet
EndChar
StartChar: longs_s
Encoding: 62717 62717 710
Width: 600
Flags: W
HStem: -214 128<-92.5 -3.5> -64 21G<195 227 353 385> -14 128<280 382.06> 286 128<428 520> 444 20G<415 455 576 605> 444 20G<415 455 576 605> 536 21G<253.5 279>
VStem: 61 128<-115 -38 -32 515>
LayerCount: 2
Back
SplineSet
-125 -200 m 17
 -125 -200 -88 -150 -50 -150 c 8
 -19 -150 18 -200 50 -200 c 24
 78 -200 125 -150 125 -150 c 1
 125 550 l 1
 225 650 l 17
 225 650 256 600 300 600 c 24
 328 600 375 650 376 650 c 1033
550 400 m 21
 550 400 503 350 475 350 c 28
 431 350 400 400 400 400 c 13
 300 300 l 5
 300 240 l 5
 500 160 l 5
 500 100 l 5
 400 0 l 21
 400 0 354 50 325 50 c 28
 296 50 250 0 250 0 c 1029
EndSplineSet
Fore
SplineSet
585 464 m 1xfb
 614 435 l 1
 614 435 613 434 610 431 c 2
 511 332 l 2
 499 320 463 286 440 286 c 0
 416 286 396 301 383 314 c 2
 364 333 l 1
 364 292 l 1
 535 224 l 1
 564 195 l 1
 564 135 l 1
 365 -64 l 1
 353 -52 l 2
 337 -37 310 -14 290 -14 c 0
 270 -14 242 -38 227 -52 c 2
 215 -64 l 1
 189 -38 l 1
 189 -115 l 2
 189 -115 188 -116 185 -119 c 2
 86 -218 l 2
 74 -230 38 -264 15 -264 c 0
 -17 -264 -54 -214 -85 -214 c 0
 -100 -214 -114 -221 -127 -231 c 2
 -160 -264 l 1
 -189 -235 l 1
 -189 -235 -183 -227 -173 -217 c 2
 -74 -118 l 2
 -73 -117 l 0
 -58 -102 -37 -86 -15 -86 c 0
 8 -86 36 -116 61 -129 c 1
 61 515 l 1
 260 714 l 1
 289 685 l 1
 289 685 290 683 293 679 c 0
 305 671 319 664 335 664 c 0
 363 664 410 714 411 714 c 2
 440 685 l 1
 341 586 l 2
 340 586 293 536 265 536 c 0
 242 536 222 550 209 563 c 0
 208 564 l 2
 189 583 l 1
 189 -32 l 2
 190 -31 191 -30 192 -29 c 2
 291 70 l 2
 304 83 337 114 360 114 c 0
 383 114 416 83 429 70 c 2
 435 64 l 1
 436 65 l 1
 436 108 l 1
 265 176 l 1
 236 205 l 1
 236 265 l 1
 435 464 l 1
 464 435 l 1
 464 435 465 433 468 429 c 0
 479 421 494 414 510 414 c 0
 530 414 560 440 576 455 c 2
 585 464 l 1xfb
EndSplineSet
LCarets2: 1 300 
Ligature2: "Ligatures-1" longs s
EndChar
StartChar: f_i
Encoding: 64257 64257 321
Width: 450
Flags: W
HStem: -214 128<-92.5 2.5> -64 21G<330 370> 336 128<189 280> 476 21G<285 325>
VStem: 61 128<-130 336 464 515> 286 128<70 330>
LayerCount: 2
Back
SplineSet
350 365 m 9
 350 35 l 1025
315 70 m 25
 385 0 l 25
 455 70 l 1049
50 400 m 1
 315 400 l 25
 385 330 l 1025
-125 -200 m 1
 -125 -200 -88 -150 -50 -150 c 8
 -6 -150 6 -200 50 -200 c 24
 85 -200 125 -150 125 -150 c 1
 125 550 l 1
 225 650 l 1
 225 650 270 610 410 610 c 9
 340 540 l 1025
EndSplineSet
Fore
SplineSet
-160 -264 m 1
 -189 -235 l 1
 -189 -235 -183 -227 -173 -217 c 2
 -74 -118 l 2
 -73 -117 l 0
 -58 -102 -37 -86 -15 -86 c 0
 20 -86 35 -117 61 -130 c 1
 61 336 l 1
 15 336 l 1
 -14 365 l 1
 61 440 l 1
 61 515 l 1
 260 714 l 1
 260 714 305 674 445 674 c 1
 474 645 l 1
 305 476 l 1
 276 505 l 1
 319 548 l 1
 223 557 190 586 190 586 c 1
 189 585 l 1
 189 464 l 1
 350 464 l 1
 385 429 l 1
 414 400 l 1
 449 365 l 1
 414 330 l 1
 414 70 l 1
 420 64 l 1
 490 134 l 1
 519 105 l 1
 350 -64 l 1
 315 -29 l 1
 286 -0 l 1
 251 35 l 1
 286 70 l 1
 286 330 l 1
 280 336 l 1
 189 336 l 1
 189 -115 l 2
 189 -115 184 -120 176 -129 c 2
 175 -130 l 2
 76 -229 l 2
 61 -244 37 -264 15 -264 c 0
 -29 -264 -41 -214 -85 -214 c 0
 -100 -214 -114 -221 -127 -231 c 2
 -160 -264 l 1
EndSplineSet
LCarets2: 1 300 
Ligature2: "Ligatures-1" f i
EndChar
StartChar: longs_t
Encoding: 64261 64261 333
Width: 525
Flags: W
HStem: -214 128<-92.5 -3.5> -64 21G<320 360>
VStem: 61 128<-115 362 368 515> 261 128<64.2805 336 464 517.891>
LayerCount: 2
Back
SplineSet
-125 -200 m 17
 -125 -200 -88 -150 -50 -150 c 8
 -19 -150 18 -200 50 -200 c 24
 78 -200 125 -150 125 -150 c 1
 125 550 l 1
 225 650 l 1
 225 650 281 550 325 550 c 1
 325 50 l 1
 375 0 l 1
 475 100 l 1025
250 400 m 25
 450 400 l 1049
EndSplineSet
Fore
SplineSet
-160 -264 m 1
 -189 -235 l 1
 -189 -235 -183 -227 -173 -217 c 2
 -74 -118 l 2
 -73 -117 l 0
 -58 -102 -37 -86 -15 -86 c 0
 8 -86 36 -116 61 -129 c 1
 61 515 l 1
 260 714 l 1
 289 685 l 1
 289 685 307 654 329 627 c 0
 340 619 350 614 360 614 c 1
 389 585 l 1
 389 464 l 1
 485 464 l 1
 514 435 l 1
 415 336 l 1
 389 336 l 1
 389 85 l 2
 389 75 404 70 410 64 c 1
 510 164 l 1
 539 135 l 1
 340 -64 l 1
 261 15 l 1
 261 336 l 1
 215 336 l 1
 189 362 l 1
 189 -115 l 2
 189 -115 188 -116 185 -119 c 2
 86 -218 l 2
 74 -230 38 -264 15 -264 c 0
 -17 -264 -54 -214 -85 -214 c 0
 -100 -214 -114 -221 -127 -231 c 2
 -160 -264 l 1
189 368 m 1
 261 440 l 1
 261 498 l 1
 256 502 250 507 245 512 c 2
 216 541 l 2
 206 551 197 562 189 572 c 1
 189 368 l 1
EndSplineSet
LCarets2: 1 300 
Ligature2: "Ligatures-1" longs t
EndChar
StartChar: s_t
Encoding: 64262 64262 334
Width: 700
Flags: W
HStem: -64 21G<-5 35 145 185 495 535> -14 128<82 183.226> 286 129<303.282 436> 444 20G<215 317.041 650 680> 464 130G<215 317.041 515 555 650 680>
VStem: 436 128<64.2805 286 420 515>
LayerCount: 2
Back
SplineSet
50 0 m 1
 50 0 90 50 125 50 c 24
 160 50 200 0 200 0 c 9
 300 100 l 1
 300 160 l 1
 100 240 l 1
 100 300 l 1
 200 400 l 17
 200 400 274.817238291 350 450 350 c 7
 591.127601836 350 625 400 625 400 c 1033
500 550 m 1
 500 50 l 1
 550 0 l 1
 650 100 l 1025
EndSplineSet
Fore
SplineSet
535 614 m 1xf4
 564 585 l 1
 564 420 l 1
 613 429 638 444 650 454 c 2
 660 464 l 1
 689 435 l 2
 689 435 688 434 685 431 c 2
 685 430 l 2
 586 331 l 2
 582 327 575 321 564 315 c 1
 564 85 l 2
 564 75 579 70 585 64 c 1
 685 164 l 1
 714 135 l 1
 515 -64 l 1
 436 15 l 1
 436 286 l 1
 429 286 422 286 415 286 c 0
 240 286 165 336 165 336 c 1
 164 335 l 1
 164 292 l 1
 335 224 l 1
 364 195 l 1
 364 135 l 1
 165 -64 l 1
 137 -36 l 2
 124 -25 106 -14 90 -14 c 0
 74 -14 57 -24 43 -36 c 2
 15 -64 l 1
 -14 -35 l 1
 -14 -35 -9 -28 -0 -20 c 2
 99 79 l 2
 114 94 138 114 160 114 c 0
 182 114 206 94 221 79 c 2
 236 64 l 1
 236 108 l 1
 65 176 l 1
 36 205 l 1
 36 265 l 1
 235 464 l 1
 235 464 296 423 436 415 c 1
 436 515 l 1
 535 614 l 1xf4
EndSplineSet
LCarets2: 1 400 
Ligature2: "Ligatures-1" s t
EndChar
StartChar: w.alt
Encoding: 65542 -1 784
Width: 600
Flags: W
HStem: 444 20G<80 120 280 320 445 485> 444 20G<80 120 280 320 445 485>
VStem: 36 128<98.1606 330> 236 128<98.1606 330> 436 128<135 323.034>
CounterMasks: 1 38
AnchorPoint: "abvmark" 300 500 basechar 0
AnchorPoint: "blwmark" 300 0 basechar 0
LayerCount: 2
Back
SplineSet
335 330 m 25
 265 400 l 1049
300 365 m 25
 300 100 l 1
 400 0 l 25
 500 100 l 1
 500 330 l 29
 430 400 l 1053
135 330 m 25
 65 400 l 1049
100 365 m 25
 100 100 l 1
 200 0 l 25
 300 100 l 1025
EndSplineSet
Fore
SplineSet
135 429 m 1xb8
 164 400 l 1
 199 365 l 1
 164 330 l 1
 164 135 l 2
 164 97 214 85 235 64 c 1
 236 65 l 1
 236 330 l 1
 201 365 l 1
 300 464 l 1
 335 429 l 1
 364 400 l 1
 382 381 l 1
 465 464 l 1
 564 365 l 1
 564 135 l 1
 365 -64 l 1
 265 36 l 1
 165 -64 l 1
 36 65 l 1
 36 330 l 1
 1 365 l 1
 100 464 l 1
 135 429 l 1xb8
364 135 m 2
 364 97 414 85 435 64 c 1
 436 65 l 1
 436 295 l 2
 436 317 407 324 395 336 c 2
 382 349 l 1
 364 330 l 1
 364 135 l 2
EndSplineSet
EndChar
